<svg xmlns="http://www.w3.org/2000/svg" width="280" height="200" viewBox="0 0 280 200" fill="none">
<g opacity="0.5">
<path d="M78.4502 118.83H34.2702C30.7908 118.83 27.9702 121.651 27.9702 125.13V127.33C27.9702 130.809 30.7908 133.63 34.2702 133.63H78.4502C81.9296 133.63 84.7502 130.809 84.7502 127.33V125.13C84.7502 121.651 81.9296 118.83 78.4502 118.83Z" fill="#66D0EE"/>
<path d="M96.1299 140.69H51.9499C48.4705 140.69 45.6499 143.511 45.6499 146.99V149.19C45.6499 152.669 48.4705 155.49 51.9499 155.49H96.1299C99.6093 155.49 102.43 152.669 102.43 149.19V146.99C102.43 143.511 99.6093 140.69 96.1299 140.69Z" fill="#66D0EE"/>
<path d="M236.29 10.34H192.11C188.631 10.34 185.81 13.1606 185.81 16.64V18.84C185.81 22.3194 188.631 25.14 192.11 25.14H236.29C239.769 25.14 242.59 22.3194 242.59 18.84V16.64C242.59 13.1606 239.769 10.34 236.29 10.34Z" fill="#66D0EE"/>
<path d="M254.01 29.95H231.79C228.311 29.95 225.49 32.7706 225.49 36.25V38.45C225.49 41.9294 228.311 44.75 231.79 44.75H254.01C257.49 44.75 260.31 41.9294 260.31 38.45V36.25C260.31 32.7706 257.49 29.95 254.01 29.95Z" fill="#66D0EE"/>
<path d="M16.4 133.63C20.4869 133.63 23.8 130.317 23.8 126.23C23.8 122.143 20.4869 118.83 16.4 118.83C12.3131 118.83 9 122.143 9 126.23C9 130.317 12.3131 133.63 16.4 133.63Z" fill="#66D0EE"/>
</g>
<path d="M208.01 24.81H83.4199C77.8971 24.81 73.4199 29.2871 73.4199 34.81V169.53C73.4199 175.053 77.8971 179.53 83.4199 179.53H208.01C213.533 179.53 218.01 175.053 218.01 169.53V34.81C218.01 29.2871 213.533 24.81 208.01 24.81Z" fill="black" fill-opacity="0.1"/>
<path d="M203.53 19.21H78.9399C73.4171 19.21 68.9399 23.6871 68.9399 29.21V163.93C68.9399 169.453 73.4171 173.93 78.9399 173.93H203.53C209.053 173.93 213.53 169.453 213.53 163.93V29.21C213.53 23.6871 209.053 19.21 203.53 19.21Z" fill="#F2FBFE"/>
<path d="M194.17 79.26H88.29C86.0809 79.26 84.29 81.0509 84.29 83.26V94.54C84.29 96.7491 86.0809 98.54 88.29 98.54H194.17C196.379 98.54 198.17 96.7491 198.17 94.54V83.26C198.17 81.0509 196.379 79.26 194.17 79.26Z" fill="white" stroke="#D4D4D4" stroke-miterlimit="10"/>
<path d="M194.17 107.17H88.29C86.0809 107.17 84.29 108.961 84.29 111.17V122.45C84.29 124.659 86.0809 126.45 88.29 126.45H194.17C196.379 126.45 198.17 124.659 198.17 122.45V111.17C198.17 108.961 196.379 107.17 194.17 107.17Z" fill="white" stroke="#D4D4D4" stroke-miterlimit="10"/>
<path d="M175.01 138.4H107.46C105.251 138.4 103.46 140.191 103.46 142.4V157.65C103.46 159.859 105.251 161.65 107.46 161.65H175.01C177.219 161.65 179.01 159.859 179.01 157.65V142.4C179.01 140.191 177.219 138.4 175.01 138.4Z" fill="#161F28"/>
<path d="M95.51 91.03C95.51 91.6 95.31 92.04 94.91 92.34C94.51 92.64 93.92 92.79 93.13 92.79C92.72 92.79 92.38 92.76 92.09 92.71C91.8 92.65 91.54 92.57 91.29 92.47V91.21C91.57 91.34 91.89 91.45 92.24 91.54C92.59 91.63 92.91 91.67 93.17 91.67C93.72 91.67 94 91.51 94 91.19C94 91.07 93.96 90.97 93.89 90.9C93.82 90.83 93.69 90.74 93.51 90.65C93.33 90.56 93.09 90.44 92.79 90.32C92.36 90.14 92.05 89.97 91.85 89.82C91.65 89.67 91.5 89.49 91.41 89.29C91.32 89.09 91.27 88.85 91.27 88.56C91.27 88.06 91.46 87.68 91.85 87.41C92.23 87.14 92.78 87 93.48 87C94.18 87 94.8 87.15 95.44 87.44L94.98 88.54C94.7 88.42 94.44 88.32 94.2 88.25C93.96 88.17 93.71 88.14 93.46 88.14C93.01 88.14 92.79 88.26 92.79 88.5C92.79 88.64 92.86 88.75 93.01 88.85C93.15 88.95 93.47 89.1 93.96 89.29C94.39 89.47 94.71 89.63 94.92 89.78C95.12 89.93 95.27 90.11 95.37 90.31C95.47 90.51 95.51 90.75 95.51 91.02V91.03Z" fill="#232323"/>
<path d="M101.76 89.88C101.76 90.79 101.52 91.5 101.04 92.01C100.56 92.52 99.8901 92.78 99.0401 92.78C98.5001 92.78 98.0301 92.66 97.6201 92.43C97.2101 92.2 96.9001 91.86 96.6801 91.42C96.4601 90.98 96.3501 90.47 96.3501 89.88C96.3501 88.97 96.5901 88.26 97.0601 87.76C97.5301 87.26 98.2001 87 99.0601 87C99.6001 87 100.07 87.12 100.48 87.35C100.89 87.58 101.2 87.92 101.42 88.35C101.64 88.79 101.75 89.3 101.75 89.88H101.76ZM97.9101 89.88C97.9101 90.43 98.0001 90.85 98.1801 91.13C98.3601 91.41 98.6601 91.55 99.0601 91.55C99.4601 91.55 99.7601 91.41 99.9401 91.13C100.12 90.85 100.21 90.43 100.21 89.88C100.21 89.33 100.12 88.91 99.9401 88.64C99.7601 88.36 99.4701 88.23 99.0601 88.23C98.6501 88.23 98.3601 88.37 98.1801 88.64C98.0001 88.91 97.9101 89.33 97.9101 89.88Z" fill="#232323"/>
<path d="M102.22 87.11H103.89L104.94 90.25C105.03 90.52 105.09 90.84 105.12 91.22H105.15C105.19 90.88 105.26 90.56 105.36 90.25L106.39 87.11H108.02L105.66 93.4C105.44 93.98 105.14 94.42 104.74 94.71C104.34 95 103.87 95.14 103.34 95.14C103.08 95.14 102.82 95.11 102.57 95.06V93.85C102.75 93.89 102.95 93.91 103.17 93.91C103.44 93.91 103.67 93.83 103.88 93.66C104.09 93.49 104.24 93.25 104.35 92.91L104.44 92.64L102.23 87.11H102.22Z" fill="#232323"/>
<path d="M116.68 88.93C116.68 89.41 116.6 89.85 116.45 90.24C116.3 90.64 116.08 90.95 115.8 91.17C115.52 91.4 115.2 91.51 114.83 91.51C114.58 91.51 114.37 91.45 114.18 91.33C113.99 91.21 113.85 91.06 113.77 90.86H113.69C113.33 91.29 112.87 91.5 112.32 91.5C111.73 91.5 111.27 91.32 110.93 90.97C110.59 90.62 110.42 90.13 110.42 89.52C110.42 88.82 110.64 88.25 111.09 87.83C111.54 87.41 112.12 87.19 112.83 87.19C113.12 87.19 113.43 87.22 113.78 87.27C114.13 87.32 114.41 87.39 114.63 87.47L114.52 89.91C114.52 90.37 114.65 90.6 114.9 90.6C115.11 90.6 115.28 90.44 115.41 90.13C115.54 89.82 115.6 89.41 115.6 88.91C115.6 88.37 115.49 87.9 115.27 87.49C115.05 87.08 114.73 86.77 114.33 86.55C113.93 86.33 113.46 86.23 112.95 86.23C112.28 86.23 111.7 86.37 111.2 86.64C110.7 86.91 110.32 87.31 110.06 87.83C109.8 88.35 109.66 88.95 109.66 89.63C109.66 90.55 109.91 91.25 110.4 91.74C110.89 92.23 111.6 92.47 112.53 92.47C112.88 92.47 113.27 92.43 113.69 92.35C114.11 92.27 114.53 92.16 114.94 92.01V92.97C114.23 93.27 113.44 93.42 112.57 93.42C111.31 93.42 110.32 93.09 109.62 92.42C108.91 91.76 108.56 90.83 108.56 89.65C108.56 88.83 108.74 88.08 109.1 87.41C109.46 86.74 109.97 86.22 110.64 85.83C111.31 85.45 112.07 85.26 112.94 85.26C113.67 85.26 114.32 85.41 114.9 85.71C115.48 86.01 115.92 86.43 116.23 86.99C116.54 87.54 116.7 88.18 116.7 88.9L116.68 88.93ZM111.58 89.55C111.58 90.25 111.87 90.6 112.44 90.6C112.74 90.6 112.97 90.49 113.12 90.28C113.27 90.07 113.37 89.73 113.4 89.25L113.47 88.15C113.3 88.11 113.11 88.09 112.9 88.09C112.48 88.09 112.16 88.22 111.93 88.48C111.7 88.74 111.58 89.09 111.58 89.54V89.55Z" fill="#232323"/>
<path d="M121.24 92.78C120.58 92.78 120.07 92.54 119.7 92.07H119.62C119.67 92.54 119.7 92.8 119.7 92.88V95.14H118.18V87.11H119.42L119.63 87.83H119.7C120.06 87.28 120.58 87 121.28 87C121.94 87 122.45 87.25 122.82 87.76C123.19 88.27 123.38 88.97 123.38 89.88C123.38 90.47 123.29 90.99 123.12 91.43C122.95 91.87 122.7 92.2 122.37 92.43C122.05 92.66 121.67 92.77 121.23 92.77L121.24 92.78ZM120.79 88.22C120.41 88.22 120.14 88.34 119.97 88.57C119.8 88.8 119.71 89.18 119.7 89.71V89.87C119.7 90.47 119.79 90.9 119.97 91.16C120.15 91.42 120.43 91.55 120.81 91.55C121.49 91.55 121.83 90.99 121.83 89.86C121.83 89.31 121.75 88.9 121.58 88.63C121.41 88.36 121.15 88.22 120.79 88.22Z" fill="#232323"/>
<path d="M128.18 92.68L127.89 91.92H127.85C127.59 92.24 127.33 92.47 127.06 92.59C126.79 92.71 126.44 92.78 126 92.78C125.46 92.78 125.04 92.63 124.74 92.32C124.44 92.01 124.28 91.58 124.28 91.01C124.28 90.44 124.49 89.98 124.9 89.7C125.31 89.42 125.94 89.26 126.77 89.23L127.74 89.2V88.96C127.74 88.4 127.45 88.11 126.87 88.11C126.42 88.11 125.9 88.24 125.3 88.51L124.8 87.48C125.44 87.14 126.15 86.98 126.93 86.98C127.71 86.98 128.25 87.14 128.65 87.47C129.05 87.8 129.25 88.29 129.25 88.96V92.67H128.19L128.18 92.68ZM127.73 90.1L127.14 90.12C126.7 90.13 126.37 90.21 126.15 90.36C125.93 90.51 125.83 90.73 125.83 91.03C125.83 91.46 126.08 91.67 126.57 91.67C126.92 91.67 127.2 91.57 127.41 91.37C127.62 91.17 127.73 90.9 127.73 90.56V90.1Z" fill="#232323"/>
<path d="M132.27 89.65L132.93 88.8L134.49 87.11H136.2L133.99 89.53L136.34 92.69H134.59L132.98 90.43L132.33 90.95V92.68H130.81V84.92H132.33V88.38L132.25 89.65H132.27Z" fill="#232323"/>
<path d="M141.91 89.88C141.91 90.79 141.67 91.5 141.19 92.01C140.71 92.52 140.04 92.78 139.19 92.78C138.65 92.78 138.18 92.66 137.77 92.43C137.36 92.2 137.05 91.86 136.83 91.42C136.61 90.98 136.5 90.47 136.5 89.88C136.5 88.97 136.74 88.26 137.21 87.76C137.68 87.26 138.35 87 139.21 87C139.75 87 140.22 87.12 140.63 87.35C141.04 87.58 141.35 87.92 141.57 88.35C141.79 88.79 141.9 89.3 141.9 89.88H141.91ZM138.06 89.88C138.06 90.43 138.15 90.85 138.33 91.13C138.51 91.41 138.81 91.55 139.21 91.55C139.61 91.55 139.91 91.41 140.09 91.13C140.27 90.85 140.36 90.43 140.36 89.88C140.36 89.33 140.27 88.91 140.09 88.64C139.91 88.36 139.62 88.23 139.21 88.23C138.8 88.23 138.51 88.37 138.33 88.64C138.15 88.91 138.06 89.33 138.06 89.88Z" fill="#232323"/>
<path d="M141.31 150.24C141.31 151.45 141.01 152.37 140.41 153.02C139.81 153.67 138.95 153.99 137.84 153.99C136.73 153.99 135.87 153.67 135.27 153.02C134.67 152.37 134.37 151.44 134.37 150.23C134.37 149.02 134.67 148.09 135.27 147.45C135.87 146.81 136.73 146.49 137.85 146.49C138.97 146.49 139.83 146.81 140.42 147.46C141.01 148.1 141.31 149.03 141.31 150.24ZM135.99 150.24C135.99 151.05 136.15 151.67 136.45 152.08C136.75 152.49 137.22 152.7 137.84 152.7C139.07 152.7 139.69 151.88 139.69 150.24C139.69 148.6 139.08 147.78 137.85 147.78C137.24 147.78 136.77 147.99 136.46 148.4C136.15 148.81 135.99 149.43 135.99 150.24Z" fill="white"/>
<path d="M148.68 153.89H146.93L145.02 150.82L144.37 151.29V153.89H142.82V146.6H144.37V149.93L144.98 149.07L146.95 146.59H148.66L146.12 149.82L148.68 153.88V153.89Z" fill="white"/>
<path d="M93.7698 120.26C95.6752 120.26 97.2198 118.715 97.2198 116.81C97.2198 114.905 95.6752 113.36 93.7698 113.36C91.8644 113.36 90.3198 114.905 90.3198 116.81C90.3198 118.715 91.8644 120.26 93.7698 120.26Z" fill="#232323"/>
<path d="M103.46 120.26C105.365 120.26 106.91 118.715 106.91 116.81C106.91 114.905 105.365 113.36 103.46 113.36C101.554 113.36 100.01 114.905 100.01 116.81C100.01 118.715 101.554 120.26 103.46 120.26Z" fill="#232323"/>
<path d="M113.15 120.26C115.055 120.26 116.6 118.715 116.6 116.81C116.6 114.905 115.055 113.36 113.15 113.36C111.244 113.36 109.7 114.905 109.7 116.81C109.7 118.715 111.244 120.26 113.15 120.26Z" fill="#232323"/>
<path d="M122.84 120.26C124.745 120.26 126.29 118.715 126.29 116.81C126.29 114.905 124.745 113.36 122.84 113.36C120.934 113.36 119.39 114.905 119.39 116.81C119.39 118.715 120.934 120.26 122.84 120.26Z" fill="#232323"/>
<path d="M132.53 120.26C134.435 120.26 135.98 118.715 135.98 116.81C135.98 114.905 134.435 113.36 132.53 113.36C130.624 113.36 129.08 114.905 129.08 116.81C129.08 118.715 130.624 120.26 132.53 120.26Z" fill="#232323"/>
<path fill-rule="evenodd" clip-rule="evenodd" d="M143.21 68.24C132.59 68.24 123.96 59.6 123.96 48.99C123.96 38.38 132.6 29.74 143.21 29.74C153.82 29.74 162.46 38.38 162.46 48.99C162.46 59.6 153.82 68.24 143.21 68.24Z" fill="white"/>
<path d="M143.21 30.74C153.29 30.74 161.46 38.91 161.46 48.99C161.46 59.07 153.29 67.24 143.21 67.24C133.13 67.24 124.96 59.07 124.96 48.99C124.96 38.91 133.13 30.74 143.21 30.74ZM143.21 28.74C132.04 28.74 122.96 37.82 122.96 48.99C122.96 60.16 132.04 69.24 143.21 69.24C154.38 69.24 163.46 60.16 163.46 48.99C163.46 37.82 154.38 28.74 143.21 28.74Z" fill="#0065A1"/>
<path d="M143.21 54.06C148.81 54.06 153.35 49.5202 153.35 43.92C153.35 38.3198 148.81 33.78 143.21 33.78C137.61 33.78 133.07 38.3198 133.07 43.92C133.07 49.5202 137.61 54.06 143.21 54.06Z" fill="#0065A1"/>
<path fill-rule="evenodd" clip-rule="evenodd" d="M157.12 60.78C155.26 58.52 152.44 57.08 149.29 57.08H137.12C133.96 57.08 131.15 58.52 129.29 60.78C132.64 64.73 137.63 67.24 143.21 67.24C148.79 67.24 153.78 64.73 157.13 60.78H157.12Z" fill="#0065A1"/>
<path d="M71.3295 75.6414C72.0595 76.0714 72.4295 76.2814 72.9395 76.3914C73.3395 76.4814 73.9195 76.4814 74.3195 76.3914C74.8395 76.2814 75.1995 76.0714 75.9295 75.6414C82.3495 71.8914 100.01 60.1214 100.01 43.9414V28.1714C100.01 25.5314 100.01 24.2214 99.5795 23.0814C99.1995 22.0814 98.5795 21.1914 97.7795 20.4814C96.8695 19.6814 95.6395 19.2214 93.1695 18.2914L75.4895 11.6614C74.7995 11.4014 74.4595 11.2714 74.1095 11.2214C73.7995 11.1714 73.4795 11.1714 73.1695 11.2214C72.8195 11.2714 72.4695 11.4014 71.7895 11.6614L54.1095 18.2914C51.6395 19.2214 50.4095 19.6814 49.4995 20.4814C48.6995 21.1914 48.0795 22.0814 47.6995 23.0814C47.2695 24.2114 47.2695 25.5314 47.2695 28.1714V43.9414C47.2695 60.1214 64.9195 71.9014 71.3495 75.6414H71.3295Z" fill="black" fill-opacity="0.1"/>
<path d="M68.6895 70.5214C69.0895 70.6114 69.6695 70.6114 70.0695 70.5214C70.5895 70.4114 70.9495 70.2014 71.6795 69.7714C78.0995 66.0214 95.7595 54.2514 95.7595 38.0714V22.3014C95.7595 19.6614 95.7595 18.3514 95.3295 17.2114C94.9495 16.2114 94.3295 15.3214 93.5295 14.6114C92.6195 13.8114 91.3895 13.3514 88.9195 12.4214L71.2395 5.79144C70.5495 5.53144 70.2095 5.40144 69.8595 5.35144C69.5495 5.30144 69.2295 5.30144 68.9195 5.35144C68.5695 5.40144 68.2195 5.53144 67.5395 5.79144L49.8595 12.4214C47.3895 13.3514 46.1595 13.8114 45.2495 14.6114C44.4495 15.3214 43.8295 16.2114 43.4495 17.2114C43.0195 18.3414 43.0195 19.6614 43.0195 22.3014V38.0714C43.0195 54.2514 60.6695 66.0314 67.0995 69.7714C67.6114 70.1043 68.0869 70.3915 68.6895 70.5214Z" fill="#A0BF68" stroke="#AFC980" stroke-width="3" stroke-miterlimit="10"/>
<path fill-rule="evenodd" clip-rule="evenodd" d="M84.6196 25.7714C86.0196 27.1714 86.0196 29.4514 84.6196 30.8614L68.4296 47.0514C67.0296 48.4514 64.7496 48.4514 63.3396 47.0514L56.1496 39.8614C54.7496 38.4614 54.7496 36.1814 56.1496 34.7714C57.5496 33.3714 59.8296 33.3714 61.2396 34.7714L65.8896 39.4214L79.5296 25.7814C80.9296 24.3814 83.2096 24.3814 84.6196 25.7814V25.7714Z" fill="white"/>
<path opacity="0.3" d="M69.4822 70.5876C69.6922 70.5822 69.8976 70.5602 70.0696 70.5214C70.5896 70.4114 70.9496 70.2014 71.6796 69.7714C78.0996 66.0214 95.7596 54.2514 95.7596 38.0714V22.3014C95.7596 19.6614 95.7596 18.3514 95.3296 17.2114C94.9496 16.2114 94.3296 15.3214 93.5296 14.6114C92.6196 13.8114 91.3896 13.3514 88.9196 12.4214L71.2396 5.79144C70.5496 5.53144 70.2096 5.40144 69.8596 5.35144C69.7311 5.33071 69.6008 5.31857 69.4703 5.31503C69.4703 5.31503 69.4157 63.881 69.4822 70.5876Z" fill="black" fill-opacity="0.1"/>
<path d="M265.13 121.71L266.57 120.7C268.52 119.34 268.99 116.65 267.63 114.7L264.61 110.39C263.25 108.44 260.56 107.97 258.61 109.33L257.44 110.15C250.7 102.47 241.65 96.75 231.11 94.14L231.36 92.73C235.77 92.01 239.46 88.58 240.28 83.93C241.32 78.04 237.38 72.42 231.49 71.38C225.6 70.34 219.98 74.28 218.94 80.17C218.12 84.82 220.41 89.3 224.31 91.49L224.06 92.9C213.27 91.75 202.81 94.04 193.85 98.95L193.03 97.78C191.67 95.83 188.98 95.36 187.03 96.72L182.72 99.74C180.77 101.1 180.3 103.79 181.66 105.74L182.67 107.18C175.11 114.49 169.7 124.16 167.74 135.31C162.78 163.42 181.55 190.23 209.67 195.19C237.79 200.15 264.59 181.38 269.55 153.26C271.52 142.11 269.74 131.17 265.14 121.72L265.13 121.71ZM222.51 80.78C223.2 76.86 226.94 74.24 230.86 74.93C234.78 75.62 237.4 79.36 236.71 83.28C236.25 85.92 234.4 87.96 232.05 88.81L232.12 88.4C232.46 86.45 231.16 84.6 229.22 84.25C227.28 83.9 225.42 85.21 225.07 87.15L225 87.56C223.08 85.96 222.05 83.41 222.51 80.77V80.78Z" fill="black" fill-opacity="0.1"/>
<path d="M265.325 105.899L269.076 111.257C270.241 112.92 269.838 115.204 268.175 116.368L264.686 118.811L256.724 107.442L260.214 104.998C261.877 103.834 264.161 104.237 265.325 105.899Z" fill="#0065A1"/>
<path d="M267.206 108.575L269.081 111.253C270.246 112.916 269.843 115.2 268.18 116.365L264.69 118.808L260.71 113.123L267.206 108.575Z" fill="black" fill-opacity="0.1"/>
<path d="M196.19 96.7746L184.821 104.736L182.377 101.246C181.213 99.5834 181.616 97.2993 183.278 96.1349L188.636 92.3838C190.299 91.2194 192.583 91.6221 193.747 93.285L196.19 96.7746Z" fill="#0065A1"/>
<path d="M190.503 100.756L184.818 104.736L182.375 101.247C181.21 99.584 181.613 97.2999 183.276 96.1356L185.954 94.26L190.503 100.756Z" fill="black" fill-opacity="0.1"/>
<path d="M229.784 80.207L230.828 80.391C232.483 80.6828 233.594 82.2698 233.302 83.9243L231.384 94.8064L224.332 93.5631L226.251 82.681C226.543 81.0265 228.13 79.9152 229.784 80.207Z" fill="#0065A1"/>
<path d="M230.303 80.2991L230.825 80.3911C232.479 80.6828 233.59 82.2699 233.299 83.9244L231.38 94.8065L227.854 94.1849L230.303 80.2991Z" fill="black" fill-opacity="0.1"/>
<path d="M219.72 192.01C248.268 192.01 271.41 168.868 271.41 140.32C271.41 111.772 248.268 88.63 219.72 88.63C191.173 88.63 168.03 111.772 168.03 140.32C168.03 168.868 191.173 192.01 219.72 192.01Z" fill="#1E345E"/>
<path d="M228.69 89.41C256.8 94.37 275.57 121.18 270.62 149.29C265.66 177.4 238.85 196.17 210.74 191.22L228.69 89.41Z" fill="black" fill-opacity="0.1"/>
<path d="M219.77 183.18C217.28 183.18 214.76 182.96 212.28 182.52C189.01 178.42 173.41 156.14 177.52 132.87C181.14 112.35 198.87 97.45 219.68 97.45C222.17 97.45 224.7 97.67 227.17 98.11C250.44 102.21 266.04 124.49 261.93 147.76C258.31 168.29 240.58 183.18 219.77 183.18Z" fill="url(#paint0_linear_535_2847)"/>
<path d="M219.815 98.45C222.245 98.45 224.715 98.67 227.135 99.09C238.145 101.03 247.745 107.14 254.155 116.3C260.565 125.46 263.035 136.57 261.085 147.58C257.555 167.63 240.235 182.18 219.915 182.18C217.475 182.18 215.015 181.96 212.595 181.54C189.865 177.53 174.635 155.78 178.645 133.05C182.175 113.01 199.495 98.46 219.815 98.45ZM219.815 96.45C198.935 96.45 180.425 111.42 176.675 132.7C172.465 156.55 188.395 179.3 212.245 183.51C214.825 183.96 217.385 184.18 219.915 184.18C240.795 184.18 259.305 169.21 263.055 147.93C267.265 124.08 251.335 101.33 227.485 97.12C224.905 96.67 222.345 96.45 219.815 96.45Z" fill="white"/>
<path d="M260.787 147.531C259.359 155.624 255.564 163.113 249.881 169.049C244.198 174.986 236.882 179.104 228.859 180.883C220.835 182.662 212.464 182.021 204.805 179.042C197.145 176.064 190.541 170.881 185.827 164.149C181.113 157.417 178.502 149.438 178.322 141.221C178.143 133.005 180.404 124.92 184.82 117.989C189.236 111.057 195.607 105.591 203.13 102.281C210.652 98.9714 218.987 97.9664 227.081 99.3935L226.299 103.829C219.082 102.556 211.651 103.452 204.944 106.403C198.236 109.354 192.555 114.228 188.618 120.408C184.681 126.588 182.665 133.797 182.825 141.123C182.984 148.449 185.313 155.563 189.516 161.566C193.719 167.568 199.608 172.189 206.437 174.845C213.266 177.501 220.73 178.072 227.884 176.486C235.038 174.9 241.561 171.228 246.628 165.935C251.695 160.642 255.079 153.965 256.352 146.749L260.787 147.531Z" fill="url(#paint1_angular_535_2847)"/>
<path d="M232.57 67.4C226.68 66.36 221.06 70.3 220.02 76.19C218.98 82.08 222.92 87.7 228.81 88.74C234.7 89.78 240.32 85.84 241.36 79.95C242.4 74.06 238.46 68.44 232.57 67.4ZM229.44 85.17C225.52 84.48 222.9 80.74 223.59 76.82C224.28 72.9 228.02 70.28 231.94 70.97C235.86 71.66 238.48 75.4 237.79 79.32C237.1 83.24 233.36 85.86 229.44 85.17Z" fill="#0065A1"/>
<path d="M228.81 88.74C234.7 89.78 240.32 85.84 241.36 79.95C242.4 74.06 238.46 68.44 232.57 67.4L231.94 70.97C235.86 71.66 238.48 75.4 237.79 79.32C237.1 83.24 233.36 85.86 229.44 85.17L228.81 88.74Z" fill="black" fill-opacity="0.1"/>
<path d="M195.78 130.58C196.4 127.05 198.42 125.49 201.68 126.06C204.98 126.64 206.14 128.8 205.52 132.29L204.76 136.58C204.14 140.07 202.13 141.63 198.93 141.07C195.71 140.5 194.39 138.45 195.02 134.87L195.78 130.58ZM197.72 135.49C197.39 137.35 197.68 138.39 199.37 138.69C201.02 138.98 201.68 138.15 202.01 136.25L202.81 131.69C203.15 129.73 202.76 128.74 201.13 128.45C199.63 128.19 198.88 128.84 198.52 130.93L197.72 135.49Z" fill="white"/>
<path d="M216.81 132.78C216.49 134.6 215.31 135.88 213.8 137.05L209.73 140.27L214.68 141.14C215.31 141.25 215.74 141.86 215.63 142.49C215.51 143.14 214.9 143.59 214.27 143.48L206.93 142.19C206.26 142.07 205.85 141.58 205.98 140.86C206.08 140.28 206.46 139.94 206.97 139.53L212.13 135.36C213.15 134.53 213.81 133.68 213.97 132.76C214.2 131.46 213.3 130.62 211.92 130.38C211.09 130.23 210.32 130.36 209.6 130.51C209.44 130.54 209.31 130.56 209.14 130.53C208.43 130.41 208.02 129.84 208.14 129.17C208.23 128.67 208.57 128.43 209.01 128.26C210.19 127.76 211.71 127.85 212.75 128.03C215.57 128.53 217.27 130.19 216.81 132.8V132.78Z" fill="white"/>
<path d="M217.61 142.39C217.74 141.68 218.45 141.23 219.18 141.36C219.89 141.48 220.42 142.15 220.3 142.86L220.19 143.47C220.06 144.2 219.35 144.66 218.62 144.54C217.87 144.41 217.38 143.73 217.51 143L217.62 142.39H217.61ZM219.05 134.24C219.17 133.53 219.89 133.08 220.62 133.21C221.33 133.33 221.86 134 221.74 134.71L221.63 135.32C221.5 136.05 220.79 136.52 220.06 136.39C219.31 136.26 218.82 135.58 218.95 134.85L219.06 134.24H219.05Z" fill="white"/>
<path d="M224.05 135.56C224.67 132.03 226.69 130.47 229.95 131.04C233.25 131.62 234.41 133.78 233.79 137.27L233.03 141.56C232.41 145.05 230.4 146.61 227.2 146.05C223.98 145.48 222.66 143.43 223.29 139.84L224.05 135.55V135.56ZM225.99 140.47C225.66 142.33 225.95 143.37 227.64 143.67C229.29 143.96 229.95 143.13 230.28 141.23L231.08 136.67C231.42 134.71 231.03 133.72 229.4 133.43C227.9 133.17 227.16 133.82 226.79 135.91L225.99 140.47Z" fill="white"/>
<path d="M236.13 137.69C236.75 134.16 238.77 132.6 242.03 133.17C245.33 133.75 246.49 135.91 245.87 139.4L245.11 143.69C244.49 147.18 242.48 148.74 239.28 148.18C236.06 147.61 234.74 145.56 235.37 141.97L236.13 137.68V137.69ZM238.07 142.6C237.74 144.46 238.03 145.5 239.72 145.8C241.37 146.09 242.03 145.26 242.36 143.36L243.16 138.8C243.5 136.84 243.11 135.85 241.48 135.56C239.98 135.3 239.23 135.95 238.87 138.04L238.07 142.6Z" fill="white"/>
<path d="M208.44 153.29C208.62 152.25 208.29 151.71 207.53 151.58C206.82 151.46 206.25 151.89 206.05 152.86L205.56 155.65C205.48 156.08 205.09 156.35 204.65 156.28C204.22 156.2 203.95 155.81 204.02 155.38L204.88 150.49C204.96 150.06 205.35 149.77 205.78 149.85C206.22 149.93 206.49 150.33 206.42 150.76L206.39 150.94C206.87 150.42 207.49 150.15 208.34 150.3C209.37 150.48 209.94 151.03 210.08 151.89C210.58 151.21 211.27 150.81 212.25 150.99C213.73 151.25 214.25 152.26 213.97 153.83L213.4 157.04C213.32 157.47 212.92 157.74 212.49 157.67C212.05 157.59 211.79 157.2 211.86 156.77L212.35 153.99C212.53 152.95 212.19 152.41 211.44 152.28C210.71 152.15 210.13 152.61 209.95 153.64L209.47 156.36C209.39 156.79 208.99 157.06 208.56 156.99C208.13 156.91 207.85 156.52 207.93 156.09L208.42 153.31L208.44 153.29Z" fill="white"/>
<path d="M215.74 152.4C215.82 151.97 216.21 151.68 216.64 151.76C217.08 151.84 217.35 152.24 217.28 152.67L216.42 157.56C216.34 157.99 215.95 158.26 215.51 158.19C215.08 158.11 214.8 157.72 214.88 157.29L215.74 152.4ZM216.2 149.77C216.27 149.35 216.68 149.09 217.09 149.16C217.52 149.24 217.81 149.62 217.73 150.04L217.66 150.46C217.58 150.9 217.19 151.16 216.75 151.09C216.32 151.01 216.04 150.63 216.12 150.19L216.19 149.77H216.2Z" fill="white"/>
<path d="M222.47 155.76C222.65 154.72 222.28 154.17 221.55 154.05C220.77 153.91 220.17 154.34 219.97 155.31L219.48 158.1C219.4 158.53 219.01 158.8 218.57 158.73C218.14 158.65 217.86 158.26 217.94 157.83L218.8 152.94C218.88 152.51 219.27 152.22 219.7 152.3C220.14 152.38 220.41 152.78 220.34 153.21L220.3 153.41C220.8 152.88 221.46 152.61 222.37 152.77C223.79 153.02 224.36 154.03 224.08 155.61L223.51 158.82C223.43 159.25 223.03 159.52 222.6 159.45C222.17 159.37 221.89 158.98 221.97 158.55L222.46 155.77L222.47 155.76Z" fill="white"/>
<path d="M228.58 158.5C228.67 157.98 228.22 157.79 227.71 157.66L226.94 157.43C226.01 157.17 225.17 156.58 225.39 155.35C225.65 153.88 227.06 153.58 228.29 153.8C229 153.92 229.83 154.21 230.18 154.49C230.4 154.66 230.5 154.88 230.45 155.16C230.38 155.55 229.98 155.7 229.57 155.55C229.13 155.38 228.77 155.12 228.15 155.01C227.39 154.88 226.91 155.06 226.84 155.48C226.76 155.96 227.18 156.13 227.73 156.28L228.47 156.48C229.56 156.78 230.26 157.4 230.06 158.57C229.78 160.15 228.24 160.4 226.98 160.18C226.16 160.04 225.32 159.7 224.98 159.38C224.81 159.21 224.72 159 224.77 158.74C224.83 158.4 225.18 158.2 225.56 158.34C226.03 158.51 226.67 158.89 227.31 159.01C227.94 159.12 228.51 158.99 228.59 158.49L228.58 158.5Z" fill="white"/>
<path d="M195.79 129.58C196.41 126.05 198.43 124.49 201.69 125.06C204.99 125.64 206.15 127.8 205.53 131.29L204.77 135.58C204.15 139.07 202.14 140.63 198.94 140.07C195.72 139.5 194.4 137.45 195.03 133.87L195.79 129.58ZM197.73 134.49C197.4 136.35 197.69 137.39 199.38 137.69C201.03 137.98 201.69 137.15 202.02 135.25L202.82 130.69C203.16 128.73 202.77 127.74 201.14 127.45C199.64 127.19 198.89 127.84 198.53 129.93L197.73 134.49Z" fill="#0065A1"/>
<path d="M216.811 131.78C216.491 133.6 215.311 134.88 213.801 136.05L209.731 139.27L214.681 140.14C215.311 140.25 215.741 140.86 215.631 141.49C215.511 142.14 214.901 142.59 214.271 142.48L206.931 141.19C206.261 141.07 205.851 140.58 205.981 139.86C206.081 139.28 206.461 138.94 206.971 138.53L212.131 134.36C213.151 133.53 213.811 132.68 213.971 131.76C214.201 130.46 213.301 129.62 211.921 129.38C211.091 129.23 210.321 129.36 209.601 129.51C209.441 129.54 209.311 129.56 209.141 129.53C208.431 129.41 208.021 128.84 208.141 128.17C208.231 127.67 208.571 127.43 209.011 127.26C210.191 126.76 211.711 126.85 212.751 127.03C215.571 127.53 217.271 129.19 216.811 131.8V131.78Z" fill="#0065A1"/>
<path d="M217.61 141.39C217.74 140.68 218.45 140.23 219.18 140.36C219.89 140.48 220.42 141.15 220.3 141.86L220.19 142.47C220.06 143.2 219.35 143.66 218.62 143.54C217.87 143.41 217.38 142.73 217.51 142L217.62 141.39H217.61ZM219.05 133.24C219.17 132.53 219.89 132.08 220.62 132.21C221.33 132.33 221.86 133 221.74 133.71L221.63 134.32C221.5 135.05 220.79 135.52 220.06 135.39C219.31 135.26 218.82 134.58 218.95 133.85L219.06 133.24H219.05Z" fill="#0065A1"/>
<path d="M224.05 134.56C224.67 131.03 226.69 129.47 229.95 130.04C233.25 130.62 234.41 132.78 233.79 136.27L233.03 140.56C232.41 144.05 230.4 145.61 227.2 145.05C223.98 144.48 222.66 142.43 223.29 138.84L224.05 134.55V134.56ZM225.99 139.47C225.66 141.33 225.95 142.37 227.64 142.67C229.29 142.96 229.95 142.13 230.28 140.23L231.08 135.67C231.42 133.71 231.03 132.72 229.4 132.43C227.9 132.17 227.16 132.82 226.79 134.91L225.99 139.47Z" fill="#0065A1"/>
<path d="M236.13 136.69C236.75 133.16 238.77 131.6 242.03 132.17C245.33 132.75 246.49 134.91 245.87 138.4L245.11 142.69C244.49 146.18 242.48 147.74 239.28 147.18C236.06 146.61 234.74 144.56 235.37 140.97L236.13 136.68V136.69ZM238.07 141.6C237.74 143.46 238.03 144.5 239.72 144.8C241.37 145.09 242.03 144.26 242.36 142.36L243.16 137.8C243.5 135.84 243.11 134.85 241.48 134.56C239.98 134.3 239.23 134.95 238.87 137.04L238.07 141.6Z" fill="#0065A1"/>
<path d="M208.44 152.72C208.62 151.68 208.29 151.14 207.53 151.01C206.82 150.89 206.25 151.32 206.05 152.29L205.56 155.08C205.48 155.51 205.09 155.78 204.65 155.71C204.22 155.63 203.95 155.24 204.02 154.81L204.88 149.92C204.96 149.49 205.35 149.2 205.78 149.28C206.22 149.36 206.49 149.76 206.42 150.19L206.39 150.37C206.87 149.85 207.49 149.58 208.34 149.73C209.37 149.91 209.94 150.46 210.08 151.32C210.58 150.64 211.27 150.24 212.25 150.42C213.73 150.68 214.25 151.69 213.97 153.26L213.4 156.47C213.32 156.9 212.92 157.17 212.49 157.1C212.05 157.02 211.79 156.63 211.86 156.2L212.35 153.42C212.53 152.38 212.19 151.84 211.44 151.71C210.71 151.58 210.13 152.04 209.95 153.07L209.47 155.79C209.39 156.22 208.99 156.49 208.56 156.42C208.13 156.34 207.85 155.95 207.93 155.52L208.42 152.74L208.44 152.72Z" fill="#0065A1"/>
<path d="M215.75 151.84C215.83 151.41 216.22 151.12 216.65 151.2C217.09 151.28 217.36 151.68 217.29 152.11L216.43 157C216.35 157.43 215.96 157.7 215.52 157.63C215.09 157.55 214.81 157.16 214.89 156.73L215.75 151.84ZM216.21 149.21C216.28 148.79 216.69 148.53 217.1 148.6C217.53 148.68 217.82 149.06 217.74 149.48L217.67 149.9C217.59 150.34 217.2 150.6 216.76 150.53C216.33 150.45 216.05 150.07 216.13 149.63L216.2 149.21H216.21Z" fill="#0065A1"/>
<path d="M222.47 155.2C222.65 154.16 222.28 153.61 221.55 153.49C220.77 153.35 220.17 153.78 219.97 154.75L219.48 157.54C219.4 157.97 219.01 158.24 218.57 158.17C218.14 158.09 217.86 157.7 217.94 157.27L218.8 152.38C218.88 151.95 219.27 151.66 219.7 151.74C220.14 151.82 220.41 152.22 220.34 152.65L220.3 152.85C220.8 152.32 221.46 152.05 222.37 152.21C223.79 152.46 224.36 153.47 224.08 155.05L223.51 158.26C223.43 158.69 223.03 158.96 222.6 158.89C222.17 158.81 221.89 158.42 221.97 157.99L222.46 155.21L222.47 155.2Z" fill="#0065A1"/>
<path d="M228.58 157.94C228.67 157.42 228.22 157.23 227.71 157.1L226.94 156.87C226.01 156.61 225.17 156.02 225.39 154.79C225.65 153.32 227.06 153.02 228.29 153.24C229 153.36 229.83 153.65 230.18 153.93C230.4 154.1 230.5 154.32 230.45 154.6C230.38 154.99 229.98 155.14 229.57 154.99C229.13 154.82 228.77 154.56 228.15 154.45C227.39 154.32 226.91 154.5 226.84 154.92C226.76 155.4 227.18 155.57 227.73 155.72L228.47 155.92C229.56 156.22 230.26 156.84 230.06 158.01C229.78 159.59 228.24 159.84 226.98 159.62C226.16 159.48 225.32 159.14 224.98 158.82C224.81 158.65 224.72 158.44 224.77 158.18C224.83 157.84 225.18 157.64 225.56 157.78C226.03 157.95 226.67 158.33 227.31 158.45C227.94 158.56 228.51 158.43 228.59 157.93L228.58 157.94Z" fill="#0065A1"/>
<defs>
<linearGradient id="paint0_linear_535_2847" x1="213.29" y1="102.52" x2="225.76" y2="175.86" gradientUnits="userSpaceOnUse">
<stop stop-color="white"/>
<stop offset="1" stop-color="#F1F1F1"/>
</linearGradient>
<radialGradient id="paint1_angular_535_2847" cx="0" cy="0" r="1" gradientUnits="userSpaceOnUse" gradientTransform="translate(219.865 140.315) rotate(10.924) scale(35.296)">
<stop offset="0.755208" stop-color="#FFA728"/>
<stop offset="1" stop-color="#FFA728" stop-opacity="0"/>
</radialGradient>
</defs>
</svg>