<svg xmlns="http://www.w3.org/2000/svg" width="280" height="200" viewBox="0 0 280 200" fill="none">
<circle cx="130" cy="101" r="72" fill="white" fill-opacity="0.25"/>
<circle cx="233" cy="52" r="26" fill="white" fill-opacity="0.25"/>
<circle cx="37" cy="151" r="16" fill="white" fill-opacity="0.25"/>
<path fill-rule="evenodd" clip-rule="evenodd" d="M205.9 32.0063C206.555 33.0686 207.031 34.0715 207.733 34.8768C208.018 35.2059 208.846 35.3093 209.331 35.1746C210.453 34.8643 211.318 35.0053 211.848 36.0896C212.352 37.1144 212.337 38.0671 211.491 39.0104C210.456 40.1667 210.011 41.7806 208.626 42.7177C208.363 42.8963 208.288 43.802 208.498 44.1122C208.695 44.4005 209.403 44.4475 209.877 44.4131C210.24 44.388 210.569 44.037 210.942 43.9054C211.309 43.7769 211.779 43.5732 212.083 43.6985C213.484 44.2689 214.837 44.9677 216.407 44.2971C216.498 44.2595 216.655 44.3661 216.777 44.4099C217.432 44.6418 218.175 45.1808 218.714 45.021C219.259 44.8612 219.601 44.0088 220.03 43.4666C221.185 43.6944 221.749 44.3264 221.719 45.3626C221.688 46.4688 221.735 46.5409 223.778 48.4024C224.28 48.2238 224.822 48.0326 225.48 47.7976C226.837 49.5306 228.504 47.9825 230.065 48.1016C230.315 48.1204 230.804 47.4623 230.861 47.0737C231.064 45.676 232.048 45.5945 233.073 45.6729C234.524 45.7825 235.963 46.0113 237.351 46.1805C237.623 46.9734 237.664 47.9637 238.153 48.299C238.855 48.7816 239.877 48.8568 240.779 48.9759C241.547 49.0762 242.343 48.9978 243.036 48.9978C243.205 49.2297 243.34 49.3332 243.349 49.4428C243.593 51.9217 243.6 51.9468 246.057 51.975C247.138 51.9875 248.065 52.1223 248.918 53.0029C249.892 54.0088 250.858 53.8772 251.719 52.7553C252.396 51.8715 253.274 51.906 254.038 52.1881C255.859 52.8587 257.83 53.288 258.792 55.4096C259.159 56.2182 260.146 56.8324 260.974 57.3181C262.428 58.1705 262.6 58.3523 262.49 60.5648C261.669 60.5648 260.826 60.64 259.999 60.5522C258.04 60.336 256.834 61.3231 256.79 63.2724C256.777 63.8615 256.79 64.4507 256.79 64.7735C255.326 66.0113 254.048 67.1395 252.71 68.1925C252.327 68.4933 251.779 68.65 251.284 68.7252C248.423 69.1608 247.069 70.3799 246.439 73.1533C246.367 73.473 246.314 73.8208 246.154 74.0966C244.988 76.0834 243.797 78.0577 242.484 80.2546C242.349 79.7563 242.205 79.4398 242.189 79.117C242.152 78.321 242.271 77.5093 242.155 76.729C241.654 73.3821 243.455 71.0536 245.546 68.8349C245.859 68.4996 246.257 68.1956 246.445 67.7976C246.589 67.4905 246.614 66.9452 246.433 66.707C246.254 66.4783 245.646 66.331 245.392 66.4626C244.439 66.964 243.543 67.2586 242.431 66.9264C242.095 66.8293 241.412 67.2805 241.162 67.6597C240.629 68.4714 240.275 69.4021 239.717 70.546C239.234 70.4394 238.538 70.3611 237.893 70.1354C235.047 69.1358 233.781 69.4648 231.751 71.7274C231.18 72.3667 230.5 72.9089 229.88 73.5043C228.075 75.2279 228.463 76.9421 230.842 77.7726C230.955 77.8133 231.046 77.9261 231.321 78.1486C230.958 80.2201 231.02 82.4639 229.306 84.2784C228.554 85.0744 228.093 86.1587 227.551 87.1427C226.968 88.2019 226.307 88.9854 224.903 88.7221C224.139 88.578 223.459 88.8067 223.261 89.7532C223.198 90.0571 222.985 90.3548 222.788 90.6087C221.954 91.6742 221.948 92.6895 222.584 93.9149C222.938 94.598 222.822 95.5413 222.838 96.3686C222.841 96.5159 222.475 96.7698 222.258 96.7948C222.055 96.8168 221.635 96.6068 221.632 96.4877C221.581 95.1371 220.879 94.1718 219.958 93.2693C219.736 93.0499 219.798 92.5423 219.72 92.1255C218.921 92.0565 218.234 92.5203 217.504 91.7494C216.915 91.1289 214.512 92.7146 214.596 93.6485C214.634 94.0653 215.054 94.5573 215.433 94.808C215.847 95.0806 216.42 95.1089 216.671 95.1778C216.874 96.306 217.015 97.2367 217.216 98.1549C217.554 99.6968 217.608 101.145 216.539 102.492C215.436 103.88 214.85 105.679 213.252 106.676C212.753 106.986 212.255 107.362 211.704 107.497C210.485 107.801 209.497 108.355 208.93 109.562C207.99 108.312 207.413 108.114 206.69 108.713C206.009 109.274 206.006 110.367 206.696 111.201C206.865 111.402 207.103 111.543 207.282 111.737C208.899 113.511 208.604 115.071 206.652 116.187C205.333 115.651 204.17 115.175 203.045 114.717C202.105 116.237 202.13 116.663 203.045 117.685C203.527 118.227 204.016 118.763 204.483 119.318C204.537 119.38 204.464 119.553 204.424 119.872C202.75 118.634 200.998 117.744 201.24 115.187C201.431 113.157 199.808 111.361 197.639 110.875C197.551 110.298 197.517 109.647 197.354 109.029C196.809 106.93 195.107 106.488 193.531 107.945C192.807 108.612 191.945 109.133 191.133 109.706C189.341 110.972 187.977 112.401 188.943 114.855C189.077 115.197 189.024 115.651 188.943 116.027C188.78 116.767 188.463 117.475 187.573 117.503C186.671 117.534 186.652 116.717 186.42 116.121C185.821 114.592 185.154 113.084 184.634 111.53C184.283 110.483 184.135 109.371 183.897 108.293C183.411 107.782 182.882 107.24 182.368 106.685C181.265 105.491 180.058 104.573 178.3 104.554C177.623 104.545 176.862 104.288 176.301 103.902C175.552 103.388 174.841 103.012 173.922 103.144C173.06 103.269 172.468 102.953 171.851 102.295C171.246 101.646 170.384 101.195 169.563 100.809C169.24 100.659 168.57 100.784 168.341 101.038C168.097 101.308 168.021 101.941 168.156 102.31C168.516 103.285 168.958 104.253 169.516 105.125C169.739 105.472 170.491 105.855 170.776 105.723C172.327 105.018 173.255 105.974 174.471 106.858C174.145 107.422 173.957 108.011 173.565 108.396C171.719 110.211 169.623 111.696 167.279 112.809C165.765 113.526 164.703 113.323 164.518 111.361C164.48 110.988 164.336 110.587 164.132 110.27C163.095 108.672 162.008 107.102 160.961 105.507C160.268 104.451 159.588 103.401 158.197 103.066C157.404 103.893 157.573 104.821 157.959 105.654C159.012 107.929 160.14 110.173 161.259 112.417C161.553 113.006 161.945 113.548 162.255 114.131C163.142 115.786 164.511 116.491 166.335 116.209C166.856 116.127 167.379 116.055 167.902 116.011C168.003 116.002 168.115 116.14 168.369 116.3C167.774 118.28 166.57 119.907 165.038 121.27C163.267 122.846 162.102 124.846 160.892 126.817C160.124 128.073 160.253 129.318 161.224 130.496C162.791 132.401 162.518 134.576 160.4 135.801C158.889 136.679 158.272 137.911 158.156 139.512C158.075 140.602 157.793 141.518 156.984 142.361C156.37 143 155.984 143.921 155.683 144.783C155.311 145.842 154.712 146.651 153.784 147.246C152.615 147.995 151.509 148.87 150.274 149.484C148.798 150.217 148.159 149.863 147.42 148.434C146.661 146.97 145.649 145.613 145.06 144.09C144.16 141.771 143.436 139.371 142.844 136.955C142.662 136.209 143.051 135.269 143.346 134.476C144.217 132.11 143.891 130.007 142.004 128.305C140.864 127.274 140.613 126.149 141.036 124.73C141.24 124.043 141.318 123.301 141.337 122.58C141.371 121.019 141.337 121.066 139.776 120.79C139.228 120.693 138.645 120.405 138.225 120.032C137.31 119.224 136.332 119.054 135.292 119.593C134.276 120.117 133.305 120.183 132.224 119.838C131.606 119.64 130.92 119.609 130.262 119.597C127.946 119.549 127.037 118.963 126.185 116.867C125.539 115.272 124.872 113.683 124.276 112.066C124.076 111.521 124.007 110.9 124.001 110.314C123.991 109.064 124.104 107.81 124.085 106.56C124.073 105.679 124.414 105.049 125.082 104.513C126.689 103.225 128.103 101.875 128.798 99.7563C129.294 98.2521 130.528 97.1584 132.487 97.337C133.264 97.4059 134.16 97.0142 134.891 96.6288C136.852 95.5915 138.892 94.996 141.077 95.0242C141.177 95.2373 141.296 95.3627 141.277 95.4661C140.98 97.2649 141.581 98.3931 143.502 98.6971C143.925 98.7629 144.286 99.1734 144.69 99.399C146.107 100.186 147.476 100.587 148.886 99.2706C149.225 98.954 150.049 98.813 150.475 98.9948C152.603 99.9036 154.797 99.3395 156.946 99.3865C158.814 99.4273 159.864 98.0421 160.24 95.5539C159.61 94.8425 158.77 94.8613 157.896 94.9334C156.639 95.0368 155.383 95.1371 154.126 95.1715C152.637 95.2123 152.327 94.8487 152.697 93.4103C152.857 92.7898 153.089 92.1317 152.449 91.8246C151.772 91.4987 150.958 91.3671 150.199 91.3451C149.977 91.3389 149.56 91.9938 149.551 92.3542C149.538 92.8431 149.829 93.3414 149.989 93.8271C149.265 94.2847 148.773 94.0653 148.488 93.4197C148.306 93.0061 148.122 92.5046 148.187 92.0816C148.469 90.2859 147.532 89.4147 146.022 88.7785C145.063 88.3743 144.201 87.735 143.223 87.1584C142.258 88.0922 142.565 89.0324 143.107 89.866C143.493 90.4614 144.098 90.9252 144.634 91.4141C145.608 92.3041 145.605 92.42 144.229 93.6015C144.377 91.8027 143.342 90.9127 142.029 90.2107C141.813 90.0947 141.647 89.8409 141.512 89.6153C140.873 88.5592 140.083 88.1173 138.861 88.7503C138.479 88.9478 137.949 88.8443 137.501 88.9478C137.141 89.0324 136.523 89.1891 136.498 89.3771C136.329 90.6338 135.285 90.9628 134.449 91.5457C134.138 91.7588 133.85 92.1161 133.725 92.4702C133.418 93.3445 132.973 94.1311 131.995 94.1624C130.701 94.2 129.2 94.949 128.165 93.2192C128.614 92.1192 129.08 90.8563 127.977 89.6999C128.72 88.8161 129.478 88.7347 130.378 89.048C131.252 89.352 132.083 89.3614 132.634 88.4213C133.151 87.5438 133.104 86.4532 132.465 85.6353C132.114 85.184 131.719 84.7704 131.211 84.1812C132.415 83.9775 133.443 83.8992 133.85 82.7553C133.922 82.5579 134.251 82.3855 134.489 82.3291C135.561 82.0816 136.417 81.7368 136.802 80.4833C136.971 79.9349 137.981 79.6967 138.413 79.1608C139.648 77.6253 139.61 77.5939 140.049 75.4316C140.39 75.8578 140.6 76.3122 140.951 76.5065C141.421 76.7666 142.217 77.127 142.496 76.9264C143.562 76.1586 144.367 76.8732 145.295 77.2461C146.128 76.5974 146.89 75.8797 148.093 76.0803C148.695 76.1806 149.015 75.6447 149.005 75.0273C148.999 74.5761 148.952 74.1248 148.921 73.6297C149.767 73.5513 150.666 73.6986 151.23 73.3319C151.572 73.1094 151.393 72.0909 151.456 71.3545C152.822 70.5251 153.511 69.5797 153.521 68.5184C153.086 68.5184 152.631 68.4338 152.221 68.5341C151.045 68.8224 150.416 68.3147 149.82 67.3307C149.203 66.3059 149.576 65.6384 150.146 64.8205C150.707 64.0151 151.208 63.1345 151.55 62.2163C151.832 61.4516 151.766 60.6024 150.839 60.1824C150.055 59.8283 149.121 60.22 148.808 61.2323C148.441 62.4231 147.811 63.3413 146.912 64.1749C145.887 65.1245 145.759 66.3592 146.144 67.666C146.771 69.7907 145.207 72.9528 142.829 74.0496C142.741 73.2818 142.697 72.5767 142.572 71.8841C142.459 71.2605 142.258 70.6525 142.101 70.0602C140.807 69.9819 139.585 71.1727 138.607 69.6685C138.626 69.4805 138.673 69.2235 138.673 68.9634C138.676 66.5629 139.328 64.5353 141.738 63.4667C141.96 63.3695 142.149 63.1126 142.271 62.8869C143.502 60.5679 144.775 58.2614 145.918 55.8954C146.542 54.6074 147.15 53.4447 148.639 52.9339C149.287 52.7114 149.839 52.1661 150.397 51.7211C150.807 51.3921 151.121 50.9377 151.544 50.6274C152.622 49.8346 153.471 49.9098 153.966 51.11C154.634 52.7302 155.865 53.0937 157.376 53.3946C158.513 53.6202 159.616 54.1655 160.66 54.7045C161.44 55.1088 161.879 56.3216 161.553 56.9233C161.102 57.7537 160.3 57.7945 159.472 57.6315C158.723 57.4811 157.974 57.3244 157.326 57.1896C157.106 57.4999 156.968 57.6033 156.968 57.7067C156.959 59.4335 158.62 60.2451 159.209 61.6741C159.369 62.0627 160.306 62.1317 161.039 62.4043C161.312 61.0536 161.807 60.2482 163.104 60.1448C163.458 60.1166 163.929 59.5055 164.057 59.0793C164.327 58.158 164.408 57.1834 164.631 55.8546C165.085 56.4689 165.358 56.8543 165.649 57.2178C166.389 58.1392 167.081 58.252 167.73 57.3369C168.733 55.9267 169.958 55.3187 171.653 55.6854C172.681 55.9079 173.092 54.7923 173.878 54.6199C174.982 54.3786 175.17 53.6296 175.185 52.6393C177.175 52.89 178.128 55.7731 180.544 54.5008C180.876 53.3068 179.626 52.2319 180.444 50.8875C181.008 49.9568 180.914 48.628 181.165 47.2084C181.735 47.5782 182.171 47.7349 182.427 48.042C183.882 49.7844 184.339 51.7807 183.822 53.9994C183.703 54.5102 183.496 55.0492 183.565 55.5444C183.631 55.9957 183.932 56.6318 184.283 56.7634C184.646 56.8951 185.42 56.6506 185.627 56.3247C186.57 54.8393 187.733 53.3476 186.746 51.3983C186.661 51.2322 186.658 51.0129 186.652 50.8155C186.646 50.6901 186.702 50.5616 186.749 50.3579C187.335 50.2921 187.965 50.1041 188.551 50.1981C189.059 50.2796 189.532 50.6556 189.993 50.9439C190.93 51.5331 191.531 51.2573 191.559 50.1573C191.569 49.6998 191.437 49.2423 191.375 48.7847C191.268 48.0232 191.165 47.2586 191.024 46.2463C190.698 46.0207 190.168 45.654 189.598 45.2623V43.0216C190.585 42.8932 191.553 42.7553 192.525 42.6393C193.537 42.5171 194.12 42.0596 193.963 40.9439C193.822 39.9474 194.471 39.5494 195.157 38.9257C197.291 36.989 200.021 36.8292 202.547 36.0677C203.628 35.7418 204.314 35.3218 204.32 34.0715C204.32 33.1031 205.06 32.5829 205.906 32L205.9 32.0063Z" fill="black" fill-opacity="0.25"/>
<path fill-rule="evenodd" clip-rule="evenodd" d="M78.6792 123.975C80.0424 122.984 80.9042 121.762 80.7506 119.967C80.6222 118.497 80.1834 117.773 78.7732 117.685C76.5889 117.553 75.0784 116.554 73.875 114.78C73.1825 113.762 72.1984 112.94 71.3554 112.019C70.854 111.471 70.2398 111.251 69.5629 111.546C68.5632 111.978 67.808 111.546 66.965 111.085C65.8713 110.484 64.7149 109.979 63.5397 109.55C62.6716 109.233 62.2172 108.785 61.8318 107.87C61.1486 106.244 60.1207 104.758 59.1649 103.257C58.98 102.966 58.4754 102.878 57.786 102.53C58.0148 103.517 58.1464 104.103 58.2812 104.692C58.1652 104.742 58.0524 104.793 57.9396 104.846C57.0026 103.248 55.9371 101.706 55.1724 100.029C54.6898 98.9668 54.1476 98.0611 53.2576 97.3184C51.7628 96.0711 50.3839 94.6735 49.9859 92.6992C49.729 91.4268 49.5754 90.0385 49.8104 88.7819C50.4529 85.3378 49.1774 82.6866 46.7988 80.3895C46.1783 79.7878 45.6926 79.2175 45.4952 78.2805C45.3353 77.5252 44.7243 76.6885 44.0693 76.2623C43.2984 75.7577 43.0038 75.2062 42.8941 74.3632C42.7405 73.2099 42.1953 72.2479 41.2708 71.4895C40.8195 71.1197 40.4591 70.6371 40.0486 70.2109C39.8668 70.0228 39.6913 69.7283 39.472 69.6844C37.5008 69.3083 35.6017 68.3964 33.5303 68.7787C32.9317 68.8884 32.3958 69.2112 32.0135 68.4403C31.9414 68.2961 31.7126 68.1802 31.5371 68.1457C31.042 68.0454 28.3281 69.6154 28.3156 70.1294C28.2686 72.1977 26.5356 72.8433 25.2319 73.7333C23.9658 74.6014 22.4585 75.1216 20.9699 75.6355C22.1451 73.7113 25.1191 73.8837 25.8399 71.2638C25.4262 71.1134 25.0909 70.9285 24.7336 70.8752C24.0599 70.775 23.43 70.6872 23.1385 69.9257C23.0539 69.7032 22.8126 69.4462 22.5932 69.3773C20.387 68.7129 21.0294 66.9141 21.0044 65.4067C20.9887 64.5167 21.8129 64.4509 22.4115 64.2503C23.5334 63.8774 24.063 63.2193 23.7245 62.041C22.7656 61.7558 21.7314 61.6587 20.995 61.1385C20.5907 60.8533 20.691 59.8536 20.5249 58.9761H23.2795C23.7496 57.5158 22.7468 56.9203 22.0009 56.2372C20.6973 55.0463 20.7035 54.9993 22.026 53.8962C22.5776 53.4355 23.1228 52.9122 23.4895 52.3042C24.1288 51.2481 25.0345 50.8219 26.1908 50.5054C27.8831 50.0447 29.3936 50.1764 30.9511 50.9536C31.6343 51.2951 32.4836 51.433 33.2545 51.4268C34.7211 51.4111 35.9966 51.853 37.1467 52.7022C39.0332 54.0905 40.9104 54.4478 43.0007 53.0344C43.9941 52.3638 45.1693 52.0285 46.3601 52.8276C46.6077 52.9937 47.0527 53.0877 47.3159 52.9811C49.3592 52.1632 50.9449 53.611 52.7218 54.0592C53.1292 54.1626 53.5554 54.6703 53.734 55.0902C54.016 55.7577 54.4798 56.0429 55.1066 56.0147C56.6328 55.9426 57.9709 56.3625 59.1774 57.3027C59.3498 57.4343 59.6726 57.3685 60.0236 57.403C60.1708 57.0802 60.3025 56.795 60.431 56.5098C60.8916 55.5101 61.5591 55.1529 62.6403 55.4569C64.3294 55.9301 66.0029 56.4659 67.6105 56.9548C68.3156 56.2842 68.886 55.7483 69.4438 55.203C70.4717 54.2002 70.4654 53.6706 69.4344 52.5612C68.9748 52.0681 68.9267 51.2951 69.2903 50.2422C69.8543 50.7781 70.4592 51.1667 70.8008 51.7182C71.5247 52.884 72.0104 54.2065 72.7939 55.3221C73.195 55.8893 74.0067 56.2121 74.693 56.5067C74.8528 56.5756 75.3573 56.1526 75.5109 55.858C75.6864 55.5289 75.5673 55.0526 75.7209 54.7016C75.8619 54.382 76.2285 53.8962 76.4416 53.9244C76.824 53.9714 77.4288 54.3067 77.4727 54.5951C77.6137 55.4976 77.62 56.444 77.4883 57.3465C77.4476 57.6317 76.7895 58.0235 76.4197 58.0203C75.3103 58.0078 74.9217 58.9103 74.201 59.3992C73.4018 59.9382 72.8848 60.2735 73.0383 61.3296C73.0853 61.6493 72.5808 62.0911 72.2705 62.4171C71.3868 63.3478 70.5877 64.3036 70.6065 65.6888C70.6065 65.8173 70.5751 65.9677 70.5031 66.0711C68.6917 68.7004 70.1991 70.8909 71.5466 73C71.9383 73.6142 72.9161 74.0122 73.6964 74.1814C75.1536 74.4917 76.0248 75.0025 76.1784 76.7073C76.2724 77.732 77.0214 78.7474 77.645 79.6499C77.855 79.957 78.6228 80.0793 79.0521 79.9664C79.3216 79.8975 79.4877 79.2457 79.6005 78.8289C79.682 78.5218 79.6507 78.1614 79.588 77.8417C79.4062 76.9266 79.823 76.3814 80.5313 75.8486C82.0073 74.7298 82.1734 74.1281 81.4996 72.4641C81.1831 71.6838 81.1236 71.0006 81.3492 70.1701C81.5717 69.3616 81.4181 68.4559 81.5592 67.6161C81.6218 67.2431 81.9509 66.7261 82.2643 66.6383C82.6184 66.5349 83.383 66.7386 83.4645 66.9799C83.9722 68.4653 85.6864 69.0044 86.0813 70.6402C86.3476 71.7464 88.0775 71.8561 88.8892 70.9473C89.1837 70.6183 89.3373 70.1639 89.5473 69.7815C90.478 69.8097 90.7601 70.4052 90.8415 71.0821C91.0421 72.7681 91.9258 73.9777 93.195 75.0652C94.4016 76.0962 95.5861 77.2714 94.8184 79.2237C93.7435 79.9915 92.5996 80.612 91.0828 80.6058C89.2026 80.5995 87.9428 81.8687 87.6012 83.6894C88.463 84.0843 88.7858 84.4635 89.6789 86.1463C88.7763 86.7668 87.692 87.2338 87.012 88.0423C85.5046 89.8348 83.687 91.6211 82.9568 93.7365C82.1828 95.9897 81.6124 97.9984 79.3561 99.205C78.4065 99.7126 78.2624 100.803 78.4755 101.866C78.629 102.627 78.7795 103.392 78.6541 104.288C78.4285 104.04 78.0932 103.827 77.9991 103.539C77.6952 102.624 77.8017 101.464 76.5889 101.129C75.1004 100.719 73.593 100.468 72.164 101.352C71.9446 101.486 71.7628 101.674 71.5842 101.819C71.0734 101.668 70.6409 101.493 70.1897 101.417C68.5977 101.148 67.8362 101.709 67.5479 103.285C67.3473 104.391 67.0684 105.488 66.9086 106.601C66.7111 107.973 67.1718 108.914 68.3094 109.377C70.2429 110.164 71.1329 110.283 72.305 109.048C72.6529 108.685 73.032 108.349 73.4175 108.03C73.4802 107.977 73.6651 108.074 74.0255 108.152C73.9879 108.807 74.0505 109.525 73.8876 110.186C73.43 112.016 73.3924 112.003 75.2915 112.549C75.4827 112.605 75.6582 112.705 76.0844 112.89C76.0844 113.429 76.0687 114.072 76.0875 114.711C76.1314 116.084 76.6391 116.629 77.996 116.736C79.2119 116.83 80.431 116.447 81.6594 117.171C82.0762 117.419 83.195 116.861 83.7528 116.391C85.2445 115.14 86.6798 115.009 88.2749 116.115C88.7043 116.413 89.1931 116.717 89.6946 116.817C91.7378 117.218 93.6902 117.735 94.9061 119.644C96.3101 119.879 97.4476 120.672 98.6259 121.389C99.3091 121.806 99.986 122.166 100.014 123.154C100.036 123.981 100.628 124.429 101.412 124.623C102.183 124.815 102.941 125.119 103.722 125.197C106.006 125.422 107.752 126.801 109.676 127.817C110.578 128.293 110.763 128.942 110.321 129.782C109.895 130.596 109.444 131.414 108.902 132.157C108.146 133.191 107.683 134.291 107.369 135.554C106.94 137.271 106.263 138.951 105.495 140.553C105.232 141.101 104.43 141.568 103.79 141.721C102.314 142.069 101.334 142.872 100.613 144.178C99.5598 146.09 98.3721 147.93 97.3097 149.835C96.9682 150.449 96.6642 150.938 95.8932 151.048C95.0471 151.17 94.5206 151.599 94.3295 152.568C94.2261 153.097 93.6024 153.846 93.1261 153.918C91.3304 154.191 90.782 156.009 89.3718 156.739C89.1054 156.877 89.0239 157.742 89.1461 158.196C89.4344 159.265 89.3154 160.083 88.4567 160.879C87.7014 161.584 87.6231 162.524 88.3063 163.392C88.7293 163.928 88.792 164.439 88.4285 165.031C87.0778 167.24 87.4852 169.189 89.3185 170.926C89.4501 171.048 89.5097 171.255 89.5817 171.43C89.6037 171.48 89.5661 171.559 89.5535 171.624C86.2568 171.975 83.7873 169.891 83.8594 166.692C83.9095 164.379 84.1352 162.073 84.2856 159.763C84.3075 159.431 84.4548 159.07 84.3702 158.779C83.311 155.197 85.138 151.884 85.3166 148.422C85.4764 145.382 85.793 142.355 86.0186 139.318C86.1377 137.71 85.5297 136.497 84.0317 135.758C82.7312 135.115 81.9039 133.99 81.2019 132.762C80.4122 131.383 79.6131 130.007 78.8672 128.606C78.6917 128.281 78.6447 127.851 78.6447 127.472C78.6478 126.287 78.7043 125.106 78.7356 123.921L78.6635 123.993L78.6792 123.975Z" fill="black" fill-opacity="0.25"/>
<path fill-rule="evenodd" clip-rule="evenodd" d="M220.065 135.492C220.901 134.884 221.729 134.235 222.854 135.137C223.292 134.573 223.684 134.135 224.001 133.649C224.486 132.906 225.157 132.853 225.922 133.022C226.805 133.213 226.799 133.821 226.724 134.551C226.599 135.777 227.297 136.538 228.328 137.046C229.284 137.516 229.736 137.319 230.124 136.275C230.481 135.313 230.431 134.16 231.403 133.448C232.923 134.498 233.813 135.987 234.424 137.582C235.066 139.252 236.088 140.575 237.354 141.775C237.83 142.229 238.216 142.781 238.673 143.254C239.416 144.016 239.538 144.94 239.175 145.839C238.307 147.986 237.495 150.183 236.36 152.189C235.192 154.254 233.161 154.401 231.331 152.843C230.484 152.123 229.801 151.145 228.526 151.117C228.404 151.117 228.225 151.042 228.178 150.948C227.241 149.158 225.204 149.114 223.731 148.18C223.239 147.87 222.456 147.701 221.91 147.851C220.005 148.378 218.134 149.055 216.266 149.713C215.401 150.02 214.59 150.559 213.505 150.064C213.458 149.672 213.248 149.177 213.38 148.795C214.041 146.842 213.324 145.015 212.985 143.151C212.882 142.574 212.775 141.975 212.813 141.396C212.891 140.205 213.499 139.424 214.756 139.24C216.837 138.936 218.294 137.544 219.804 136.269C220.008 136.096 220.033 135.708 220.14 135.423L220.068 135.492H220.065Z" fill="black" fill-opacity="0.25"/>
<g filter="url(#filter0_i_535_3073)">
<path fill-rule="evenodd" clip-rule="evenodd" d="M203.9 30.0063C204.555 31.0686 205.031 32.0715 205.733 32.8768C206.018 33.2059 206.846 33.3093 207.331 33.1746C208.453 32.8643 209.318 33.0053 209.848 34.0896C210.352 35.1144 210.337 36.0671 209.491 37.0104C208.456 38.1667 208.011 39.7806 206.626 40.7177C206.363 40.8963 206.288 41.802 206.498 42.1122C206.695 42.4005 207.403 42.4475 207.877 42.4131C208.24 42.388 208.569 42.037 208.942 41.9054C209.309 41.7769 209.779 41.5732 210.083 41.6985C211.484 42.2689 212.837 42.9677 214.407 42.2971C214.498 42.2595 214.655 42.3661 214.777 42.4099C215.432 42.6418 216.175 43.1808 216.714 43.021C217.259 42.8612 217.601 42.0088 218.03 41.4666C219.185 41.6944 219.749 42.3264 219.719 43.3626C219.688 44.4688 219.735 44.5409 221.778 46.4024C222.28 46.2238 222.822 46.0326 223.48 45.7976C224.837 47.5306 226.504 45.9825 228.065 46.1016C228.315 46.1204 228.804 45.4623 228.861 45.0737C229.064 43.676 230.048 43.5945 231.073 43.6729C232.524 43.7825 233.963 44.0113 235.351 44.1805C235.623 44.9734 235.664 45.9637 236.153 46.299C236.855 46.7816 237.877 46.8568 238.779 46.9759C239.547 47.0762 240.343 46.9978 241.036 46.9978C241.205 47.2297 241.34 47.3332 241.349 47.4428C241.593 49.9217 241.6 49.9468 244.057 49.975C245.138 49.9875 246.065 50.1223 246.918 51.0029C247.892 52.0088 248.858 51.8772 249.719 50.7553C250.396 49.8715 251.274 49.906 252.038 50.1881C253.859 50.8587 255.83 51.288 256.792 53.4096C257.159 54.2182 258.146 54.8324 258.974 55.3181C260.428 56.1705 260.6 56.3523 260.49 58.5648C259.669 58.5648 258.826 58.64 257.999 58.5522C256.04 58.336 254.834 59.3231 254.79 61.2724C254.777 61.8615 254.79 62.4507 254.79 62.7735C253.326 64.0113 252.048 65.1395 250.71 66.1925C250.327 66.4933 249.779 66.65 249.284 66.7252C246.423 67.1608 245.069 68.3799 244.439 71.1533C244.367 71.473 244.314 71.8208 244.154 72.0966C242.988 74.0834 241.797 76.0577 240.484 78.2546C240.349 77.7563 240.205 77.4398 240.189 77.117C240.152 76.321 240.271 75.5093 240.155 74.729C239.654 71.3821 241.455 69.0536 243.546 66.8349C243.859 66.4996 244.257 66.1956 244.445 65.7976C244.589 65.4905 244.614 64.9452 244.433 64.707C244.254 64.4783 243.646 64.331 243.392 64.4626C242.439 64.964 241.543 65.2586 240.431 64.9264C240.095 64.8293 239.412 65.2805 239.162 65.6597C238.629 66.4714 238.275 67.4021 237.717 68.546C237.234 68.4394 236.538 68.3611 235.893 68.1354C233.047 67.1358 231.781 67.4648 229.751 69.7274C229.18 70.3667 228.5 70.9089 227.88 71.5043C226.075 73.2279 226.463 74.9421 228.842 75.7726C228.955 75.8133 229.046 75.9261 229.321 76.1486C228.958 78.2201 229.02 80.4639 227.306 82.2784C226.554 83.0744 226.093 84.1587 225.551 85.1427C224.968 86.2019 224.307 86.9854 222.903 86.7221C222.139 86.578 221.459 86.8067 221.261 87.7532C221.198 88.0571 220.985 88.3548 220.788 88.6087C219.954 89.6742 219.948 90.6895 220.584 91.9149C220.938 92.598 220.822 93.5413 220.838 94.3686C220.841 94.5159 220.475 94.7698 220.258 94.7948C220.055 94.8168 219.635 94.6068 219.632 94.4877C219.581 93.1371 218.879 92.1718 217.958 91.2693C217.736 91.0499 217.798 90.5423 217.72 90.1255C216.921 90.0565 216.234 90.5203 215.504 89.7494C214.915 89.1289 212.512 90.7146 212.596 91.6485C212.634 92.0653 213.054 92.5573 213.433 92.808C213.847 93.0806 214.42 93.1089 214.671 93.1778C214.874 94.306 215.015 95.2367 215.216 96.1549C215.554 97.6968 215.608 99.1446 214.539 100.492C213.436 101.88 212.85 103.679 211.252 104.676C210.753 104.986 210.255 105.362 209.704 105.497C208.485 105.801 207.497 106.355 206.93 107.562C205.99 106.312 205.413 106.114 204.69 106.713C204.009 107.274 204.006 108.367 204.696 109.201C204.865 109.402 205.103 109.543 205.282 109.737C206.899 111.511 206.604 113.071 204.652 114.187C203.333 113.651 202.17 113.175 201.045 112.717C200.105 114.237 200.13 114.663 201.045 115.685C201.527 116.227 202.016 116.763 202.483 117.318C202.537 117.38 202.464 117.553 202.424 117.872C200.75 116.634 198.998 115.744 199.24 113.187C199.431 111.157 197.808 109.361 195.639 108.875C195.551 108.298 195.517 107.647 195.354 107.029C194.809 104.93 193.107 104.488 191.531 105.945C190.807 106.612 189.945 107.133 189.133 107.706C187.341 108.972 185.977 110.401 186.943 112.855C187.077 113.197 187.024 113.651 186.943 114.027C186.78 114.767 186.463 115.475 185.573 115.503C184.671 115.534 184.652 114.717 184.42 114.121C183.821 112.592 183.154 111.084 182.634 109.53C182.283 108.483 182.135 107.371 181.897 106.293C181.411 105.782 180.882 105.24 180.368 104.685C179.265 103.491 178.058 102.573 176.3 102.554C175.623 102.545 174.862 102.288 174.301 101.902C173.552 101.388 172.841 101.012 171.922 101.144C171.06 101.269 170.468 100.953 169.851 100.295C169.246 99.646 168.384 99.1947 167.563 98.8093C167.24 98.6588 166.57 98.7842 166.341 99.038C166.097 99.3075 166.021 99.9406 166.156 100.31C166.516 101.285 166.958 102.253 167.516 103.125C167.739 103.472 168.491 103.855 168.776 103.723C170.327 103.018 171.255 103.974 172.471 104.858C172.145 105.422 171.957 106.011 171.565 106.396C169.719 108.211 167.623 109.696 165.279 110.809C163.765 111.526 162.703 111.323 162.518 109.361C162.48 108.988 162.336 108.587 162.132 108.27C161.095 106.672 160.008 105.102 158.961 103.507C158.268 102.451 157.588 101.401 156.197 101.066C155.404 101.893 155.573 102.821 155.959 103.654C157.012 105.929 158.14 108.173 159.259 110.417C159.553 111.006 159.945 111.548 160.255 112.131C161.142 113.786 162.511 114.491 164.335 114.209C164.856 114.127 165.379 114.055 165.902 114.011C166.003 114.002 166.115 114.14 166.369 114.3C165.774 116.28 164.57 117.907 163.038 119.27C161.267 120.846 160.102 122.846 158.892 124.817C158.124 126.073 158.253 127.318 159.224 128.496C160.791 130.401 160.518 132.576 158.4 133.801C156.889 134.679 156.272 135.911 156.156 137.512C156.075 138.602 155.793 139.518 154.984 140.361C154.37 141 153.984 141.921 153.683 142.783C153.311 143.842 152.712 144.651 151.784 145.246C150.615 145.995 149.509 146.87 148.274 147.484C146.798 148.217 146.159 147.863 145.42 146.434C144.661 144.97 143.649 143.613 143.06 142.09C142.16 139.771 141.436 137.371 140.844 134.955C140.662 134.209 141.051 133.269 141.346 132.476C142.217 130.11 141.891 128.007 140.004 126.305C138.864 125.274 138.613 124.149 139.036 122.73C139.24 122.043 139.318 121.301 139.337 120.58C139.371 119.019 139.337 119.066 137.776 118.79C137.228 118.693 136.645 118.405 136.225 118.032C135.31 117.224 134.332 117.054 133.292 117.593C132.276 118.117 131.305 118.183 130.224 117.838C129.606 117.64 128.92 117.609 128.262 117.597C125.946 117.549 125.037 116.963 124.185 114.867C123.539 113.272 122.872 111.683 122.276 110.066C122.076 109.521 122.007 108.9 122.001 108.314C121.991 107.064 122.104 105.81 122.085 104.56C122.073 103.679 122.414 103.049 123.082 102.513C124.689 101.225 126.103 99.8748 126.798 97.7563C127.294 96.2521 128.528 95.1584 130.487 95.337C131.264 95.4059 132.16 95.0142 132.891 94.6288C134.852 93.5915 136.892 92.996 139.077 93.0242C139.177 93.2373 139.296 93.3627 139.277 93.4661C138.98 95.2649 139.581 96.3931 141.502 96.6971C141.925 96.7629 142.286 97.1734 142.69 97.399C144.107 98.1856 145.476 98.5868 146.886 97.2706C147.225 96.954 148.049 96.813 148.475 96.9948C150.603 97.9036 152.797 97.3395 154.946 97.3865C156.814 97.4273 157.864 96.0421 158.24 93.5539C157.61 92.8425 156.77 92.8613 155.896 92.9334C154.639 93.0368 153.383 93.1371 152.126 93.1715C150.637 93.2123 150.327 92.8487 150.697 91.4103C150.857 90.7898 151.089 90.1317 150.449 89.8246C149.772 89.4987 148.958 89.3671 148.199 89.3451C147.977 89.3389 147.56 89.9938 147.551 90.3542C147.538 90.8431 147.829 91.3414 147.989 91.8271C147.265 92.2847 146.773 92.0653 146.488 91.4197C146.306 91.0061 146.122 90.5046 146.187 90.0816C146.469 88.2859 145.532 87.4147 144.022 86.7785C143.063 86.3743 142.201 85.735 141.223 85.1584C140.258 86.0922 140.565 87.0324 141.107 87.866C141.493 88.4614 142.098 88.9252 142.634 89.4141C143.608 90.3041 143.605 90.42 142.229 91.6015C142.377 89.8027 141.342 88.9127 140.029 88.2107C139.813 88.0947 139.647 87.8409 139.512 87.6153C138.873 86.5592 138.083 86.1173 136.861 86.7503C136.479 86.9478 135.949 86.8443 135.501 86.9478C135.141 87.0324 134.523 87.1891 134.498 87.3771C134.329 88.6338 133.285 88.9628 132.449 89.5457C132.138 89.7588 131.85 90.1161 131.725 90.4702C131.418 91.3445 130.973 92.1311 129.995 92.1624C128.701 92.2 127.2 92.949 126.165 91.2192C126.614 90.1192 127.08 88.8563 125.977 87.6999C126.72 86.8161 127.478 86.7347 128.378 87.048C129.252 87.352 130.083 87.3614 130.634 86.4213C131.151 85.5438 131.104 84.4532 130.465 83.6353C130.114 83.184 129.719 82.7704 129.211 82.1812C130.415 81.9775 131.443 81.8992 131.85 80.7553C131.922 80.5579 132.251 80.3855 132.489 80.3291C133.561 80.0816 134.417 79.7368 134.802 78.4833C134.971 77.9349 135.981 77.6967 136.413 77.1608C137.648 75.6253 137.61 75.5939 138.049 73.4316C138.39 73.8578 138.6 74.3122 138.951 74.5065C139.421 74.7666 140.217 75.127 140.496 74.9264C141.562 74.1586 142.367 74.8732 143.295 75.2461C144.128 74.5974 144.89 73.8797 146.093 74.0803C146.695 74.1806 147.015 73.6447 147.005 73.0273C146.999 72.5761 146.952 72.1248 146.921 71.6297C147.767 71.5513 148.666 71.6986 149.23 71.3319C149.572 71.1094 149.393 70.0909 149.456 69.3545C150.822 68.5251 151.511 67.5797 151.521 66.5184C151.086 66.5184 150.631 66.4338 150.221 66.5341C149.045 66.8224 148.416 66.3147 147.82 65.3307C147.203 64.3059 147.576 63.6384 148.146 62.8205C148.707 62.0151 149.208 61.1345 149.55 60.2163C149.832 59.4516 149.766 58.6024 148.839 58.1824C148.055 57.8283 147.121 58.22 146.808 59.2323C146.441 60.4231 145.811 61.3413 144.912 62.1749C143.887 63.1245 143.759 64.3592 144.144 65.666C144.771 67.7907 143.207 70.9528 140.829 72.0496C140.741 71.2818 140.697 70.5767 140.572 69.8841C140.459 69.2605 140.258 68.6525 140.101 68.0602C138.807 67.9819 137.585 69.1727 136.607 67.6685C136.626 67.4805 136.673 67.2235 136.673 66.9634C136.676 64.5629 137.328 62.5353 139.738 61.4667C139.96 61.3695 140.149 61.1126 140.271 60.8869C141.502 58.5679 142.775 56.2614 143.918 53.8954C144.542 52.6074 145.15 51.4447 146.639 50.9339C147.287 50.7114 147.839 50.1661 148.397 49.7211C148.807 49.3921 149.121 48.9377 149.544 48.6274C150.622 47.8346 151.471 47.9098 151.966 49.11C152.634 50.7302 153.865 51.0937 155.376 51.3946C156.513 51.6202 157.616 52.1655 158.66 52.7045C159.44 53.1088 159.879 54.3216 159.553 54.9233C159.102 55.7537 158.3 55.7945 157.472 55.6315C156.723 55.4811 155.974 55.3244 155.326 55.1896C155.106 55.4999 154.968 55.6033 154.968 55.7067C154.959 57.4335 156.62 58.2451 157.209 59.6741C157.369 60.0627 158.306 60.1317 159.039 60.4043C159.312 59.0536 159.807 58.2482 161.104 58.1448C161.458 58.1166 161.929 57.5055 162.057 57.0793C162.327 56.158 162.408 55.1834 162.631 53.8546C163.085 54.4689 163.358 54.8543 163.649 55.2178C164.389 56.1392 165.081 56.252 165.73 55.3369C166.733 53.9267 167.958 53.3187 169.653 53.6854C170.681 53.9079 171.092 52.7923 171.878 52.6199C172.982 52.3786 173.17 51.6296 173.185 50.6393C175.175 50.89 176.128 53.7731 178.544 52.5008C178.876 51.3068 177.626 50.2319 178.444 48.8875C179.008 47.9568 178.914 46.628 179.165 45.2084C179.735 45.5782 180.171 45.7349 180.427 46.042C181.882 47.7844 182.339 49.7807 181.822 51.9994C181.703 52.5102 181.496 53.0492 181.565 53.5444C181.631 53.9957 181.932 54.6318 182.283 54.7634C182.646 54.8951 183.42 54.6506 183.627 54.3247C184.57 52.8393 185.733 51.3476 184.746 49.3983C184.661 49.2322 184.658 49.0129 184.652 48.8155C184.646 48.6901 184.702 48.5616 184.749 48.3579C185.335 48.2921 185.965 48.1041 186.551 48.1981C187.059 48.2796 187.532 48.6556 187.993 48.9439C188.93 49.5331 189.531 49.2573 189.559 48.1573C189.569 47.6998 189.437 47.2423 189.375 46.7847C189.268 46.0232 189.165 45.2586 189.024 44.2463C188.698 44.0207 188.168 43.654 187.598 43.2623V41.0216C188.585 40.8932 189.553 40.7553 190.525 40.6393C191.537 40.5171 192.12 40.0596 191.963 38.9439C191.822 37.9474 192.471 37.5494 193.157 36.9257C195.291 34.989 198.021 34.8292 200.547 34.0677C201.628 33.7418 202.314 33.3218 202.32 32.0715C202.32 31.1031 203.06 30.5829 203.906 30L203.9 30.0063Z" fill="url(#paint0_linear_535_3073)"/>
</g>
<g filter="url(#filter1_i_535_3073)">
<path fill-rule="evenodd" clip-rule="evenodd" d="M76.6792 121.975C78.0424 120.984 78.9042 119.762 78.7506 117.967C78.6222 116.497 78.1834 115.773 76.7732 115.685C74.5889 115.553 73.0784 114.554 71.875 112.78C71.1825 111.762 70.1984 110.94 69.3554 110.019C68.854 109.471 68.2398 109.251 67.5629 109.546C66.5632 109.978 65.808 109.546 64.965 109.085C63.8713 108.484 62.7149 107.979 61.5397 107.55C60.6716 107.233 60.2172 106.785 59.8318 105.87C59.1486 104.244 58.1207 102.758 57.1649 101.257C56.98 100.966 56.4754 100.878 55.786 100.53C56.0148 101.517 56.1464 102.103 56.2812 102.692C56.1652 102.742 56.0524 102.793 55.9396 102.846C55.0026 101.248 53.9371 99.7057 53.1724 98.0292C52.6898 96.9668 52.1476 96.0611 51.2576 95.3184C49.7628 94.0711 48.3839 92.6735 47.9859 90.6992C47.729 89.4268 47.5754 88.0385 47.8104 86.7819C48.4529 83.3378 47.1774 80.6866 44.7988 78.3895C44.1783 77.7878 43.6926 77.2175 43.4952 76.2805C43.3353 75.5252 42.7243 74.6885 42.0693 74.2623C41.2984 73.7577 41.0038 73.2062 40.8941 72.3632C40.7405 71.2099 40.1953 70.2479 39.2708 69.4895C38.8195 69.1197 38.4591 68.6371 38.0486 68.2109C37.8668 68.0228 37.6913 67.7283 37.472 67.6844C35.5008 67.3083 33.6017 66.3964 31.5303 66.7787C30.9317 66.8884 30.3958 67.2112 30.0135 66.4403C29.9414 66.2961 29.7126 66.1802 29.5371 66.1457C29.042 66.0454 26.3281 67.6154 26.3156 68.1294C26.2686 70.1977 24.5356 70.8433 23.2319 71.7333C21.9658 72.6014 20.4585 73.1216 18.9699 73.6355C20.1451 71.7113 23.1191 71.8837 23.8399 69.2638C23.4262 69.1134 23.0909 68.9285 22.7336 68.8752C22.0599 68.775 21.43 68.6872 21.1385 67.9257C21.0539 67.7032 20.8126 67.4462 20.5932 67.3773C18.387 66.7129 19.0294 64.9141 19.0044 63.4067C18.9887 62.5167 19.8129 62.4509 20.4115 62.2503C21.5334 61.8774 22.063 61.2193 21.7245 60.041C20.7656 59.7558 19.7314 59.6587 18.995 59.1385C18.5907 58.8533 18.691 57.8536 18.5249 56.9761H21.2795C21.7496 55.5158 20.7468 54.9203 20.0009 54.2372C18.6973 53.0463 18.7035 52.9993 20.026 51.8962C20.5776 51.4355 21.1228 50.9122 21.4895 50.3042C22.1288 49.2481 23.0345 48.8219 24.1908 48.5054C25.8831 48.0447 27.3936 48.1764 28.9511 48.9536C29.6343 49.2951 30.4836 49.433 31.2545 49.4268C32.7211 49.4111 33.9966 49.853 35.1467 50.7022C37.0332 52.0905 38.9104 52.4478 41.0007 51.0344C41.9941 50.3638 43.1693 50.0285 44.3601 50.8276C44.6077 50.9937 45.0527 51.0877 45.3159 50.9811C47.3592 50.1632 48.9449 51.611 50.7218 52.0592C51.1292 52.1626 51.5554 52.6703 51.734 53.0902C52.016 53.7577 52.4798 54.0429 53.1066 54.0147C54.6328 53.9426 55.9709 54.3625 57.1774 55.3027C57.3498 55.4343 57.6726 55.3685 58.0236 55.403C58.1708 55.0802 58.3025 54.795 58.431 54.5098C58.8916 53.5101 59.5591 53.1529 60.6403 53.4569C62.3294 53.9301 64.0029 54.4659 65.6105 54.9548C66.3156 54.2842 66.886 53.7483 67.4438 53.203C68.4717 52.2002 68.4654 51.6706 67.4344 50.5612C66.9748 50.0681 66.9267 49.2951 67.2903 48.2422C67.8543 48.7781 68.4592 49.1667 68.8008 49.7182C69.5247 50.884 70.0104 52.2065 70.7939 53.3221C71.195 53.8893 72.0067 54.2121 72.693 54.5067C72.8528 54.5756 73.3573 54.1526 73.5109 53.858C73.6864 53.5289 73.5673 53.0526 73.7209 52.7016C73.8619 52.382 74.2285 51.8962 74.4416 51.9244C74.824 51.9714 75.4288 52.3067 75.4727 52.5951C75.6137 53.4976 75.62 54.444 75.4883 55.3465C75.4476 55.6317 74.7895 56.0235 74.4197 56.0203C73.3103 56.0078 72.9217 56.9103 72.201 57.3992C71.4018 57.9382 70.8848 58.2735 71.0383 59.3296C71.0853 59.6493 70.5808 60.0911 70.2705 60.4171C69.3868 61.3478 68.5877 62.3036 68.6065 63.6888C68.6065 63.8173 68.5751 63.9677 68.5031 64.0711C66.6917 66.7004 68.1991 68.8909 69.5466 71C69.9383 71.6142 70.9161 72.0122 71.6964 72.1814C73.1536 72.4917 74.0248 73.0025 74.1784 74.7073C74.2724 75.732 75.0214 76.7474 75.645 77.6499C75.855 77.957 76.6228 78.0793 77.0521 77.9664C77.3216 77.8975 77.4877 77.2457 77.6005 76.8289C77.682 76.5218 77.6507 76.1614 77.588 75.8417C77.4062 74.9266 77.823 74.3814 78.5313 73.8486C80.0073 72.7298 80.1734 72.1281 79.4996 70.4641C79.1831 69.6838 79.1236 69.0006 79.3492 68.1701C79.5717 67.3616 79.4181 66.4559 79.5592 65.6161C79.6218 65.2431 79.9509 64.7261 80.2643 64.6383C80.6184 64.5349 81.383 64.7386 81.4645 64.9799C81.9722 66.4653 83.6864 67.0044 84.0813 68.6402C84.3476 69.7464 86.0775 69.8561 86.8892 68.9473C87.1837 68.6183 87.3373 68.1639 87.5473 67.7815C88.478 67.8097 88.7601 68.4052 88.8415 69.0821C89.0421 70.7681 89.9258 71.9777 91.195 73.0652C92.4016 74.0962 93.5861 75.2714 92.8184 77.2237C91.7435 77.9915 90.5996 78.612 89.0828 78.6058C87.2026 78.5995 85.9428 79.8687 85.6012 81.6894C86.463 82.0843 86.7858 82.4635 87.6789 84.1463C86.7763 84.7668 85.692 85.2338 85.012 86.0423C83.5046 87.8348 81.687 89.6211 80.9568 91.7365C80.1828 93.9897 79.6124 95.9984 77.3561 97.205C76.4065 97.7126 76.2624 98.8032 76.4755 99.8656C76.629 100.627 76.7795 101.392 76.6541 102.288C76.4285 102.04 76.0932 101.827 75.9991 101.539C75.6952 100.624 75.8017 99.4645 74.5889 99.1291C73.1004 98.7186 71.593 98.4679 70.164 99.3516C69.9446 99.4864 69.7628 99.6744 69.5842 99.8186C69.0734 99.6681 68.6409 99.4927 68.1897 99.4174C66.5977 99.1479 65.8362 99.7089 65.5479 101.285C65.3473 102.391 65.0684 103.488 64.9086 104.601C64.7111 105.973 65.1718 106.914 66.3094 107.377C68.2429 108.164 69.1329 108.283 70.305 107.048C70.6529 106.685 71.032 106.349 71.4175 106.03C71.4802 105.977 71.6651 106.074 72.0255 106.152C71.9879 106.807 72.0505 107.525 71.8876 108.186C71.43 110.016 71.3924 110.003 73.2915 110.549C73.4827 110.605 73.6582 110.705 74.0844 110.89C74.0844 111.429 74.0687 112.072 74.0875 112.711C74.1314 114.084 74.6391 114.629 75.996 114.736C77.2119 114.83 78.431 114.447 79.6594 115.171C80.0762 115.419 81.195 114.861 81.7528 114.391C83.2445 113.14 84.6798 113.009 86.2749 114.115C86.7043 114.413 87.1931 114.717 87.6946 114.817C89.7378 115.218 91.6902 115.735 92.9061 117.644C94.3101 117.879 95.4476 118.672 96.6259 119.389C97.3091 119.806 97.986 120.166 98.0142 121.154C98.0362 121.981 98.6284 122.429 99.4119 122.623C100.183 122.815 100.941 123.119 101.722 123.197C104.006 123.422 105.752 124.801 107.676 125.817C108.578 126.293 108.763 126.942 108.321 127.782C107.895 128.596 107.444 129.414 106.902 130.157C106.146 131.191 105.683 132.291 105.369 133.554C104.94 135.271 104.263 136.951 103.495 138.553C103.232 139.101 102.43 139.568 101.79 139.721C100.314 140.069 99.3336 140.872 98.6128 142.178C97.5598 144.09 96.3721 145.93 95.3097 147.835C94.9682 148.449 94.6642 148.938 93.8932 149.048C93.0471 149.17 92.5206 149.599 92.3295 150.568C92.2261 151.097 91.6024 151.846 91.1261 151.918C89.3304 152.191 88.782 154.009 87.3718 154.739C87.1054 154.877 87.0239 155.742 87.1461 156.196C87.4344 157.265 87.3154 158.083 86.4567 158.879C85.7014 159.584 85.6231 160.524 86.3063 161.392C86.7293 161.928 86.792 162.439 86.4285 163.031C85.0778 165.24 85.4852 167.189 87.3185 168.926C87.4501 169.048 87.5097 169.255 87.5817 169.43C87.6037 169.48 87.5661 169.559 87.5535 169.624C84.2568 169.975 81.7873 167.891 81.8594 164.692C81.9095 162.379 82.1352 160.073 82.2856 157.763C82.3075 157.431 82.4548 157.07 82.3702 156.779C81.311 153.197 83.138 149.884 83.3166 146.422C83.4764 143.382 83.793 140.355 84.0186 137.318C84.1377 135.71 83.5297 134.497 82.0317 133.758C80.7312 133.115 79.9039 131.99 79.2019 130.762C78.4122 129.383 77.6131 128.007 76.8672 126.606C76.6917 126.281 76.6447 125.851 76.6447 125.472C76.6478 124.287 76.7043 123.106 76.7356 121.921L76.6635 121.993L76.6792 121.975Z" fill="url(#paint1_linear_535_3073)"/>
</g>
<g filter="url(#filter2_i_535_3073)">
<path fill-rule="evenodd" clip-rule="evenodd" d="M218.065 133.492C218.901 132.884 219.729 132.235 220.854 133.137C221.292 132.573 221.684 132.135 222.001 131.649C222.486 130.906 223.157 130.853 223.922 131.022C224.805 131.213 224.799 131.821 224.724 132.551C224.599 133.777 225.297 134.538 226.328 135.046C227.284 135.516 227.736 135.319 228.124 134.275C228.481 133.313 228.431 132.16 229.403 131.448C230.923 132.498 231.813 133.987 232.424 135.582C233.066 137.252 234.088 138.575 235.354 139.775C235.83 140.229 236.216 140.781 236.673 141.254C237.416 142.016 237.538 142.94 237.175 143.839C236.307 145.986 235.495 148.183 234.36 150.189C233.192 152.254 231.161 152.401 229.331 150.843C228.484 150.123 227.801 149.145 226.526 149.117C226.404 149.117 226.225 149.042 226.178 148.948C225.241 147.158 223.204 147.114 221.731 146.18C221.239 145.87 220.456 145.701 219.91 145.851C218.005 146.378 216.134 147.055 214.266 147.713C213.401 148.02 212.59 148.559 211.505 148.064C211.458 147.672 211.248 147.177 211.38 146.795C212.041 144.842 211.324 143.015 210.985 141.151C210.882 140.574 210.775 139.975 210.813 139.396C210.891 138.205 211.499 137.424 212.756 137.24C214.837 136.936 216.294 135.544 217.804 134.269C218.008 134.096 218.033 133.708 218.14 133.423L218.068 133.492H218.065Z" fill="url(#paint2_linear_535_3073)"/>
</g>
<mask id="mask0_535_3073" style="mask-type:alpha" maskUnits="userSpaceOnUse" x="11" y="48" width="85" height="45">
<path d="M14.5 78L11 48L63.5 50L70.5 48L77.5 50L78.5 56.5L73 62.5H82L96 75L87.5 93L42.5 91L35.5 78H28.5H14.5Z" fill="white"/>
</mask>
<g mask="url(#mask0_535_3073)">
<g filter="url(#filter3_i_535_3073)">
<path fill-rule="evenodd" clip-rule="evenodd" d="M77.1543 121.735C78.5175 120.745 79.3793 119.522 79.2257 117.727C79.0973 116.257 78.6585 115.533 77.2483 115.445C75.064 115.314 73.5535 114.314 72.3501 112.54C71.6576 111.522 70.6735 110.701 69.8305 109.779C69.3291 109.231 68.7149 109.012 68.038 109.306C67.0383 109.739 66.2831 109.306 65.4401 108.846C64.3464 108.244 63.19 107.739 62.0148 107.31C61.1467 106.993 60.6923 106.545 60.3069 105.63C59.6237 104.004 58.5958 102.518 57.64 101.017C57.4551 100.726 56.9505 100.638 56.2611 100.29C56.4899 101.277 56.6215 101.863 56.7563 102.453C56.6403 102.503 56.5275 102.553 56.4147 102.606C55.4777 101.008 54.4122 99.466 53.6475 97.7894C53.1649 96.727 52.6227 95.8214 51.7327 95.0787C50.2379 93.8314 48.859 92.4337 48.461 90.4594C48.2041 89.1871 48.0505 87.7988 48.2855 86.5421C48.928 83.0981 47.6525 80.4469 45.2739 78.1498C44.6534 77.5481 44.1677 76.9777 43.9703 76.0407C43.8104 75.2855 43.1994 74.4487 42.5444 74.0225C41.7735 73.518 41.4789 72.9664 41.3692 72.1234C41.2156 70.9702 40.6704 70.0081 39.7459 69.2497C39.2946 68.8799 38.9342 68.3973 38.5237 67.9711C38.3419 67.7831 38.1664 67.4885 37.9471 67.4446C35.9759 67.0686 34.0768 66.1566 32.0053 66.539C31.4068 66.6487 30.8709 66.9714 30.4886 66.2005C30.4165 66.0564 30.1877 65.9404 30.0122 65.9059C29.5171 65.8057 26.8032 67.3757 26.7907 67.8896C26.7437 69.958 25.0107 70.6035 23.707 71.4935C22.4409 72.3616 20.9336 72.8818 19.445 73.3958C20.6202 71.4716 23.5942 71.644 24.315 69.0241C23.9013 68.8737 23.566 68.6888 23.2087 68.6355C22.5349 68.5352 21.9051 68.4475 21.6136 67.6859C21.529 67.4634 21.2877 67.2065 21.0683 67.1375C18.8621 66.4732 19.5045 64.6743 19.4795 63.167C19.4638 62.277 20.288 62.2112 20.8866 62.0106C22.0085 61.6377 22.5381 60.9796 22.1996 59.8013C21.2407 59.5161 20.2065 59.4189 19.4701 58.8987C19.0658 58.6135 19.1661 57.6139 19 56.7364H21.7546C22.2247 55.276 21.2219 54.6806 20.476 53.9974C19.1724 52.8066 19.1786 52.7596 20.5011 51.6565C21.0527 51.1958 21.5979 50.6724 21.9646 50.0645C22.6039 49.0084 23.5096 48.5822 24.6659 48.2657C26.3582 47.805 27.8687 47.9366 29.4262 48.7138C30.1094 49.0554 30.9587 49.1933 31.7296 49.187C33.1962 49.1713 34.4717 49.6132 35.6218 50.4625C37.5083 51.8508 39.3855 52.208 41.4757 50.7947C42.4692 50.124 43.6444 49.7887 44.8352 50.5878C45.0828 50.7539 45.5278 50.8479 45.791 50.7414C47.8343 49.9235 49.42 51.3713 51.1969 51.8194C51.6043 51.9228 52.0305 52.4305 52.2091 52.8505C52.4911 53.518 52.9549 53.8031 53.5817 53.7749C55.1079 53.7028 56.446 54.1228 57.6525 55.0629C57.8249 55.1945 58.1477 55.1287 58.4987 55.1632C58.6459 54.8404 58.7776 54.5552 58.9061 54.2701C59.3667 53.2704 60.0342 52.9131 61.1154 53.2171C62.8045 53.6903 64.478 54.2262 66.0856 54.7151C66.7907 54.0444 67.3611 53.5085 67.9189 52.9633C68.9468 51.9604 68.9405 51.4308 67.9095 50.3215C67.4499 49.8284 67.4018 49.0554 67.7654 48.0024C68.3294 48.5383 68.9343 48.9269 69.2759 49.4785C69.9998 50.6442 70.4855 51.9667 71.269 53.0824C71.6701 53.6496 72.4818 53.9724 73.1681 54.2669C73.3279 54.3359 73.8324 53.9128 73.986 53.6182C74.1615 53.2892 74.0424 52.8128 74.196 52.4619C74.337 52.1422 74.7036 51.6565 74.9167 51.6847C75.2991 51.7317 75.9039 52.067 75.9478 52.3553C76.0888 53.2578 76.0951 54.2043 75.9634 55.1068C75.9227 55.392 75.2646 55.7837 74.8948 55.7806C73.7854 55.768 73.3968 56.6706 72.6761 57.1595C71.8769 57.6985 71.3599 58.0338 71.5134 59.0899C71.5604 59.4095 71.0559 59.8514 70.7456 60.1773C69.8619 61.1081 69.0628 62.0639 69.0816 63.449C69.0816 63.5775 69.0502 63.7279 68.9781 63.8314C67.1668 66.4606 68.6742 68.6512 70.0217 70.7602C70.4134 71.3745 71.3912 71.7724 72.1715 71.9417C73.6287 72.2519 74.4999 72.7627 74.6535 74.4675C74.7475 75.4923 75.4965 76.5076 76.1201 77.4102C76.3301 77.7173 77.0979 77.8395 77.5272 77.7267C77.7967 77.6578 77.9628 77.0059 78.0756 76.5891C78.1571 76.282 78.1258 75.9216 78.0631 75.602C77.8813 74.6869 78.2981 74.1416 79.0064 73.6089C80.4824 72.4901 80.6485 71.8884 79.9747 70.2243C79.6582 69.444 79.5987 68.7608 79.8243 67.9304C80.0468 67.1219 79.8932 66.2162 80.0343 65.3763C80.0969 65.0034 80.426 64.4863 80.7394 64.3986C81.0935 64.2952 81.8581 64.4989 81.9396 64.7402C82.4473 66.2256 84.1615 66.7646 84.5564 68.4005C84.8227 69.5067 86.5526 69.6164 87.3643 68.7076C87.6588 68.3785 87.8124 67.9241 88.0224 67.5418C88.9531 67.57 89.2352 68.1654 89.3166 68.8423C89.5172 70.5283 90.4009 71.738 91.6701 72.8254C92.8766 73.8564 94.0612 75.0316 93.2934 76.984C92.2186 77.7518 91.0747 78.3723 89.5579 78.366C87.6777 78.3597 86.4179 79.6289 86.0763 81.4497C86.9381 81.8445 87.2608 82.2237 88.154 83.9066C87.2514 84.5271 86.1671 84.994 85.4871 85.8026C83.9797 87.5951 82.1621 89.3814 81.4319 91.4967C80.6579 93.7499 80.0875 95.7587 77.8312 96.9652C76.8816 97.4729 76.7375 98.5635 76.9506 99.6258C77.1041 100.387 77.2546 101.152 77.1292 102.048C76.9036 101.801 76.5683 101.588 76.4742 101.299C76.1703 100.384 76.2768 99.2247 75.064 98.8894C73.5755 98.4789 72.0681 98.2281 70.6391 99.1119C70.4197 99.2466 70.2379 99.4347 70.0593 99.5788C69.5485 99.4284 69.116 99.2529 68.6648 99.1777C67.0728 98.9082 66.3113 99.4691 66.023 101.045C65.8224 102.152 65.5435 103.249 65.3837 104.361C65.1862 105.734 65.6469 106.674 66.7845 107.138C68.718 107.924 69.608 108.043 70.7801 106.809C71.1279 106.445 71.5071 106.11 71.8926 105.79C71.9553 105.737 72.1402 105.834 72.5006 105.912C72.463 106.567 72.5256 107.285 72.3627 107.946C71.9051 109.776 71.8675 109.764 73.7666 110.309C73.9578 110.365 74.1333 110.466 74.5595 110.651C74.5595 111.19 74.5438 111.832 74.5626 112.471C74.6065 113.844 75.1142 114.389 76.4711 114.496C77.687 114.59 78.9061 114.207 80.1345 114.931C80.5513 115.179 81.6701 114.621 82.2279 114.151C83.7196 112.901 85.1549 112.769 86.75 113.875C87.1794 114.173 87.6682 114.477 88.1697 114.577C90.2129 114.978 92.1653 115.495 93.3812 117.404C94.7851 117.639 95.9227 118.432 97.101 119.15C97.7842 119.566 98.4611 119.927 98.4893 120.914C98.5113 121.741 99.1035 122.189 99.887 122.384C100.658 122.575 101.416 122.879 102.197 122.957C104.481 123.183 106.227 124.562 108.151 125.577C109.053 126.053 109.238 126.702 108.796 127.542C108.37 128.357 107.919 129.175 107.377 129.917C106.622 130.951 106.158 132.051 105.844 133.314C105.415 135.032 104.738 136.711 103.97 138.313C103.707 138.861 102.905 139.328 102.266 139.482C100.79 139.83 99.8087 140.632 99.0879 141.939C98.0349 143.85 96.8472 145.69 95.7848 147.595C95.4433 148.209 95.1393 148.698 94.3683 148.808C93.5222 148.93 92.9957 149.36 92.8046 150.328C92.7012 150.858 92.0775 151.606 91.6012 151.679C89.8055 151.951 89.2571 153.769 87.8469 154.499C87.5805 154.637 87.499 155.502 87.6212 155.956C87.9095 157.025 87.7905 157.843 86.9318 158.639C86.1765 159.344 86.0982 160.284 86.7814 161.152C87.2044 161.688 87.2671 162.199 86.9036 162.791C85.5529 165 85.9603 166.95 87.7936 168.686C87.9252 168.808 87.9848 169.015 88.0568 169.19C88.0788 169.24 88.0412 169.319 88.0286 169.385C84.7319 169.736 82.2624 167.652 82.3345 164.452C82.3846 162.139 82.6103 159.833 82.7607 157.523C82.7826 157.191 82.9299 156.831 82.8453 156.539C81.7861 152.957 83.6131 149.645 83.7917 146.182C83.9515 143.142 84.2681 140.115 84.4937 137.078C84.6128 135.47 84.0048 134.258 82.5068 133.518C81.2063 132.876 80.379 131.751 79.677 130.522C78.8873 129.143 78.0882 127.768 77.3423 126.367C77.1668 126.041 77.1198 125.611 77.1198 125.232C77.1229 124.048 77.1794 122.866 77.2107 121.682L77.1386 121.754L77.1543 121.735Z" fill="url(#paint3_linear_535_3073)"/>
</g>
</g>
<path fill-rule="evenodd" clip-rule="evenodd" d="M132.47 124.04L227.97 139.76C229.94 140.09 230.74 142.5 229.34 143.93L209.02 164.75C209.06 164.83 209.1 164.91 209.1 165.01L209.62 181.57C209.67 183.16 207.68 183.9 206.68 182.66L206.9 182.93L196.74 177.33L177.35 197.2C176.23 198.35 174.32 198.14 173.47 196.77L130.44 127.07C129.53 125.6 130.78 123.75 132.48 124.03L132.47 124.04Z" fill="black" fill-opacity="0.1"/>
<path fill-rule="evenodd" clip-rule="evenodd" d="M226.6 130.09L131.1 114.37C129.4 114.09 128.16 115.94 129.06 117.41L172.09 187.11C172.94 188.48 174.84 188.69 175.97 187.54L227.97 134.27C229.37 132.84 228.58 130.42 226.6 130.1V130.09Z" fill="url(#paint4_linear_535_3073)"/>
<path fill-rule="evenodd" clip-rule="evenodd" d="M133.57 117.13L207.42 154.85C207.6 154.94 207.72 155.13 207.72 155.33L208.24 171.89C208.29 173.48 206.3 174.22 205.3 172.98L198.49 164.55C198.49 164.55 198.42 164.48 198.38 164.45L132.99 118.08C132.43 117.68 132.95 116.82 133.56 117.13H133.57Z" fill="#D4D4D4"/>
<path fill-rule="evenodd" clip-rule="evenodd" d="M198.45 164.5L205.53 173.26L195.36 167.66L198.45 164.5Z" fill="#585858"/>
<mask id="mask1_535_3073" style="mask-type:luminance" maskUnits="userSpaceOnUse" x="136" y="100" width="103" height="65">
<path d="M136.63 120.66L198.39 164.45L238.08 123.54V100.03L136.63 100.1V120.66Z" fill="white"/>
</mask>
<g mask="url(#mask1_535_3073)">
<path fill-rule="evenodd" clip-rule="evenodd" d="M201.51 151.83L197.93 149.99L186.15 155.77L193.49 160.98C198.03 158.43 200.86 154.27 201.51 151.83Z" fill="black" fill-opacity="0.1"/>
<path d="M180.65 157.96C195.843 157.96 208.16 145.643 208.16 130.45C208.16 115.257 195.843 102.94 180.65 102.94C165.457 102.94 153.14 115.257 153.14 130.45C153.14 145.643 165.457 157.96 180.65 157.96Z" fill="url(#paint5_linear_535_3073)" stroke="white" stroke-width="3" stroke-miterlimit="10"/>
<path d="M180.65 152.29C192.712 152.29 202.49 142.512 202.49 130.45C202.49 118.388 192.712 108.61 180.65 108.61C168.588 108.61 158.81 118.388 158.81 130.45C158.81 142.512 168.588 152.29 180.65 152.29Z" stroke="white" stroke-width="2" stroke-miterlimit="10" stroke-linecap="round" stroke-dasharray="1 5"/>
<path d="M189.92 138.43C190.35 138.96 190.57 139.61 190.57 140.37C190.57 140.86 190.48 141.29 190.29 141.64C190.11 142 189.8 142.34 189.39 142.66C187.25 144.33 184.82 145.17 182.12 145.17C179.66 145.17 177.59 144.43 175.92 142.94C174.25 141.45 173.1 139.34 172.49 136.61H170.83C170.26 136.61 169.78 136.42 169.39 136.04C169 135.66 168.8 135.2 168.8 134.66C168.8 134.12 169 133.66 169.39 133.29C169.78 132.92 170.26 132.74 170.83 132.74H171.97V130.89H170.83C170.26 130.89 169.78 130.71 169.39 130.34C169 129.97 168.8 129.52 168.8 128.97C168.8 128.42 169 127.97 169.39 127.59C169.78 127.21 170.26 127.02 170.83 127.02H172.49C173.11 124.31 174.25 122.22 175.92 120.73C177.59 119.24 179.66 118.5 182.12 118.5C184.58 118.5 186.98 119.34 189.39 121.01C189.81 121.31 190.11 121.63 190.29 121.97C190.47 122.31 190.57 122.76 190.57 123.3C190.57 124.06 190.35 124.71 189.92 125.24C189.49 125.77 188.97 126.03 188.35 126.03C188.01 126.03 187.7 125.98 187.43 125.88C187.16 125.78 186.79 125.58 186.32 125.29C185.46 124.8 184.73 124.44 184.12 124.2C183.52 123.97 182.97 123.85 182.48 123.85C181.57 123.85 180.84 124.1 180.28 124.61C179.73 125.11 179.31 125.92 179.04 127.03H182.73C183.3 127.03 183.78 127.22 184.17 127.6C184.56 127.98 184.76 128.44 184.76 128.98C184.76 129.52 184.56 129.98 184.17 130.35C183.78 130.72 183.3 130.9 182.73 130.9H178.63V132.75H182.73C183.3 132.75 183.78 132.93 184.17 133.3C184.56 133.67 184.76 134.12 184.76 134.67C184.76 135.22 184.56 135.67 184.17 136.05C183.78 136.43 183.3 136.62 182.73 136.62H179.04C179.31 137.73 179.72 138.54 180.28 139.06C180.83 139.58 181.57 139.83 182.48 139.83C183.54 139.83 184.82 139.35 186.32 138.39C186.79 138.09 187.16 137.9 187.43 137.8C187.7 137.7 188.01 137.65 188.35 137.65C188.97 137.65 189.49 137.91 189.92 138.44V138.43Z" fill="black" fill-opacity="0.1"/>
<path d="M189.11 137.09C189.54 137.62 189.76 138.27 189.76 139.03C189.76 139.52 189.67 139.95 189.48 140.3C189.3 140.66 188.99 141 188.58 141.32C186.44 142.99 184.01 143.83 181.31 143.83C178.85 143.83 176.78 143.09 175.11 141.6C173.44 140.11 172.29 138 171.68 135.27H170.02C169.45 135.27 168.97 135.08 168.58 134.7C168.19 134.32 167.99 133.86 167.99 133.32C167.99 132.78 168.19 132.32 168.58 131.95C168.97 131.58 169.45 131.4 170.02 131.4H171.16V129.55H170.02C169.45 129.55 168.97 129.37 168.58 129C168.19 128.63 167.99 128.18 167.99 127.63C167.99 127.08 168.19 126.63 168.58 126.25C168.97 125.87 169.45 125.68 170.02 125.68H171.68C172.3 122.97 173.44 120.88 175.11 119.39C176.78 117.9 178.85 117.16 181.31 117.16C183.77 117.16 186.17 118 188.58 119.67C189 119.97 189.3 120.29 189.48 120.63C189.66 120.97 189.76 121.42 189.76 121.96C189.76 122.72 189.54 123.37 189.11 123.9C188.68 124.43 188.16 124.69 187.54 124.69C187.2 124.69 186.89 124.64 186.62 124.54C186.35 124.44 185.98 124.24 185.51 123.95C184.65 123.46 183.92 123.1 183.31 122.86C182.71 122.63 182.16 122.51 181.67 122.51C180.76 122.51 180.03 122.76 179.47 123.27C178.92 123.77 178.5 124.58 178.23 125.69H181.92C182.49 125.69 182.97 125.88 183.36 126.26C183.75 126.64 183.95 127.1 183.95 127.64C183.95 128.18 183.75 128.64 183.36 129.01C182.97 129.38 182.49 129.56 181.92 129.56H177.82V131.41H181.92C182.49 131.41 182.97 131.59 183.36 131.96C183.75 132.33 183.95 132.78 183.95 133.33C183.95 133.88 183.75 134.33 183.36 134.71C182.97 135.09 182.49 135.28 181.92 135.28H178.23C178.5 136.39 178.91 137.2 179.47 137.72C180.02 138.24 180.76 138.49 181.67 138.49C182.73 138.49 184.01 138.01 185.51 137.05C185.98 136.75 186.35 136.56 186.62 136.46C186.89 136.36 187.2 136.31 187.54 136.31C188.16 136.31 188.68 136.57 189.11 137.1V137.09Z" fill="white"/>
</g>
<mask id="mask2_535_3073" style="mask-type:luminance" maskUnits="userSpaceOnUse" x="150" y="129" width="48" height="30">
<path d="M197.16 154.72L150.54 129.94L150.44 130.45L190.41 158.79L197.16 154.72Z" fill="white"/>
</mask>
<g mask="url(#mask2_535_3073)">
<path d="M180.65 159.44C196.661 159.44 209.64 146.461 209.64 130.45C209.64 114.439 196.661 101.46 180.65 101.46C164.639 101.46 151.66 114.439 151.66 130.45C151.66 146.461 164.639 159.44 180.65 159.44Z" fill="black" fill-opacity="0.1"/>
</g>
<mask id="mask3_535_3073" style="mask-type:alpha" maskUnits="userSpaceOnUse" x="81" y="124" width="28" height="47">
<path d="M109 129L104.5 140.5L98.5 145L94.5 149L91 152L87.5 156.5V161V170.5L81 168.5V156.5V149L82 144.5V139.5L86.5 131.76L88.1047 129L88.9767 127.5L90.3149 125.198L89.5 124.5L90.4302 125L90.3149 125.198L93 127.5L94.5 145L104.5 133L109 129Z" fill="white"/>
</mask>
<g mask="url(#mask3_535_3073)">
<g filter="url(#filter4_i_535_3073)">
<path fill-rule="evenodd" clip-rule="evenodd" d="M76.1279 121.735C77.4911 120.745 78.3529 119.522 78.1994 117.727C78.0709 116.257 77.6322 115.533 76.2219 115.445C74.0377 115.314 72.5272 114.314 71.3238 112.54C70.6312 111.522 69.6472 110.701 68.8042 109.779C68.3028 109.231 67.6885 109.012 67.0116 109.306C66.012 109.739 65.2567 109.306 64.4137 108.846C63.32 108.244 62.1636 107.739 60.9884 107.31C60.1204 106.993 59.666 106.545 59.2805 105.63C58.5973 104.004 57.5694 102.518 56.6136 101.017C56.4287 100.726 55.9242 100.638 55.2347 100.29C55.4635 101.277 55.5951 101.863 55.7299 102.453C55.6139 102.503 55.5011 102.553 55.3883 102.606C54.4513 101.008 53.3858 99.466 52.6211 97.7894C52.1385 96.727 51.5964 95.8214 50.7064 95.0787C49.2115 93.8314 47.8327 92.4337 47.4347 90.4594C47.1777 89.1871 47.0241 87.7988 47.2592 86.5421C47.9016 83.0981 46.6261 80.4469 44.2476 78.1498C43.6271 77.5481 43.1413 76.9777 42.9439 76.0407C42.7841 75.2855 42.173 74.4487 41.518 74.0225C40.7471 73.518 40.4525 72.9664 40.3428 72.1234C40.1893 70.9702 39.644 70.0081 38.7195 69.2497C38.2682 68.8799 37.9079 68.3973 37.4973 67.9711C37.3156 67.7831 37.1401 67.4885 36.9207 67.4446C34.9495 67.0686 33.0504 66.1566 30.979 66.539C30.3804 66.6487 29.8445 66.9714 29.4622 66.2005C29.3901 66.0564 29.1614 65.9404 28.9859 65.9059C28.4907 65.8057 25.7768 67.3757 25.7643 67.8896C25.7173 69.958 23.9843 70.6035 22.6806 71.4935C21.4146 72.3616 19.9072 72.8818 18.4186 73.3958C19.5938 71.4716 22.5678 71.644 23.2886 69.0241C22.8749 68.8737 22.5396 68.6888 22.1824 68.6355C21.5086 68.5352 20.8787 68.4475 20.5872 67.6859C20.5026 67.4634 20.2613 67.2065 20.042 67.1375C17.8357 66.4732 18.4782 64.6743 18.4531 63.167C18.4374 62.277 19.2616 62.2112 19.8602 62.0106C20.9821 61.6377 21.5117 60.9796 21.1733 59.8013C20.2143 59.5161 19.1802 59.4189 18.4437 58.8987C18.0394 58.6135 18.1397 57.6139 17.9736 56.7364H20.7283C21.1983 55.276 20.1955 54.6806 19.4497 53.9974C18.146 52.8066 18.1523 52.7596 19.4747 51.6565C20.0263 51.1958 20.5716 50.6724 20.9382 50.0645C21.5775 49.0084 22.4832 48.5822 23.6396 48.2657C25.3318 47.805 26.8423 47.9366 28.3998 48.7138C29.083 49.0554 29.9323 49.1933 30.7032 49.187C32.1698 49.1713 33.4453 49.6132 34.5954 50.4625C36.482 51.8508 38.3591 52.208 40.4494 50.7947C41.4428 50.124 42.618 49.7887 43.8088 50.5878C44.0564 50.7539 44.5014 50.8479 44.7647 50.7414C46.8079 49.9235 48.3936 51.3713 50.1705 51.8194C50.5779 51.9228 51.0041 52.4305 51.1827 52.8505C51.4648 53.518 51.9286 53.8031 52.5553 53.7749C54.0815 53.7028 55.4196 54.1228 56.6262 55.0629C56.7985 55.1945 57.1213 55.1287 57.4723 55.1632C57.6196 54.8404 57.7512 54.5552 57.8797 54.2701C58.3404 53.2704 59.0079 52.9131 60.089 53.2171C61.7782 53.6903 63.4516 54.2262 65.0593 54.7151C65.7644 54.0444 66.3347 53.5085 66.8926 52.9633C67.9204 51.9604 67.9142 51.4308 66.8832 50.3215C66.4235 49.8284 66.3755 49.0554 66.739 48.0024C67.3031 48.5383 67.9079 48.9269 68.2495 49.4785C68.9734 50.6442 69.4592 51.9667 70.2426 53.0824C70.6437 53.6496 71.4554 53.9724 72.1417 54.2669C72.3015 54.3359 72.8061 53.9128 72.9596 53.6182C73.1351 53.2892 73.016 52.8128 73.1696 52.4619C73.3106 52.1422 73.6773 51.6565 73.8904 51.6847C74.2727 51.7317 74.8775 52.067 74.9214 52.3553C75.0624 53.2578 75.0687 54.2043 74.9371 55.1068C74.8963 55.392 74.2382 55.7837 73.8684 55.7806C72.7591 55.768 72.3705 56.6706 71.6497 57.1595C70.8506 57.6985 70.3335 58.0338 70.487 59.0899C70.5341 59.4095 70.0295 59.8514 69.7193 60.1773C68.8355 61.1081 68.0364 62.0639 68.0552 63.449C68.0552 63.5775 68.0239 63.7279 67.9518 63.8314C66.1404 66.4606 67.6478 68.6512 68.9953 70.7602C69.3871 71.3745 70.3648 71.7724 71.1451 71.9417C72.6024 72.2519 73.4736 72.7627 73.6271 74.4675C73.7211 75.4923 74.4701 76.5076 75.0938 77.4102C75.3037 77.7173 76.0715 77.8395 76.5009 77.7267C76.7704 77.6578 76.9364 77.0059 77.0493 76.5891C77.1307 76.282 77.0994 75.9216 77.0367 75.602C76.855 74.6869 77.2718 74.1416 77.98 73.6089C79.456 72.4901 79.6221 71.8884 78.9484 70.2243C78.6318 69.444 78.5723 68.7608 78.7979 67.9304C79.0204 67.1219 78.8669 66.2162 79.0079 65.3763C79.0706 65.0034 79.3996 64.4863 79.713 64.3986C80.0671 64.2952 80.8318 64.4989 80.9133 64.7402C81.4209 66.2256 83.1351 66.7646 83.53 68.4005C83.7964 69.5067 85.5262 69.6164 86.3379 68.7076C86.6325 68.3785 86.786 67.9241 86.996 67.5418C87.9268 67.57 88.2088 68.1654 88.2903 68.8423C88.4908 70.5283 89.3746 71.738 90.6438 72.8254C91.8503 73.8564 93.0349 75.0316 92.2671 76.984C91.1922 77.7518 90.0483 78.3723 88.5316 78.366C86.6513 78.3597 85.3915 79.6289 85.0499 81.4497C85.9117 81.8445 86.2345 82.2237 87.1276 83.9066C86.2251 84.5271 85.1408 84.994 84.4607 85.8026C82.9534 87.5951 81.1358 89.3814 80.4056 91.4967C79.6315 93.7499 79.0612 95.7587 76.8048 96.9652C75.8553 97.4729 75.7111 98.5635 75.9242 99.6258C76.0778 100.387 76.2282 101.152 76.1029 102.048C75.8772 101.801 75.5419 101.588 75.4479 101.299C75.1439 100.384 75.2505 99.2247 74.0377 98.8894C72.5491 98.4789 71.0417 98.2281 69.6127 99.1119C69.3933 99.2466 69.2116 99.4347 69.033 99.5788C68.5221 99.4284 68.0897 99.2529 67.6384 99.1777C66.0464 98.9082 65.2849 99.4691 64.9966 101.045C64.796 102.152 64.5171 103.249 64.3573 104.361C64.1599 105.734 64.6205 106.674 65.7581 107.138C67.6917 107.924 68.5817 108.043 69.7537 106.809C70.1016 106.445 70.4808 106.11 70.8662 105.79C70.9289 105.737 71.1138 105.834 71.4742 105.912C71.4366 106.567 71.4993 107.285 71.3363 107.946C70.8788 109.776 70.8412 109.764 72.7403 110.309C72.9314 110.365 73.1069 110.466 73.5331 110.651C73.5331 111.19 73.5175 111.832 73.5363 112.471C73.5801 113.844 74.0878 114.389 75.4447 114.496C76.6607 114.59 77.8797 114.207 79.1082 114.931C79.525 115.179 80.6438 114.621 81.2016 114.151C82.6933 112.901 84.1286 112.769 85.7237 113.875C86.153 114.173 86.6419 114.477 87.1433 114.577C89.1865 114.978 91.1389 115.495 92.3548 117.404C93.7588 117.639 94.8964 118.432 96.0747 119.15C96.7579 119.566 97.4348 119.927 97.463 120.914C97.4849 121.741 98.0772 122.189 98.8606 122.384C99.6316 122.575 100.39 122.879 101.17 122.957C103.455 123.183 105.2 124.562 107.125 125.577C108.027 126.053 108.212 126.702 107.77 127.542C107.344 128.357 106.893 129.175 106.35 129.917C105.595 130.951 105.131 132.051 104.818 133.314C104.389 135.032 103.712 136.711 102.944 138.313C102.681 138.861 101.879 139.328 101.239 139.482C99.7632 139.83 98.7823 140.632 98.0615 141.939C97.0086 143.85 95.8208 145.69 94.7585 147.595C94.4169 148.209 94.1129 148.698 93.342 148.808C92.4959 148.93 91.9694 149.36 91.7782 150.328C91.6748 150.858 91.0512 151.606 90.5748 151.679C88.7792 151.951 88.2307 153.769 86.8205 154.499C86.5541 154.637 86.4727 155.502 86.5949 155.956C86.8832 157.025 86.7641 157.843 85.9054 158.639C85.1502 159.344 85.0718 160.284 85.755 161.152C86.1781 161.688 86.2408 162.199 85.8772 162.791C84.5266 165 84.934 166.95 86.7672 168.686C86.8989 168.808 86.9584 169.015 87.0305 169.19C87.0524 169.24 87.0148 169.319 87.0023 169.385C83.7055 169.736 81.236 167.652 81.3081 164.452C81.3583 162.139 81.5839 159.833 81.7343 157.523C81.7563 157.191 81.9036 156.831 81.8189 156.539C80.7597 152.957 82.5867 149.645 82.7654 146.182C82.9252 143.142 83.2417 140.115 83.4673 137.078C83.5864 135.47 82.9785 134.258 81.4805 133.518C80.18 132.876 79.3526 131.751 78.6507 130.522C77.8609 129.143 77.0618 127.768 76.3159 126.367C76.1405 126.041 76.0935 125.611 76.0935 125.232C76.0966 124.048 76.153 122.866 76.1843 121.682L76.1123 121.754L76.1279 121.735Z" fill="url(#paint6_linear_535_3073)"/>
</g>
</g>
<path fill-rule="evenodd" clip-rule="evenodd" d="M147.16 24.01L51.66 39.73C49.69 40.06 48.89 42.47 50.29 43.9L70.61 64.72C70.57 64.8 70.53 64.88 70.53 64.98L70.01 81.54C69.96 83.13 71.95 83.87 72.95 82.63L72.73 82.9L82.89 77.3L102.28 97.17C103.4 98.32 105.31 98.11 106.16 96.74L149.19 27.04C150.1 25.57 148.85 23.72 147.15 24L147.16 24.01Z" fill="black" fill-opacity="0.1"/>
<path fill-rule="evenodd" clip-rule="evenodd" d="M53.03 30.06L148.53 14.34C150.23 14.06 151.47 15.91 150.57 17.38L107.54 87.08C106.69 88.45 104.79 88.66 103.66 87.51L51.66 34.24C50.26 32.81 51.05 30.39 53.03 30.07V30.06Z" fill="url(#paint7_linear_535_3073)"/>
<path fill-rule="evenodd" clip-rule="evenodd" d="M146.06 17.1L72.2101 54.82C72.0301 54.91 71.9101 55.1 71.9101 55.3L71.3901 71.86C71.3401 73.45 73.3301 74.19 74.3301 72.95L81.1401 64.52C81.1401 64.52 81.2101 64.45 81.2501 64.42L146.64 18.05C147.2 17.65 146.68 16.79 146.07 17.1H146.06Z" fill="#D4D4D4"/>
<path fill-rule="evenodd" clip-rule="evenodd" d="M81.1801 64.47L74.1001 73.22L84.2701 67.63L81.1801 64.47Z" fill="#585858"/>
<mask id="mask4_535_3073" style="mask-type:luminance" maskUnits="userSpaceOnUse" x="41" y="0" width="102" height="65">
<path d="M143 20.62L81.24 64.42L41.55 23.51V0L143 0.07V20.62Z" fill="white"/>
</mask>
<g mask="url(#mask4_535_3073)">
<path fill-rule="evenodd" clip-rule="evenodd" d="M78.1199 51.8L81.6999 49.96L93.4799 55.74L86.1399 60.95C81.5999 58.4 78.7699 54.24 78.1199 51.8Z" fill="black" fill-opacity="0.1"/>
<path d="M98.98 57.93C114.173 57.93 126.49 45.6134 126.49 30.42C126.49 15.2267 114.173 2.91 98.98 2.91C83.7866 2.91 71.47 15.2267 71.47 30.42C71.47 45.6134 83.7866 57.93 98.98 57.93Z" fill="url(#paint8_linear_535_3073)" stroke="white" stroke-width="3" stroke-miterlimit="10"/>
<path d="M120.546 33.9255C122.478 22.0195 114.393 10.801 102.487 8.86836C90.5811 6.93573 79.3626 15.0208 77.43 26.9269C75.4974 38.8329 83.5824 50.0514 95.4885 51.984C107.395 53.9167 118.613 45.8316 120.546 33.9255Z" stroke="white" stroke-width="2" stroke-miterlimit="10" stroke-linecap="round" stroke-dasharray="1 5"/>
<path d="M108.4 41.62C107.03 43.02 105.19 43.95 102.88 44.39V46.2C102.88 46.96 102.64 47.58 102.16 48.05C101.68 48.52 101.06 48.75 100.3 48.75C99.54 48.75 98.92 48.52 98.44 48.05C97.96 47.58 97.72 46.97 97.72 46.2V44.54C94.99 44.2 92.65 43.4 90.71 42.14C90.27 41.87 89.95 41.56 89.77 41.22C89.59 40.88 89.49 40.42 89.49 39.85C89.49 39.11 89.7 38.47 90.14 37.93C90.57 37.39 91.08 37.12 91.67 37.12C91.96 37.12 92.26 37.17 92.56 37.27C92.85 37.37 93.24 37.55 93.7 37.82C94.78 38.41 95.79 38.83 96.73 39.08C97.66 39.33 98.66 39.45 99.72 39.45C101.02 39.45 102.01 39.23 102.69 38.8C103.37 38.37 103.71 37.72 103.71 36.86C103.71 36.34 103.51 35.92 103.1 35.59C102.69 35.26 102.19 34.99 101.59 34.8C100.99 34.6 100.11 34.36 98.95 34.06C97.1 33.59 95.59 33.12 94.41 32.64C93.23 32.16 92.21 31.41 91.35 30.39C90.49 29.37 90.06 28 90.06 26.27C90.06 24.3 90.75 22.59 92.13 21.14C93.51 19.69 95.33 18.73 97.59 18.26V16.41C97.59 15.67 97.84 15.06 98.33 14.58C98.82 14.1 99.44 13.86 100.18 13.86C100.92 13.86 101.56 14.09 102.04 14.56C102.52 15.03 102.76 15.64 102.76 16.41V18.14C104.8 18.46 106.8 19.24 108.74 20.47C109.18 20.77 109.5 21.09 109.68 21.45C109.86 21.81 109.96 22.24 109.96 22.76C109.96 23.5 109.74 24.14 109.3 24.68C108.86 25.22 108.34 25.49 107.75 25.49C107.46 25.49 107.17 25.44 106.9 25.34C106.63 25.24 106.23 25.06 105.72 24.79C105.55 24.69 105.17 24.49 104.58 24.18C103.99 23.87 103.36 23.63 102.68 23.44C102 23.26 101.28 23.16 100.52 23.16C99.41 23.16 98.51 23.4 97.83 23.88C97.14 24.36 96.8 25.01 96.8 25.82C96.8 26.63 97.19 27.2 97.98 27.59C98.77 27.98 100.01 28.38 101.71 28.77C103.53 29.19 105.03 29.63 106.2 30.1C107.37 30.57 108.38 31.32 109.23 32.35C110.08 33.38 110.5 34.77 110.5 36.52C110.5 38.51 109.82 40.21 108.45 41.61L108.4 41.62Z" fill="black" fill-opacity="0.1"/>
<path d="M107.24 40.77C105.87 42.17 104.03 43.1 101.72 43.54V45.35C101.72 46.11 101.48 46.73 101 47.2C100.52 47.67 99.9001 47.9 99.1401 47.9C98.3801 47.9 97.7601 47.67 97.2801 47.2C96.8001 46.73 96.5601 46.12 96.5601 45.35V43.69C93.8301 43.35 91.4901 42.55 89.5501 41.29C89.1101 41.02 88.7901 40.71 88.6101 40.37C88.4301 40.03 88.3301 39.57 88.3301 39C88.3301 38.26 88.5401 37.62 88.9801 37.08C89.4101 36.54 89.9201 36.27 90.5101 36.27C90.8001 36.27 91.1001 36.32 91.4001 36.42C91.6901 36.52 92.0801 36.7 92.5401 36.97C93.6201 37.56 94.6301 37.98 95.5701 38.23C96.5001 38.48 97.5001 38.6 98.5601 38.6C99.8601 38.6 100.85 38.38 101.53 37.95C102.21 37.52 102.55 36.87 102.55 36.01C102.55 35.49 102.35 35.07 101.94 34.74C101.53 34.41 101.03 34.14 100.43 33.95C99.8301 33.75 98.9501 33.51 97.7901 33.21C95.9401 32.74 94.4301 32.27 93.2501 31.79C92.0701 31.31 91.0501 30.56 90.1901 29.54C89.3301 28.52 88.9001 27.15 88.9001 25.42C88.9001 23.45 89.5901 21.74 90.9701 20.29C92.3501 18.84 94.1701 17.88 96.4301 17.41V15.56C96.4301 14.82 96.6801 14.21 97.1701 13.73C97.6601 13.25 98.2801 13.01 99.0201 13.01C99.7601 13.01 100.4 13.24 100.88 13.71C101.36 14.18 101.6 14.79 101.6 15.56V17.29C103.64 17.61 105.64 18.39 107.58 19.62C108.02 19.92 108.34 20.24 108.52 20.6C108.7 20.96 108.8 21.39 108.8 21.91C108.8 22.65 108.58 23.29 108.14 23.83C107.7 24.37 107.18 24.64 106.59 24.64C106.3 24.64 106.01 24.59 105.74 24.49C105.47 24.39 105.07 24.21 104.56 23.94C104.39 23.84 104.01 23.64 103.42 23.33C102.83 23.02 102.2 22.78 101.52 22.59C100.84 22.41 100.12 22.31 99.3601 22.31C98.2501 22.31 97.3501 22.55 96.6701 23.03C95.9801 23.51 95.6401 24.16 95.6401 24.97C95.6401 25.78 96.0301 26.35 96.8201 26.74C97.6101 27.13 98.8501 27.53 100.55 27.92C102.37 28.34 103.87 28.78 105.04 29.25C106.21 29.72 107.22 30.47 108.07 31.5C108.92 32.53 109.34 33.92 109.34 35.67C109.34 37.66 108.66 39.36 107.29 40.76L107.24 40.77Z" fill="white"/>
</g>
<mask id="mask5_535_3073" style="mask-type:luminance" maskUnits="userSpaceOnUse" x="82" y="29" width="48" height="30">
<path d="M82.47 54.69L129.08 29.91L129.19 30.42L89.22 58.76L82.47 54.69Z" fill="white"/>
</mask>
<g mask="url(#mask5_535_3073)">
<path d="M98.98 59.41C114.991 59.41 127.97 46.4307 127.97 30.42C127.97 14.4093 114.991 1.43 98.98 1.43C82.9693 1.43 69.99 14.4093 69.99 30.42C69.99 46.4307 82.9693 59.41 98.98 59.41Z" fill="black" fill-opacity="0.1"/>
</g>
<defs>
<filter id="filter0_i_535_3073" x="122" y="30" width="138.517" height="117.855" filterUnits="userSpaceOnUse" color-interpolation-filters="sRGB">
<feFlood flood-opacity="0" result="BackgroundImageFix"/>
<feBlend mode="normal" in="SourceGraphic" in2="BackgroundImageFix" result="shape"/>
<feColorMatrix in="SourceAlpha" type="matrix" values="0 0 0 0 0 0 0 0 0 0 0 0 0 0 0 0 0 0 127 0" result="hardAlpha"/>
<feOffset dx="1" dy="1"/>
<feComposite in2="hardAlpha" operator="arithmetic" k2="-1" k3="1"/>
<feColorMatrix type="matrix" values="0 0 0 0 1 0 0 0 0 1 0 0 0 0 1 0 0 0 0.25 0"/>
<feBlend mode="normal" in2="shape" result="effect1_innerShadow_535_3073"/>
</filter>
<filter id="filter1_i_535_3073" x="18.5249" y="48.2397" width="90.0264" height="121.423" filterUnits="userSpaceOnUse" color-interpolation-filters="sRGB">
<feFlood flood-opacity="0" result="BackgroundImageFix"/>
<feBlend mode="normal" in="SourceGraphic" in2="BackgroundImageFix" result="shape"/>
<feColorMatrix in="SourceAlpha" type="matrix" values="0 0 0 0 0 0 0 0 0 0 0 0 0 0 0 0 0 0 127 0" result="hardAlpha"/>
<feOffset dx="1" dy="1"/>
<feComposite in2="hardAlpha" operator="arithmetic" k2="-1" k3="1"/>
<feColorMatrix type="matrix" values="0 0 0 0 1 0 0 0 0 1 0 0 0 0 1 0 0 0 0.25 0"/>
<feBlend mode="normal" in2="shape" result="effect1_innerShadow_535_3073"/>
</filter>
<filter id="filter2_i_535_3073" x="210.805" y="130.942" width="26.5669" height="20.9488" filterUnits="userSpaceOnUse" color-interpolation-filters="sRGB">
<feFlood flood-opacity="0" result="BackgroundImageFix"/>
<feBlend mode="normal" in="SourceGraphic" in2="BackgroundImageFix" result="shape"/>
<feColorMatrix in="SourceAlpha" type="matrix" values="0 0 0 0 0 0 0 0 0 0 0 0 0 0 0 0 0 0 127 0" result="hardAlpha"/>
<feOffset dx="1" dy="1"/>
<feComposite in2="hardAlpha" operator="arithmetic" k2="-1" k3="1"/>
<feColorMatrix type="matrix" values="0 0 0 0 1 0 0 0 0 1 0 0 0 0 1 0 0 0 0.25 0"/>
<feBlend mode="normal" in2="shape" result="effect1_innerShadow_535_3073"/>
</filter>
<filter id="filter3_i_535_3073" x="19" y="48" width="90.0264" height="121.423" filterUnits="userSpaceOnUse" color-interpolation-filters="sRGB">
<feFlood flood-opacity="0" result="BackgroundImageFix"/>
<feBlend mode="normal" in="SourceGraphic" in2="BackgroundImageFix" result="shape"/>
<feColorMatrix in="SourceAlpha" type="matrix" values="0 0 0 0 0 0 0 0 0 0 0 0 0 0 0 0 0 0 127 0" result="hardAlpha"/>
<feOffset dx="1" dy="1"/>
<feComposite in2="hardAlpha" operator="arithmetic" k2="-1" k3="1"/>
<feColorMatrix type="matrix" values="0 0 0 0 1 0 0 0 0 1 0 0 0 0 1 0 0 0 0.25 0"/>
<feBlend mode="normal" in2="shape" result="effect1_innerShadow_535_3073"/>
</filter>
<filter id="filter4_i_535_3073" x="17.9736" y="48" width="90.0264" height="121.423" filterUnits="userSpaceOnUse" color-interpolation-filters="sRGB">
<feFlood flood-opacity="0" result="BackgroundImageFix"/>
<feBlend mode="normal" in="SourceGraphic" in2="BackgroundImageFix" result="shape"/>
<feColorMatrix in="SourceAlpha" type="matrix" values="0 0 0 0 0 0 0 0 0 0 0 0 0 0 0 0 0 0 127 0" result="hardAlpha"/>
<feOffset dx="1" dy="1"/>
<feComposite in2="hardAlpha" operator="arithmetic" k2="-1" k3="1"/>
<feColorMatrix type="matrix" values="0 0 0 0 1 0 0 0 0 1 0 0 0 0 1 0 0 0 0.25 0"/>
<feBlend mode="normal" in2="shape" result="effect1_innerShadow_535_3073"/>
</filter>
<linearGradient id="paint0_linear_535_3073" x1="191.259" y1="30" x2="191.259" y2="147.855" gradientUnits="userSpaceOnUse">
<stop stop-color="#CFF067"/>
<stop offset="1" stop-color="#91CF27"/>
</linearGradient>
<linearGradient id="paint1_linear_535_3073" x1="63.538" y1="48.2397" x2="63.538" y2="169.663" gradientUnits="userSpaceOnUse">
<stop stop-color="#CFF067"/>
<stop offset="1" stop-color="#91CF27"/>
</linearGradient>
<linearGradient id="paint2_linear_535_3073" x1="224.089" y1="130.942" x2="224.089" y2="151.891" gradientUnits="userSpaceOnUse">
<stop stop-color="#CFF067"/>
<stop offset="1" stop-color="#91CF27"/>
</linearGradient>
<linearGradient id="paint3_linear_535_3073" x1="64.0131" y1="48" x2="64.0131" y2="169.423" gradientUnits="userSpaceOnUse">
<stop stop-color="#CFF067"/>
<stop offset="1" stop-color="#91CF27"/>
</linearGradient>
<linearGradient id="paint4_linear_535_3073" x1="186.02" y1="112.32" x2="146.12" y2="178.91" gradientUnits="userSpaceOnUse">
<stop stop-color="white"/>
<stop offset="1" stop-color="#DDE5E3"/>
</linearGradient>
<linearGradient id="paint5_linear_535_3073" x1="158.95" y1="108.76" x2="199.58" y2="149.38" gradientUnits="userSpaceOnUse">
<stop stop-color="#CFCFCF"/>
<stop offset="1" stop-color="#8F8F8F"/>
</linearGradient>
<linearGradient id="paint6_linear_535_3073" x1="62.9868" y1="48" x2="62.9868" y2="169.423" gradientUnits="userSpaceOnUse">
<stop stop-color="#CFF067"/>
<stop offset="1" stop-color="#91CF27"/>
</linearGradient>
<linearGradient id="paint7_linear_535_3073" x1="93.61" y1="12.28" x2="133.51" y2="78.88" gradientUnits="userSpaceOnUse">
<stop stop-color="white"/>
<stop offset="1" stop-color="#DDE5E3"/>
</linearGradient>
<linearGradient id="paint8_linear_535_3073" x1="80.08" y1="11.52" x2="118.76" y2="50.2" gradientUnits="userSpaceOnUse">
<stop stop-color="#FFDE6B"/>
<stop offset="1" stop-color="#DE7601"/>
</linearGradient>
</defs>
</svg>