<svg xmlns="http://www.w3.org/2000/svg" width="280" height="200" viewBox="0 0 280 200" fill="none">
<path d="M143.5 8C95.1836 8 56 47.1699 56 95.5C56 143.83 95.1699 183 143.5 183C191.83 183 231 143.83 231 95.5C231 47.1699 191.83 8 143.5 8Z" fill="url(#paint0_radial_535_3220)"/>
<path d="M143.339 173.888C186.755 173.888 221.951 138.72 221.951 95.3372C221.951 51.9546 186.755 16.7861 143.339 16.7861C99.9225 16.7861 64.7266 51.9546 64.7266 95.3372C64.7266 138.72 99.9225 173.888 143.339 173.888Z" fill="url(#paint1_linear_535_3220)"/>
<path d="M79.7244 69.2501C79.7244 69.8884 78.7664 70.2075 78.6067 71.3244C78.447 72.4413 78.7664 72.4413 79.0857 73.3986C79.4051 74.356 78.6067 75.1538 78.2873 76.1234C77.968 77.093 77.1695 79.6459 77.3292 81.7201C77.4889 83.7944 77.6486 84.6044 78.2873 84.9235C78.926 85.2427 79.7245 80.7628 79.8841 80.1246C80.0438 79.4863 79.7244 77.0807 80.3632 76.4425C81.0019 75.8043 81.6406 76.4179 81.6406 78.3572C81.6406 80.591 81.0019 83.1561 81.0019 83.7944C81.0019 84.4326 80.5229 86.0282 80.5229 87.636C80.5229 89.2438 82.2793 91.6372 82.5987 92.5945C82.9181 93.5519 83.7165 95.0002 83.8762 95.9575C84.0358 96.9148 85.7923 99.1609 86.4433 99.7991C87.0943 100.437 91.5654 102.205 93.3219 102.524C95.0784 102.843 97.3262 104.758 97.4859 106.046C97.6333 107.188 98.2843 108.28 98.444 109.09C98.6037 109.9 100.274 111.643 101.969 112.613C104.205 113.889 104.18 115.522 104.536 116.933C105.015 118.848 107.583 118.848 108.381 119.007C109.179 119.167 110.297 118.688 111.747 119.805C111.747 119.805 111.108 123.806 110.31 124.604C109.511 125.402 109.032 126.04 108.553 127.648C108.074 129.256 108.553 129.563 108.393 130.213C108.234 130.864 108.713 130.851 108.872 131.968C109.032 133.085 108.074 133.245 108.393 134.202C108.713 135.159 110.15 135.638 111.12 135.798C112.091 135.957 112.717 137.393 112.877 138.363C113.036 139.332 114.633 139.958 115.604 140.928C116.574 141.898 118.49 145.248 118.969 145.887C119.448 146.525 122.015 146.684 124.251 147.003C126.486 147.323 125.688 150.207 125.688 151.483C125.688 152.76 126.965 153.558 127.445 155.644C127.924 157.731 127.445 158.209 126.965 159.007C126.486 159.805 127.604 161.732 128.403 162.53C129.201 163.327 129.52 164.935 129.999 166.212C130.392 167.243 130.872 168.274 131.215 169.55C135.551 170.336 140.01 170.753 144.567 170.753C144.666 170.753 144.776 170.753 144.874 170.753C144.801 169.378 144.481 166.175 145.046 165.892C145.685 165.573 147.122 165.573 147.773 164.776C148.424 163.978 148.572 162.21 148.891 161.732C149.21 161.253 152.097 159.326 152.576 158.528C153.055 157.731 153.374 155.644 153.534 154.527C153.694 153.41 158.816 150.685 160.093 149.728C161.371 148.771 160.572 148.292 160.732 147.813C160.892 147.335 161.051 145.739 161.371 144.77C161.69 143.8 160.413 142.204 160.413 141.566C160.413 140.928 161.051 139.971 162.009 139.492C162.967 139.013 164.896 138.056 164.896 135.81C164.896 134.497 166.37 134.705 166.652 133.576C167.451 130.373 163.447 127.66 160.892 127.979C160.032 128.09 160.093 126.543 158.975 126.384C157.858 126.224 156.9 126.543 156.249 125.905C155.598 125.267 155.77 124.469 154.652 124.469C153.534 124.469 152.895 124.31 151.446 123.352C149.996 122.395 148.24 120.468 147.761 119.351C147.282 118.234 146.483 118.075 144.874 118.234C143.265 118.394 141.828 118.553 140.551 117.596C139.273 116.639 138.315 115.362 137.025 115.362C135.736 115.362 134.458 113.607 134.299 112.637C134.139 111.668 132.702 111.84 131.572 111.84C130.442 111.84 129.005 111.68 128.366 111.361C127.727 111.042 126.609 110.563 125.479 111.201C124.349 111.84 123.563 111.042 122.752 110.563C121.942 110.084 120.517 110.563 119.866 110.882C119.215 111.201 117.95 112.159 116.82 112.956C115.69 113.754 116.021 115.031 114.584 116.639C113.147 118.246 112.668 117.117 111.857 118.075C110.739 117.596 111.378 116.798 111.059 116.16C110.739 115.522 110.58 115.681 109.622 116C108.664 116.319 108.185 115.522 107.865 115.043C107.546 114.564 107.067 113.607 106.747 112.809C106.428 112.011 106.428 111.692 107.546 110.894C108.664 110.097 108.344 108.17 108.344 107.532C108.344 106.893 107.226 106.574 105.937 106.893C104.647 107.212 103.37 105.936 102.89 105.457C102.411 104.979 100.974 102.573 100.655 101.456C100.336 100.339 100.974 99.701 101.294 99.3818C101.613 99.0627 101.613 97.148 101.773 96.4975C101.932 95.847 102.571 95.3806 103.21 94.902C103.849 94.4233 103.05 93.6255 101.773 93.6255C100.962 93.6255 99.0459 94.2637 97.2894 95.6998C95.5329 97.1358 93.9238 96.8167 92.9657 96.1784C92.0076 95.5402 91.3689 92.6559 90.7302 91.6986C90.0914 90.7412 91.8479 88.3356 92.1673 87.6974C92.4867 87.0591 92.1673 85.4636 92.1673 84.6535C92.1673 83.8435 93.2851 82.4197 93.4447 81.6097C93.6044 80.7996 95.6803 79.0445 96.3313 78.2467C96.9823 77.4489 99.2178 78.0871 99.8566 77.768C100.495 77.4489 100.495 76.8107 101.294 76.6511C102.092 76.4916 103.21 76.4916 103.37 77.2894C103.529 78.0871 104.807 78.4063 105.937 78.4063C107.067 78.4063 107.853 77.6085 108.344 77.1298C108.836 76.6511 110.911 76.4916 112.029 76.332C113.147 76.1725 113.945 77.6085 114.105 78.2467C114.265 78.8849 115.063 79.3636 115.542 80.0018C116.021 80.6401 115.542 81.2783 115.542 82.7266C115.542 84.1748 116.181 87.0469 118.269 86.7278C120.357 86.4086 119.387 81.6097 119.387 80.6523C119.387 79.695 122.433 77.768 123.231 76.332C124.03 74.896 122.593 73.1286 124.988 69.7779C125.823 68.6119 128.992 67.0532 129.791 66.7341C130.589 66.4149 132.997 64.0093 133.316 63.3711C133.635 62.7329 135.232 61.9351 137.161 60.9655C139.089 59.9959 137.799 58.4003 138.757 57.9216C139.715 57.4429 141.644 59.1981 141.963 59.8363C142.283 60.4745 143.879 60.4745 144.69 60.315C145.501 60.1554 146.766 59.8363 147.257 59.5172C147.749 59.1981 147.257 57.9216 146.459 57.2834C145.66 56.6452 145.66 55.5283 145.181 54.3991C144.702 53.2699 143.585 54.3991 142.946 55.0373C142.307 55.6755 142.307 55.8351 141.509 55.9947C140.71 56.1542 140.87 56.6329 140.072 57.1116C139.273 57.5902 139.273 57.1116 138.954 56.6329C138.635 56.1542 137.996 55.9947 137.197 55.8351C136.399 55.6755 135.601 55.1969 135.441 54.2395C135.281 53.2822 136.718 53.7609 137.848 53.4417C138.978 53.1226 138.647 52.4844 139.445 52.1653C140.244 51.8462 140.563 51.6866 140.882 52.3249C141.202 52.9631 141.84 53.2822 142.639 53.4417C143.437 53.6013 143.916 52.8035 144.555 52.3249C145.194 51.8462 145.353 51.5271 144.874 50.8888C144.395 50.2506 144.715 49.2933 145.034 48.8146C145.353 48.3359 145.992 47.8573 146.311 46.8999C146.631 45.9426 145.513 44.8257 145.353 44.1752C145.194 43.5247 144.236 42.1009 143.437 41.61C142.639 41.1191 142.479 40.174 142.319 39.0448C142.16 37.9156 141.202 38.8853 140.563 39.3639C139.924 39.8426 140.403 40.1617 139.765 40.7999C139.126 41.4382 139.126 40.1617 138.966 39.3639C138.806 38.5661 138.327 38.0875 137.689 37.4492C137.05 36.811 135.122 34.8841 134.004 34.4054C132.886 33.9267 131.768 34.8841 131.596 35.5223C131.424 36.1605 132.075 37.437 131.756 38.247C131.437 39.0571 130.159 39.3639 129.68 40.0022C129.201 40.6404 128.722 43.3651 128.403 44.0034C128.083 44.6416 126.965 45.7585 126.486 46.409C126.007 47.0595 125.369 49.1337 125.049 49.9315C124.73 50.7293 122.322 50.0911 122.163 49.1337C122.028 48.3482 123.121 47.219 123.121 46.2494C123.121 45.2798 120.357 41.7205 120.234 40.6527C120.075 39.2166 120.234 37.1301 121.033 36.0132C121.831 34.8963 123.109 35.2155 124.398 35.375C125.688 35.5346 126.314 35.375 126.806 35.0559C127.297 34.7368 128.083 34.7368 129.041 34.7368C129.999 34.7368 129.041 32.503 128.562 31.8525C128.083 31.202 127.285 31.3738 126.486 31.8525C125.688 32.3312 125.209 32.6503 124.251 32.1716C123.293 31.6929 124.251 30.4165 125.209 30.0974C126.167 29.7782 127.617 28.3422 128.096 27.5322C128.575 26.7221 129.213 27.3726 129.373 27.8513C129.533 28.33 130.171 28.6491 130.65 29.1277C131.129 29.6064 131.129 30.2446 130.97 31.0424C130.81 31.8402 130.331 32.7976 130.97 33.2762C131.609 33.7549 132.247 32.7976 133.046 32.1593C133.844 31.5211 134.962 32.3189 135.613 33.5953C136.264 34.8718 137.529 33.9145 138.02 33.1167C138.512 32.3189 135.551 29.4837 134.974 28.6368C134.335 27.6795 134.814 25.5929 134.016 24.3165C133.819 23.9974 133.672 23.6292 133.525 23.3101C131.658 23.5924 129.815 23.936 127.997 24.3533C127.96 24.8074 127.911 25.372 127.617 26.0716C127.137 27.1885 125.553 26.7221 124.275 25.2984C117.569 27.2008 111.243 30.0237 105.458 33.6199C104.291 35.3014 102.276 37.1915 101.834 37.7438C101.195 38.5416 100.397 38.382 99.5986 39.3394C98.8002 40.2967 99.1073 41.6468 98.3212 42.7023C97.3631 43.9788 96.5647 44.2979 94.6362 46.2249C92.8552 48.0045 90.8039 48.2746 88.2121 48.4341C86.0011 51.0116 83.9621 53.7486 82.1197 56.6083C81.8494 59.4804 80.0192 63.9234 79.5893 64.7826C79.1103 65.7399 79.749 68.6242 79.749 69.2624L79.7244 69.2501Z" fill="black" fill-opacity="0.1"/>
<path d="M138.327 24.9302C138.966 25.728 141.214 28.4527 142.332 28.4527C143.45 28.4527 145.059 29.5696 145.538 31.8157C146.017 34.0617 147.724 39.8303 150.34 38.8607C151.618 38.382 151.139 37.4247 151.139 36.4551C151.139 35.4855 151.618 34.7 151.778 34.2213C151.937 33.7426 151.458 32.7853 151.618 32.4662C151.778 32.1471 152.257 30.5515 152.736 30.0605C153.215 29.5696 153.374 29.2628 153.215 28.6245C153.055 27.9863 152.895 27.8267 152.895 27.5076C152.895 27.1885 153.055 26.3907 152.895 26.0716C152.736 25.7525 152.257 25.4334 152.097 25.1143C151.937 24.7952 151.937 24.1569 151.618 23.6783C151.298 23.1996 149.861 23.04 149.382 22.7209C149.345 22.6964 149.296 22.6718 149.247 22.6473C147.7 22.5491 146.152 22.5 144.58 22.5C142.848 22.5 141.14 22.5614 139.433 22.6718C138.475 23.4205 137.873 24.3901 138.34 24.9547L138.327 24.9302Z" fill="black" fill-opacity="0.1"/>
<path d="M166.88 30.597C167.199 31.7139 167.998 33.0026 167.998 33.6409C167.998 34.2791 167.838 35.7151 167.998 36.6847C168.157 37.6543 168.317 37.8016 168.477 38.4398C168.636 39.0781 168.956 41.3241 169.914 41.4837C170.872 41.6432 171.99 41.3241 172.321 41.005C172.653 40.6859 172.321 39.569 172.641 39.0903C172.96 38.6117 174.397 39.0903 174.716 39.569C175.036 40.0477 176.473 41.9746 177.124 42.1342C177.775 42.2937 179.2 42.4533 178.88 40.6982C178.561 38.943 177.284 38.2925 176.805 37.8139C176.326 37.3352 175.208 36.3779 175.048 35.5801C174.888 34.7823 174.09 33.9845 173.93 33.6654C174.09 32.3889 174.25 29.6642 175.367 30.1429C176.485 30.6215 177.603 32.8676 178.414 33.6654C179.224 34.4632 182.578 36.2306 183.057 36.8688C183.536 37.507 186.263 39.5935 185.464 40.87C184.666 42.1465 184.027 42.9442 183.548 43.4352C183.069 43.9261 182.75 45.1903 182.271 45.1903C181.792 45.1903 179.544 44.7116 178.586 44.8712C177.628 45.0308 176.669 46.1477 176.178 46.1477C175.687 46.1477 174.581 45.8285 174.262 46.3072C173.943 46.7859 174.102 48.7128 174.262 49.3511C174.422 49.9893 174.741 53.3523 173.464 52.8736C172.186 52.3949 171.547 51.5971 170.896 50.9589C170.245 50.3207 168.17 49.2038 167.85 48.7251C167.531 48.2464 166.413 47.4487 166.094 46.8104C165.774 46.1722 164.177 45.0553 164.018 46.4913C163.858 47.9273 164.816 50.0138 165.136 50.333C165.455 50.6521 165.934 51.2903 166.094 51.9285C166.253 52.5667 166.732 54.3341 166.892 54.8128C167.052 55.2915 167.371 56.4084 168.17 56.0893C168.968 55.7702 169.128 55.1319 169.607 55.2915C170.086 55.451 170.724 55.9297 171.203 56.4084C171.683 56.8871 172.321 57.6848 173.439 57.6848C174.557 57.6848 175.195 58.1635 175.355 58.9613C175.515 59.7591 175.355 61.3669 173.758 61.5265C172.162 61.686 171.031 61.2074 169.754 61.8456C168.477 62.4838 167.678 63.2816 168.317 65.2086C168.956 67.1355 169.275 68.0929 169.435 68.8906C169.594 69.6884 169.594 71.9345 169.754 72.5727C169.914 73.2109 170.073 74.3278 171.67 73.8492C173.267 73.3705 173.906 73.2109 175.036 72.7323C176.166 72.2536 176.633 71.7749 177.271 70.658C177.91 69.5411 178.229 69.0625 178.549 68.5838C178.868 68.1051 179.028 67.786 178.708 66.9882C178.389 66.1904 178.07 65.5522 178.708 64.914C179.347 64.2758 179.826 64.4353 179.986 63.478C180.146 62.5206 179.507 62.5206 180.625 61.5633C181.742 60.606 183.032 60.4464 183.831 61.0846C184.629 61.7229 185.747 63.1589 186.557 63.1589C187.368 63.1589 189.125 63.7971 189.444 64.5949C189.763 65.3927 190.562 67.3196 191.52 67.0005C192.478 66.6814 192.638 64.7667 192.638 64.1162C192.638 63.4657 192.159 61.3915 191.679 60.9128C191.2 60.4341 190.881 60.5937 190.242 60.2746C189.604 59.9555 188.007 59.9555 187.515 59.3172C187.024 58.679 186.238 58.5194 186.398 57.4025C186.557 56.2856 186.557 55.807 187.356 55.4879C188.154 55.1687 188.474 54.8496 189.272 55.4879C190.07 56.1261 192.318 57.8935 192.797 58.2126C193.276 58.5317 193.915 58.6913 194.234 60.4464C194.554 62.2015 196.31 62.6802 197.281 62.852C198.251 63.0239 199.516 62.3734 199.688 61.0969C199.86 59.8204 200.007 59.0227 199.209 58.2126C198.411 57.4025 196.802 57.4148 196.482 56.9361C196.163 56.4575 195.205 54.5305 194.885 54.0519C194.566 53.5732 193.448 52.4563 194.087 51.8181C194.726 51.1798 195.843 51.4989 196.323 51.0203C196.802 50.5416 197.121 48.6146 198.079 48.2955C199.037 47.9764 200.155 49.8911 200.487 50.3698C200.818 50.8484 202.083 52.1249 201.604 54.0519C201.125 55.9788 201.285 55.807 200.806 56.1261C200.327 56.4452 199.688 56.6048 200.007 58.2003C200.327 59.7959 200.646 61.2442 201.125 61.8824C201.604 62.5206 202.403 63.1589 202.403 63.9566C202.403 64.7544 202.403 66.0309 203.52 66.0309C204.638 66.0309 204.319 65.5522 204.638 64.914C204.958 64.2758 204.319 63.9566 205.117 63.3184C205.916 62.6802 206.395 62.6802 206.554 63.1589C206.714 63.6375 206.874 64.2758 206.554 65.0735C206.235 65.8713 205.756 66.8287 205.916 67.3073C206.075 67.786 205.916 69.222 204.958 68.9029C204 68.5838 202.882 68.4242 201.911 68.2647C200.941 68.1051 199.344 67.786 198.067 69.5411C196.789 71.2963 197.428 72.1063 196.47 72.4254C195.512 72.7445 195.352 73.2232 194.394 73.3828C193.436 73.5423 192.797 73.7019 191.667 73.5423C190.537 73.3828 190.39 72.9041 189.911 72.4254C189.432 71.9468 188.633 71.3085 188.474 70.6703C188.314 70.0321 187.675 69.2343 186.877 68.5961C186.078 67.9578 185.44 67.7983 184.801 68.5961C184.162 69.3939 184.322 69.8725 182.885 70.3512C181.448 70.8299 179.519 70.9894 178.88 71.4681C178.242 71.9468 176.473 74.5119 175.036 75.1502C173.599 75.7884 171.99 76.5862 171.191 77.5558C170.393 78.5254 171.031 78.5131 170.552 78.9918C170.073 79.4705 169.115 79.4705 168.636 80.4278C168.157 81.3852 168.477 83.6312 168.317 84.2695C168.157 84.9077 167.359 87.4729 167.359 88.1111C167.359 88.7493 167.998 90.8358 167.838 91.4741C167.678 92.1123 165.922 94.6775 166.401 96.273C166.88 97.8686 170.528 100.458 171.044 101.072C171.842 102.029 174.729 104.914 175.367 105.711C176.006 106.509 176.006 108.117 179.691 106.988C183.376 105.859 184.174 106.35 184.973 106.509C185.771 106.669 189.137 106.509 190.893 106.35C192.65 106.19 194.738 106.509 195.217 107.307C195.696 108.105 195.377 111.627 195.536 112.744C195.696 113.861 196.335 116.745 197.293 118.022C198.251 119.298 199.049 122.023 198.89 122.661C198.73 123.3 196.654 128.737 196.654 129.866C196.654 130.995 198.521 132.91 199.062 135.782C199.541 138.347 198.742 139.464 198.423 140.581C198.214 141.305 198.14 142.373 198.116 143.207C209.318 130.222 216.098 113.309 216.098 94.8248C216.098 62.447 195.328 34.9296 166.376 24.8161C166.499 25.3562 166.56 25.8962 166.56 26.3503C166.56 27.1481 166.56 29.5537 166.88 30.6706V30.597Z" fill="black" fill-opacity="0.1"/>
<g filter="url(#filter0_i_535_3220)">
<path d="M78.4962 67.9793C78.4962 68.6175 77.5381 68.9366 77.3784 70.0535C77.2187 71.1704 77.5381 71.1704 77.8575 72.1278C78.1768 73.0851 77.3784 73.8829 77.059 74.8525C76.7397 75.8221 75.9413 78.3751 76.101 80.4493C76.2606 82.5235 76.4203 83.3336 77.059 83.6527C77.6978 83.9718 78.4962 79.4919 78.6559 78.8537C78.8155 78.2155 78.4962 75.8099 79.1349 75.1716C79.7736 74.5334 80.4123 75.1471 80.4123 77.0863C80.4123 79.3201 79.7736 81.8853 79.7736 82.5235C79.7736 83.1618 79.2946 84.7573 79.2946 86.3652C79.2946 87.973 81.0511 90.3664 81.3704 91.3237C81.6898 92.281 82.4882 93.7293 82.6479 94.6867C82.8076 95.644 84.5641 97.8901 85.2151 98.5283C85.8661 99.1665 90.3371 100.934 92.0936 101.253C93.8501 101.572 96.0979 103.487 96.2576 104.776C96.405 105.917 97.056 107.009 97.2157 107.819C97.3754 108.629 99.0459 110.372 100.741 111.342C102.977 112.618 102.952 114.251 103.308 115.662C103.787 117.577 106.354 117.577 107.153 117.736C107.951 117.896 109.069 117.417 110.518 118.534C111 118.905 112 117 110.629 116.804C109.511 116.325 110.15 115.527 109.831 114.889C109.511 114.251 109.351 114.41 108.393 114.729C107.435 115.049 106.956 114.251 106.637 113.772C106.318 113.293 105.838 112.336 105.519 111.538C105.2 110.741 105.2 110.421 106.318 109.624C107.435 108.826 107.116 106.899 107.116 106.261C107.116 105.622 105.998 105.303 104.708 105.622C103.419 105.942 102.141 104.665 101.662 104.186C101.183 103.708 99.7461 101.302 99.4267 100.185C99.1073 99.0683 99.746 98.4301 100.065 98.111C100.385 97.7919 100.385 95.8772 100.544 95.2267C100.704 94.5762 101.343 94.1098 101.982 93.6311C102.62 93.1525 101.822 92.3547 100.544 92.3547C99.7338 92.3547 97.8176 92.9929 96.0611 94.4289C94.3046 95.8649 92.6955 95.5458 91.7374 94.9076C90.7793 94.2694 90.1406 91.3851 89.5019 90.4277C88.8632 89.4704 90.6197 87.0648 90.939 86.4265C91.2584 85.7883 90.939 84.1927 90.939 83.3827C90.939 82.5726 92.0568 81.1489 92.2165 80.3388C92.3762 79.5288 94.452 77.7736 95.103 76.9759C95.754 76.1781 97.9896 76.8163 98.6283 76.4972C99.267 76.1781 99.267 75.5398 100.065 75.3803C100.864 75.2207 101.982 75.2207 102.141 76.0185C102.301 76.8163 103.578 77.1354 104.708 77.1354C105.838 77.1354 106.625 76.3376 107.116 75.859C107.607 75.3803 109.683 75.2207 110.801 75.0612C111.919 74.9016 112.717 76.3376 112.877 76.9759C113.036 77.6141 113.835 78.0928 114.314 78.731C114.793 79.3692 114.314 80.0074 114.314 81.4557C114.314 82.904 114.953 85.776 117.041 85.4569C119.129 85.1378 118.159 80.3388 118.159 79.3815C118.159 78.4241 121.205 76.4972 122.003 75.0612C122.802 73.6252 121.364 71.8578 123.76 68.5071C124.595 67.3411 127.764 65.7823 128.562 65.4632C129.361 65.1441 131.768 62.7385 132.088 62.1003C132.407 61.462 134.004 60.6642 135.932 59.6946C137.861 58.725 136.571 57.1294 137.529 56.6508C138.487 56.1721 140.416 57.9272 140.735 58.5655C141.054 59.2037 142.651 59.2037 143.462 59.0441C144.273 58.8846 145.538 58.5655 146.029 58.2463C146.52 57.9272 146.029 56.6508 145.231 56.0125C144.432 55.3743 144.432 54.2574 143.953 53.1282C143.474 51.9991 142.356 53.1283 141.718 53.7665C141.079 54.4047 141.079 54.5643 140.28 54.7238C139.482 54.8834 139.642 55.362 138.843 55.8407C138.045 56.3194 138.045 55.8407 137.726 55.362C137.406 54.8834 136.768 54.7238 135.969 54.5643C135.171 54.4047 134.372 53.926 134.213 52.9687C134.053 52.0114 135.49 52.49 136.62 52.1709C137.75 51.8518 137.419 51.2136 138.217 50.8945C139.015 50.5753 139.335 50.4158 139.654 51.054C139.973 51.6922 140.612 52.0114 141.411 52.1709C142.209 52.3305 142.688 51.5327 143.327 51.054C143.965 50.5753 144.125 50.2562 143.646 49.618C143.167 48.9798 143.486 48.0224 143.806 47.5438C144.125 47.0651 144.764 46.5864 145.083 45.6291C145.403 44.6717 144.285 43.5548 144.125 42.9043C143.965 42.2538 143.007 40.8301 142.209 40.3392C141.411 39.8482 141.251 38.9031 141.091 37.774C140.931 36.6448 139.973 37.6144 139.335 38.0931C138.696 38.5718 139.175 38.8909 138.536 39.5291C137.898 40.1673 137.898 38.8909 137.738 38.0931C137.578 37.2953 137.099 36.8166 136.46 36.1784C135.822 35.5402 133.893 33.6132 132.775 33.1346C131.658 32.6559 130.54 33.6132 130.368 34.2514C130.196 34.8897 130.847 36.1661 130.528 36.9762C130.208 37.7862 128.931 38.0931 128.452 38.7313C127.973 39.3695 127.494 42.0943 127.174 42.7325C126.855 43.3707 125.737 44.4876 125.258 45.1381C124.779 45.7886 124.14 47.8629 123.821 48.6607C123.502 49.4584 121.094 48.8202 120.935 47.8629C120.799 47.0774 121.893 45.9482 121.893 44.9786C121.893 44.009 119.129 40.4496 119.006 39.3818C118.846 37.9458 119.006 35.8593 119.804 34.7424C120.603 33.6255 121.88 33.9446 123.17 34.1042C124.46 34.2637 125.086 34.1042 125.578 33.7851C126.069 33.4659 126.855 33.4659 127.813 33.4659C128.771 33.4659 127.813 31.2321 127.334 30.5816C126.855 29.9311 126.057 30.103 125.258 30.5816C124.46 31.0603 123.981 31.3794 123.023 30.9008C122.065 30.4221 123.023 29.1456 123.981 28.8265C124.939 28.5074 126.388 27.0714 126.867 26.2613C127.346 25.4513 127.985 26.1018 128.145 26.5804C128.304 27.0591 128.943 27.3782 129.422 27.8569C129.901 28.3356 129.901 28.9738 129.742 29.7716C129.582 30.5694 129.103 31.5267 129.742 32.0054C130.38 32.4841 131.019 31.5267 131.817 30.8885C132.616 30.2503 133.734 31.048 134.385 32.3245C135.036 33.6009 136.301 32.6436 136.792 31.8458C137.283 31.048 134.323 28.2128 133.746 27.366C133.107 26.4086 133.586 24.3221 132.788 23.0457C132.591 22.7265 132.444 22.3583 132.296 22.0392C130.429 22.3215 128.587 22.6652 126.769 23.0825C126.732 23.5366 126.683 24.1012 126.388 24.8008C125.909 25.9177 124.325 25.4513 123.047 24.0275C116.341 25.9299 110.015 28.7529 104.229 32.349C103.063 34.0305 101.048 35.9207 100.606 36.473C99.9671 37.2708 99.1687 37.1112 98.3703 38.0685C97.5719 39.0259 97.879 40.376 97.0929 41.4315C96.1348 42.708 95.3364 43.0271 93.4079 44.954C91.6269 46.7337 89.5756 47.0037 86.9838 47.1633C84.7729 49.7407 82.7339 52.4778 80.8914 55.3375C80.6212 58.2095 78.791 62.6526 78.3611 63.5117C77.882 64.4691 78.5207 67.3534 78.5207 67.9916L78.4962 67.9793Z" fill="url(#paint2_linear_535_3220)"/>
</g>
<g filter="url(#filter1_i_535_3220)">
<path d="M110.518 118.534C110.518 118.534 109.88 122.535 109.081 123.333C108.283 124.131 107.804 124.769 107.325 126.377C106.846 127.985 107.325 128.292 107.165 128.942C107.005 129.593 107.484 129.581 107.644 130.697C107.804 131.814 106.846 131.974 107.165 132.931C107.484 133.889 108.922 134.367 109.892 134.527C110.862 134.686 111.489 136.122 111.648 137.092C111.808 138.062 113.405 138.688 114.375 139.657C115.346 140.627 117.262 143.977 117.741 144.616C118.22 145.254 120.787 145.413 123.023 145.733C125.258 146.052 124.46 148.936 124.46 150.212C124.46 151.489 125.737 152.287 126.216 154.373C126.695 156.46 126.216 156.938 125.737 157.736C125.258 158.534 126.376 160.461 127.174 161.259C127.973 162.056 128.292 163.664 128.771 164.941C129.164 165.972 129.643 167.003 129.987 168.279C134.323 169.065 138.782 169.482 143.339 169.482C143.437 169.482 143.548 169.482 143.646 169.482C143.572 168.107 143.253 164.904 143.818 164.622C144.457 164.303 145.894 164.303 146.545 163.505C147.196 162.707 147.343 160.94 147.663 160.461C147.982 159.982 150.869 158.055 151.348 157.257C151.827 156.46 152.146 154.373 152.306 153.256C152.465 152.139 157.587 149.415 158.865 148.457C160.142 147.5 159.344 147.021 159.504 146.543C159.663 146.064 159.823 144.468 160.142 143.499C160.462 142.529 159.184 140.934 159.184 140.295C159.184 139.657 159.823 138.7 160.781 138.221C161.739 137.742 163.668 136.785 163.668 134.539C163.668 133.226 165.142 133.434 165.424 132.305C166.222 129.102 162.218 126.389 159.663 126.708C158.803 126.819 158.865 125.272 157.747 125.113C156.629 124.953 155.671 125.272 155.02 124.634C154.369 123.996 154.541 123.198 153.423 123.198C152.306 123.198 151.667 123.039 150.217 122.081C148.768 121.124 147.012 119.197 146.533 118.08C146.054 116.963 145.255 116.804 143.646 116.963C142.037 117.123 140.6 117.282 139.322 116.325C138.045 115.368 137.087 114.091 135.797 114.091C134.507 114.091 133.23 112.336 133.07 111.366C132.911 110.397 131.473 110.569 130.343 110.569C129.213 110.569 127.776 110.409 127.137 110.09C126.499 109.771 125.381 109.292 124.251 109.93C123.121 110.569 122.335 109.771 121.524 109.292C120.713 108.814 119.289 109.292 118.638 109.611C117.986 109.93 116.721 110.888 115.591 111.686C114.461 112.483 114.793 113.76 113.356 115.368C111.919 116.976 111.44 115.846 110.629 116.804C110.629 117.187 110.5 117.5 110.518 118.534Z" fill="url(#paint3_linear_535_3220)"/>
</g>
<g filter="url(#filter2_i_535_3220)">
<path d="M137.099 23.6593C137.738 24.4571 139.986 27.1819 141.104 27.1819C142.221 27.1819 143.83 28.2988 144.309 30.5448C144.788 32.7909 146.496 38.5595 149.112 37.5899C150.39 37.1112 149.911 36.1539 149.911 35.1842C149.911 34.2146 150.39 33.4291 150.549 32.9504C150.709 32.4718 150.23 31.5144 150.39 31.1953C150.549 30.8762 151.028 29.2806 151.507 28.7897C151.986 28.2988 152.146 27.9919 151.986 27.3537C151.827 26.7155 151.667 26.5559 151.667 26.2368C151.667 25.9177 151.827 25.1199 151.667 24.8008C151.507 24.4817 151.028 24.1625 150.869 23.8434C150.709 23.5243 150.709 22.8861 150.39 22.4074C150.07 21.9288 148.633 21.7692 148.154 21.4501C148.117 21.4255 148.068 21.401 148.019 21.3764C146.471 21.2783 144.924 21.2292 143.351 21.2292C141.619 21.2292 139.912 21.2905 138.205 21.401C137.247 22.1497 136.645 23.1193 137.111 23.6839L137.099 23.6593Z" fill="url(#paint4_linear_535_3220)"/>
</g>
<g filter="url(#filter3_i_535_3220)">
<path d="M168.323 31.183C168.642 32.2999 169.441 33.5887 169.441 34.2269C169.441 34.8651 169.281 36.3011 169.441 37.2707C169.6 38.2404 169.76 38.3876 169.92 39.0259C170.079 39.6641 170.399 41.9102 171.357 42.0697C172.315 42.2293 173.433 41.9102 173.764 41.5911C174.096 41.2719 173.764 40.155 174.084 39.6764C174.403 39.1977 175.84 39.6764 176.16 40.155C176.479 40.6337 177.916 42.5607 178.567 42.7202C179.218 42.8798 180.643 43.0393 180.324 41.2842C180.004 39.5291 178.727 38.8786 178.248 38.3999C177.769 37.9212 176.651 36.9639 176.491 36.1661C176.332 35.3683 175.533 34.5706 175.373 34.2514C175.533 32.975 175.693 30.2502 176.811 30.7289C177.928 31.2076 179.046 33.4537 179.857 34.2514C180.667 35.0492 184.021 36.8166 184.5 37.4549C184.979 38.0931 187.706 40.1796 186.907 41.456C186.109 42.7325 185.47 43.5303 184.991 44.0212C184.512 44.5122 184.193 45.7764 183.714 45.7764C183.235 45.7764 180.987 45.2977 180.029 45.4572C179.071 45.6168 178.113 46.7337 177.621 46.7337C177.13 46.7337 176.024 46.4146 175.705 46.8933C175.386 47.3719 175.545 49.2989 175.705 49.9371C175.865 50.5753 176.184 53.9383 174.907 53.4596C173.629 52.981 172.991 52.1832 172.339 51.5449C171.688 50.9067 169.613 49.7898 169.293 49.3112C168.974 48.8325 167.856 48.0347 167.537 47.3965C167.217 46.7582 165.621 45.6413 165.461 47.0774C165.301 48.5134 166.259 50.5999 166.579 50.919C166.898 51.2381 167.377 51.8763 167.537 52.5146C167.696 53.1528 168.175 54.9202 168.335 55.3989C168.495 55.8775 168.814 56.9944 169.613 56.6753C170.411 56.3562 170.571 55.718 171.05 55.8775C171.529 56.0371 172.168 56.5158 172.647 56.9944C173.126 57.4731 173.764 58.2709 174.882 58.2709C176 58.2709 176.639 58.7496 176.798 59.5473C176.958 60.3451 176.798 61.953 175.201 62.1125C173.605 62.2721 172.475 61.7934 171.197 62.4316C169.92 63.0699 169.121 63.8676 169.76 65.7946C170.399 67.7216 170.718 68.6789 170.878 69.4767C171.037 70.2745 171.037 72.5205 171.197 73.1588C171.357 73.797 171.517 74.9139 173.113 74.4352C174.71 73.9565 175.349 73.797 176.479 73.3183C177.609 72.8396 178.076 72.361 178.714 71.2441C179.353 70.1272 179.673 69.6485 179.992 69.1698C180.311 68.6912 180.471 68.3721 180.152 67.5743C179.832 66.7765 179.513 66.1383 180.152 65.5C180.79 64.8618 181.269 65.0214 181.429 64.064C181.589 63.1067 180.95 63.1067 182.068 62.1493C183.186 61.192 184.475 61.0324 185.274 61.6707C186.072 62.3089 187.19 63.7449 188.001 63.7449C188.811 63.7449 190.568 64.3831 190.887 65.1809C191.206 65.9787 192.005 67.9057 192.963 67.5865C193.921 67.2674 194.081 65.3528 194.081 64.7023C194.081 64.0518 193.602 61.9775 193.123 61.4988C192.644 61.0202 192.324 61.1797 191.685 60.8606C191.047 60.5415 189.45 60.5415 188.959 59.9033C188.467 59.265 187.681 59.1055 187.841 57.9886C188.001 56.8717 188.001 56.393 188.799 56.0739C189.597 55.7548 189.917 55.4357 190.715 56.0739C191.514 56.7121 193.761 58.4795 194.24 58.7986C194.719 59.1178 195.358 59.2773 195.677 61.0324C195.997 62.7876 197.753 63.2662 198.724 63.4381C199.694 63.6099 200.959 62.9594 201.131 61.6829C201.303 60.4065 201.451 59.6087 200.652 58.7986C199.854 57.9886 198.245 58.0009 197.925 57.5222C197.606 57.0435 196.648 55.1166 196.329 54.6379C196.009 54.1592 194.891 53.0423 195.53 52.4041C196.169 51.7659 197.287 52.085 197.766 51.6063C198.245 51.1276 198.564 49.2007 199.522 48.8816C200.48 48.5625 201.598 50.4771 201.93 50.9558C202.261 51.4345 203.526 52.7109 203.047 54.6379C202.568 56.5649 202.728 56.393 202.249 56.7121C201.77 57.0312 201.131 57.1908 201.451 58.7864C201.77 60.3819 202.089 61.8302 202.568 62.4685C203.047 63.1067 203.846 63.7449 203.846 64.5427C203.846 65.3405 203.846 66.6169 204.964 66.6169C206.081 66.6169 205.762 66.1383 206.081 65.5C206.401 64.8618 205.762 64.5427 206.56 63.9045C207.359 63.2662 207.838 63.2662 207.998 63.7449C208.157 64.2236 208.317 64.8618 207.998 65.6596C207.678 66.4574 207.199 67.4147 207.359 67.8934C207.518 68.3721 207.359 69.8081 206.401 69.489C205.443 69.1698 204.325 69.0103 203.354 68.8507C202.384 68.6912 200.787 68.3721 199.51 70.1272C198.232 71.8823 198.871 72.6924 197.913 73.0115C196.955 73.3306 196.795 73.8093 195.837 73.9688C194.879 74.1284 194.24 74.2879 193.11 74.1284C191.98 73.9688 191.833 73.4902 191.354 73.0115C190.875 72.5328 190.076 71.8946 189.917 71.2564C189.757 70.6181 189.118 69.8203 188.32 69.1821C187.521 68.5439 186.883 68.3843 186.244 69.1821C185.605 69.9799 185.765 70.4586 184.328 70.9372C182.891 71.4159 180.962 71.5755 180.324 72.0541C179.685 72.5328 177.916 75.098 176.479 75.7362C175.042 76.3744 173.433 77.1722 172.634 78.1418C171.836 79.1115 172.475 79.0992 171.996 79.5779C171.517 80.0565 170.558 80.0565 170.079 81.0139C169.6 81.9712 169.92 84.2173 169.76 84.8555C169.6 85.4937 168.802 88.0589 168.802 88.6971C168.802 89.3354 169.441 91.4219 169.281 92.0601C169.121 92.6983 167.365 95.2635 167.844 96.8591C168.323 98.4547 171.971 101.044 172.487 101.658C173.285 102.615 176.172 105.5 176.811 106.297C177.449 107.095 177.449 108.703 181.134 107.574C184.819 106.445 185.618 106.936 186.416 107.095C187.214 107.255 190.58 107.095 192.336 106.936C194.093 106.776 196.181 107.095 196.66 107.893C197.139 108.691 196.82 112.213 196.98 113.33C197.139 114.447 197.778 117.331 198.736 118.608C199.694 119.884 200.493 122.609 200.333 123.247C200.173 123.886 198.097 129.323 198.097 130.452C198.097 131.581 199.964 133.496 200.505 136.368C200.984 138.933 200.185 140.05 199.866 141.167C199.657 141.891 199.584 142.959 199.559 143.793C210.761 130.808 217.542 113.895 217.542 95.4108C217.542 63.033 196.771 35.5156 167.819 25.4022C167.942 25.9422 168.004 26.4823 168.004 26.9364C168.004 27.7342 168.004 30.1398 168.323 31.2567V31.183Z" fill="url(#paint5_linear_535_3220)"/>
</g>
<path d="M143.339 16.7861C99.9301 16.7861 64.7266 51.95 64.7266 95.3372C64.7266 138.724 99.9178 173.888 143.339 173.888C186.76 173.888 221.951 138.724 221.951 95.3372C221.951 51.95 186.76 16.7861 143.339 16.7861ZM143.339 169.47C102.362 169.47 69.1485 136.282 69.1485 95.3372C69.1485 54.3924 102.362 21.1923 143.339 21.1923C184.315 21.1923 217.529 54.3801 217.529 95.3249C217.529 136.27 184.315 169.457 143.339 169.457V169.47Z" fill="#0065A1"/>
<path fill-rule="evenodd" clip-rule="evenodd" d="M58.1169 59.0925C60.7824 49.3718 69.6877 42.2408 80.2635 42.2408C90.8393 42.2408 99.7323 49.3841 102.41 59.0925C110.394 60.9458 116.351 68.1013 116.351 76.656C116.351 86.6099 108.269 94.6859 98.3074 94.6859H62.2195C52.2579 94.6859 44.1755 86.6099 44.1755 76.656C44.1755 68.1136 50.1206 60.9581 58.1169 59.0925Z" fill="black" fill-opacity="0.1"/>
<path fill-rule="evenodd" clip-rule="evenodd" d="M205.488 18C196.801 18 189.58 24.1849 188.223 32.2856C187.969 33.8229 186.673 34.9937 185.098 35.1356C178.87 35.7032 174 40.8119 174 47.0441C174 53.6429 179.488 59 186.249 59H224.751C231.512 59 237 53.6429 237 47.0441C237 40.8238 232.117 35.7032 225.902 35.1356C224.315 34.9937 223.031 33.8229 222.777 32.2856C221.408 24.1849 214.199 18 205.512 18H205.488Z" fill="black" fill-opacity="0.1"/>
<path fill-rule="evenodd" clip-rule="evenodd" d="M214 78.0068C214 72.4895 218.667 68 224.433 68C228.17 68 231.441 69.8796 233.288 72.7059C237.574 72.8411 241 76.2083 241 80.3462C241 84.4841 237.433 88 233.02 88H224.433C218.681 88 214 83.524 214 77.9932V78.0068Z" fill="black" fill-opacity="0.1"/>
<path fill-rule="evenodd" clip-rule="evenodd" d="M48.7939 109.352C48.5237 109.868 47.9832 110.175 47.4059 110.138C47.2585 110.138 47.1234 110.126 46.976 110.126C43.3279 110.126 40.3677 113.084 40.3677 116.729C40.3677 120.374 43.3279 123.332 46.976 123.332H57.2447C62.5142 123.332 66.7888 119.061 66.7888 113.796C66.7888 108.53 62.5142 104.259 57.2447 104.259C53.5844 104.259 50.3907 106.321 48.7939 109.365V109.352Z" fill="black" fill-opacity="0.1"/>
<path fill-rule="evenodd" clip-rule="evenodd" d="M198.488 13C189.801 13 182.58 19.3357 181.223 27.634C180.969 29.2088 179.673 30.4081 178.098 30.5535C171.87 31.135 167 36.3683 167 42.7525C167 49.5123 172.488 55 179.249 55H217.751C224.512 55 230 49.5123 230 42.7525C230 36.3804 225.118 31.135 218.902 30.5535C217.315 30.4081 216.031 29.2088 215.777 27.634C214.408 19.3357 207.199 13 198.512 13L198.488 13Z" fill="white"/>
<path fill-rule="evenodd" clip-rule="evenodd" d="M208 73.5071C208 67.714 212.667 63 218.433 63C222.17 63 225.441 64.9736 227.288 67.9412C231.574 68.0832 235 71.6187 235 75.9635C235 80.3083 231.433 84 227.02 84H218.433C212.681 84 208 79.3002 208 73.4929V73.5071Z" fill="white"/>
<path fill-rule="evenodd" clip-rule="evenodd" d="M48.9414 53.8517C51.6068 44.131 60.5121 37 71.0879 37C81.6637 37 90.5568 44.1432 93.2345 53.8517C101.219 55.705 107.176 62.8605 107.176 71.4152C107.176 81.3691 99.0936 89.4451 89.1319 89.4451H53.044C43.0823 89.4451 35 81.3691 35 71.4152C35 62.8728 40.9451 55.7172 48.9414 53.8517Z" fill="white"/>
<path fill-rule="evenodd" clip-rule="evenodd" d="M43.4263 105.094C43.156 105.609 42.6156 105.916 42.0383 105.879C41.8909 105.879 41.7557 105.867 41.6083 105.867C37.9602 105.867 35 108.825 35 112.47C35 116.115 37.9602 119.073 41.6083 119.073H51.8771C57.1465 119.073 61.4211 114.802 61.4211 109.537C61.4211 104.271 57.1465 100 51.8771 100C48.2167 100 45.0231 102.062 43.4263 105.106V105.094Z" fill="white"/>
<path d="M257.873 106.096L153.802 96.9968C147.74 96.4668 142.396 100.947 141.866 107.005L136.248 171.171C135.718 177.229 140.202 182.569 146.264 183.099L250.335 192.197C256.397 192.727 261.741 188.247 262.271 182.189L267.889 118.023C268.419 111.965 263.935 106.625 257.873 106.096Z" fill="black" fill-opacity="0.1"/>
<path d="M254.912 102.066L150.841 92.9676C144.779 92.4377 139.435 96.9184 138.905 102.976L133.287 167.142C132.757 173.199 137.241 178.539 143.303 179.069L247.374 188.168C253.436 188.698 258.78 184.217 259.31 178.16L264.928 113.994C265.458 107.936 260.974 102.596 254.912 102.066Z" fill="url(#paint6_linear_535_3220)"/>
<g clip-path="url(#clip0_535_3220)">
<path fill-rule="evenodd" clip-rule="evenodd" d="M249.674 169.113L249.717 168.63L249.592 168.619L249.419 168.939L249.305 168.594L249.18 168.583L249.138 169.066L249.225 169.074L249.257 168.71L249.365 169.035L249.456 169.043L249.618 168.74L249.586 169.105L249.674 169.113ZM248.884 169.044L248.919 168.643L249.079 168.657L249.086 168.576L248.679 168.54L248.672 168.621L248.832 168.635L248.797 169.036L248.884 169.044Z" fill="#F79E1B"/>
<path fill-rule="evenodd" clip-rule="evenodd" d="M224.566 169.005L235.341 169.947L237.053 150.379L226.278 149.436L224.566 169.005Z" fill="#FF5F00"/>
<path fill-rule="evenodd" clip-rule="evenodd" d="M250.733 161.435C250.132 168.308 244.131 173.398 237.331 172.803C234.458 172.551 231.902 171.326 229.954 169.476C233.017 167.448 235.165 164.073 235.513 160.103C235.86 156.134 234.33 152.437 231.666 149.908C233.906 148.424 236.636 147.662 239.509 147.913C246.309 148.508 251.335 154.562 250.733 161.435Z" fill="#F79E1B"/>
<path fill-rule="evenodd" clip-rule="evenodd" d="M226.106 159.281C226.454 155.311 228.602 151.936 231.666 149.908C229.717 148.058 227.161 146.833 224.288 146.581C217.487 145.986 211.487 151.076 210.886 157.949C210.284 164.822 215.31 170.876 222.111 171.471C224.983 171.722 227.713 170.959 229.954 169.476C227.289 166.947 225.759 163.25 226.106 159.281Z" fill="#EB001B"/>
</g>
<path d="M166.96 147.138L155.274 146.116C152.672 145.889 150.378 147.812 150.151 150.411L149.392 159.08C149.164 161.68 151.089 163.972 153.691 164.2L165.377 165.221C167.978 165.449 170.272 163.526 170.5 160.926L171.259 152.257C171.486 149.657 169.562 147.365 166.96 147.138Z" fill="white"/>
<path d="M163.605 152.918L157.573 152.391L157.045 158.419L163.078 158.946L163.605 152.918Z" stroke="#D4D4D4" stroke-width="0.5" stroke-miterlimit="10"/>
<path d="M163.336 155.933L170.872 156.583" stroke="#D4D4D4" stroke-width="0.5" stroke-miterlimit="10"/>
<path d="M160.58 152.653L161.118 146.62" stroke="#D4D4D4" stroke-width="0.5" stroke-miterlimit="10"/>
<path d="M160.054 158.675L159.529 164.709" stroke="#D4D4D4" stroke-width="0.5" stroke-miterlimit="10"/>
<path d="M163.599 152.916L165.854 151.023L171.315 151.506" stroke="#D4D4D4" stroke-width="0.5" stroke-miterlimit="10"/>
<path d="M163.074 158.938L164.956 161.19L170.43 161.673" stroke="#D4D4D4" stroke-width="0.5" stroke-miterlimit="10"/>
<path d="M157.31 155.395L149.762 154.745" stroke="#D4D4D4" stroke-width="0.5" stroke-miterlimit="10"/>
<path d="M157.573 152.391L155.679 150.138L150.217 149.655" stroke="#D4D4D4" stroke-width="0.5" stroke-miterlimit="10"/>
<path d="M157.047 158.412L154.793 160.305L149.319 159.822" stroke="#D4D4D4" stroke-width="0.5" stroke-miterlimit="10"/>
<path fill-rule="evenodd" clip-rule="evenodd" d="M163.895 110.131C160.544 109.828 157.365 110.828 154.89 112.731C154.506 113.022 153.966 112.943 153.675 112.572C153.384 112.189 153.463 111.649 153.835 111.358C156.644 109.213 160.242 108.07 164.047 108.414C167.851 108.758 171.187 110.521 173.569 113.135C173.885 113.481 173.868 114.034 173.508 114.349C173.161 114.665 172.609 114.647 172.293 114.288C170.19 111.985 167.245 110.422 163.895 110.119L163.895 110.131ZM163.509 114.423C161.336 114.23 159.279 114.861 157.634 116.047C157.25 116.326 156.71 116.247 156.432 115.864C156.153 115.481 156.232 114.941 156.615 114.663C158.57 113.234 161.047 112.472 163.661 112.706C166.275 112.941 168.573 114.129 170.238 115.888C170.566 116.235 170.549 116.775 170.202 117.103C169.855 117.431 169.314 117.414 168.986 117.067C167.588 115.592 165.681 114.616 163.509 114.411L163.509 114.423ZM163.123 118.715C162.104 118.62 161.143 118.893 160.352 119.413C159.957 119.679 159.417 119.563 159.151 119.168C158.884 118.772 159 118.233 159.396 117.967C160.496 117.241 161.851 116.862 163.263 116.986C164.674 117.11 165.909 117.712 166.858 118.592C167.211 118.915 167.218 119.467 166.896 119.808C166.573 120.161 166.02 120.168 165.679 119.845C164.997 119.212 164.117 118.787 163.111 118.691L163.123 118.715ZM161.96 122.067C162.002 121.589 162.422 121.249 162.901 121.291C163.38 121.332 163.72 121.753 163.678 122.231C163.637 122.71 163.216 123.049 162.737 123.008C162.258 122.966 161.918 122.546 161.96 122.067Z" fill="#D4D4D4"/>
<defs>
<filter id="filter0_i_535_3220" x="76.0801" y="22.0392" width="70.1453" height="96.5429" filterUnits="userSpaceOnUse" color-interpolation-filters="sRGB">
<feFlood flood-opacity="0" result="BackgroundImageFix"/>
<feBlend mode="normal" in="SourceGraphic" in2="BackgroundImageFix" result="shape"/>
<feColorMatrix in="SourceAlpha" type="matrix" values="0 0 0 0 0 0 0 0 0 0 0 0 0 0 0 0 0 0 127 0" result="hardAlpha"/>
<feOffset dx="-1" dy="-1"/>
<feComposite in2="hardAlpha" operator="arithmetic" k2="-1" k3="1"/>
<feColorMatrix type="matrix" values="0 0 0 0 1 0 0 0 0 1 0 0 0 0 1 0 0 0 0.25 0"/>
<feBlend mode="normal" in2="shape" result="effect1_innerShadow_535_3220"/>
</filter>
<filter id="filter1_i_535_3220" x="107.099" y="109.09" width="58.4282" height="60.3923" filterUnits="userSpaceOnUse" color-interpolation-filters="sRGB">
<feFlood flood-opacity="0" result="BackgroundImageFix"/>
<feBlend mode="normal" in="SourceGraphic" in2="BackgroundImageFix" result="shape"/>
<feColorMatrix in="SourceAlpha" type="matrix" values="0 0 0 0 0 0 0 0 0 0 0 0 0 0 0 0 0 0 127 0" result="hardAlpha"/>
<feOffset dx="1" dy="1"/>
<feComposite in2="hardAlpha" operator="arithmetic" k2="-1" k3="1"/>
<feColorMatrix type="matrix" values="0 0 0 0 1 0 0 0 0 1 0 0 0 0 1 0 0 0 0.25 0"/>
<feBlend mode="normal" in2="shape" result="effect1_innerShadow_535_3220"/>
</filter>
<filter id="filter2_i_535_3220" x="136.95" y="21.2292" width="15.0962" height="16.4695" filterUnits="userSpaceOnUse" color-interpolation-filters="sRGB">
<feFlood flood-opacity="0" result="BackgroundImageFix"/>
<feBlend mode="normal" in="SourceGraphic" in2="BackgroundImageFix" result="shape"/>
<feColorMatrix in="SourceAlpha" type="matrix" values="0 0 0 0 0 0 0 0 0 0 0 0 0 0 0 0 0 0 127 0" result="hardAlpha"/>
<feOffset dx="-1" dy="-2"/>
<feComposite in2="hardAlpha" operator="arithmetic" k2="-1" k3="1"/>
<feColorMatrix type="matrix" values="0 0 0 0 1 0 0 0 0 1 0 0 0 0 1 0 0 0 0.25 0"/>
<feBlend mode="normal" in2="shape" result="effect1_innerShadow_535_3220"/>
</filter>
<filter id="filter3_i_535_3220" x="165.443" y="25.4022" width="52.0984" height="118.391" filterUnits="userSpaceOnUse" color-interpolation-filters="sRGB">
<feFlood flood-opacity="0" result="BackgroundImageFix"/>
<feBlend mode="normal" in="SourceGraphic" in2="BackgroundImageFix" result="shape"/>
<feColorMatrix in="SourceAlpha" type="matrix" values="0 0 0 0 0 0 0 0 0 0 0 0 0 0 0 0 0 0 127 0" result="hardAlpha"/>
<feOffset dx="1" dy="1"/>
<feComposite in2="hardAlpha" operator="arithmetic" k2="-1" k3="1"/>
<feColorMatrix type="matrix" values="0 0 0 0 1 0 0 0 0 1 0 0 0 0 1 0 0 0 0.25 0"/>
<feBlend mode="normal" in2="shape" result="effect1_innerShadow_535_3220"/>
</filter>
<radialGradient id="paint0_radial_535_3220" cx="0" cy="0" r="1" gradientUnits="userSpaceOnUse" gradientTransform="translate(143.5 95.5) rotate(90) scale(87.5)">
<stop offset="0.713542" stop-color="#3686FE" stop-opacity="0"/>
<stop offset="1" stop-color="#25F2FF" stop-opacity="0.47"/>
</radialGradient>
<linearGradient id="paint1_linear_535_3220" x1="192.5" y1="142" x2="114" y2="25.5" gradientUnits="userSpaceOnUse">
<stop stop-color="#00B1EB"/>
<stop offset="1" stop-color="#66C5EF"/>
</linearGradient>
<linearGradient id="paint2_linear_535_3220" x1="120.804" y1="22.0392" x2="120.804" y2="169.482" gradientUnits="userSpaceOnUse">
<stop stop-color="#CFF067"/>
<stop offset="1" stop-color="#91CF27"/>
</linearGradient>
<linearGradient id="paint3_linear_535_3220" x1="77.5" y1="56.5" x2="186.5" y2="185.5" gradientUnits="userSpaceOnUse">
<stop stop-color="#CFF067"/>
<stop offset="1" stop-color="#91CF27"/>
</linearGradient>
<linearGradient id="paint4_linear_535_3220" x1="144.498" y1="21.2292" x2="159" y2="45.5" gradientUnits="userSpaceOnUse">
<stop stop-color="#CFF067"/>
<stop offset="1" stop-color="#91CF27"/>
</linearGradient>
<linearGradient id="paint5_linear_535_3220" x1="191.492" y1="25.4022" x2="191.492" y2="143.793" gradientUnits="userSpaceOnUse">
<stop stop-color="#CFF067"/>
<stop offset="1" stop-color="#91CF27"/>
</linearGradient>
<linearGradient id="paint6_linear_535_3220" x1="202.681" y1="99.6806" x2="195.417" y2="182.763" gradientUnits="userSpaceOnUse">
<stop stop-color="white"/>
<stop offset="1" stop-color="#DDE5E3"/>
</linearGradient>
<clipPath id="clip0_535_3220">
<rect width="40" height="31.7875" fill="white" transform="translate(211.974 145.504) rotate(5)"/>
</clipPath>
</defs>
</svg>