<svg width="280" height="200" viewBox="0 0 280 200" fill="none" xmlns="http://www.w3.org/2000/svg">
<circle opacity="0.25" cx="140" cy="100" r="95" fill="#CCEFF9"/>
<circle opacity="0.5" cx="140" cy="100" r="83" fill="#CCEFF9"/>
<circle cx="140" cy="100" r="71" fill="#CCEFF9"/>
<rect x="100.238" y="18.0002" width="92.0698" height="171.498" rx="12.8519" fill="black" fill-opacity="0.1"/>
<rect x="96.2375" y="14.0002" width="92.0698" height="171.498" rx="12.8519" fill="#111D34"/>
<rect x="100.03" y="18.003" width="84.6958" height="163.703" rx="11.8225" fill="#F5F5F5"/>
<path d="M100.03 29.8014C100.03 23.2853 105.312 18.003 111.828 18.003H172.927C179.443 18.003 184.726 23.2854 184.726 29.8014V93.218C184.726 96.0106 182.462 98.2744 179.669 98.2744H105.086C102.294 98.2744 100.03 96.0106 100.03 93.218V29.8014Z" fill="url(#paint0_linear_274_8032)"/>
<path d="M124.891 14.6322H159.865V17.1605C159.865 19.4877 157.978 21.3742 155.651 21.3742H129.105C126.777 21.3742 124.891 19.4877 124.891 17.1605V14.6322Z" fill="#111D34"/>
<path d="M123.733 107.966H114.233C111.858 107.966 109.932 109.892 109.932 112.267V121.767C109.932 124.142 111.858 126.068 114.233 126.068H123.733C126.108 126.068 128.034 124.142 128.034 121.767V112.267C128.034 109.892 126.108 107.966 123.733 107.966Z" fill="#CCEFF9"/>
<path d="M123.733 152.842H114.233C111.858 152.842 109.932 154.768 109.932 157.143V166.643C109.932 169.018 111.858 170.944 114.233 170.944H123.733C126.108 170.944 128.034 169.018 128.034 166.643V157.143C128.034 154.768 126.108 152.842 123.733 152.842Z" fill="#CCEFF9"/>
<path d="M147.203 107.966H137.703C135.328 107.966 133.402 109.892 133.402 112.267V121.767C133.402 124.142 135.328 126.068 137.703 126.068H147.203C149.579 126.068 151.504 124.142 151.504 121.767V112.267C151.504 109.892 149.579 107.966 147.203 107.966Z" fill="#88AF42"/>
<path d="M147.203 152.842H137.703C135.328 152.842 133.402 154.768 133.402 157.143V166.643C133.402 169.018 135.328 170.944 137.703 170.944H147.203C149.579 170.944 151.504 169.018 151.504 166.643V157.143C151.504 154.768 149.579 152.842 147.203 152.842Z" fill="#88AF42"/>
<path d="M170.684 107.966H161.184C158.808 107.966 156.883 109.892 156.883 112.267V121.767C156.883 124.142 158.808 126.068 161.184 126.068H170.684C173.059 126.068 174.985 124.142 174.985 121.767V112.267C174.985 109.892 173.059 107.966 170.684 107.966Z" fill="#0065A1"/>
<path d="M170.684 152.842H161.184C158.808 152.842 156.883 154.768 156.883 157.143V166.643C156.883 169.018 158.808 170.944 161.184 170.944H170.684C173.059 170.944 174.985 169.018 174.985 166.643V157.143C174.985 154.768 173.059 152.842 170.684 152.842Z" fill="#0065A1"/>
<path d="M123.733 130.379H114.233C111.858 130.379 109.932 132.305 109.932 134.68V144.18C109.932 146.555 111.858 148.481 114.233 148.481H123.733C126.108 148.481 128.034 146.555 128.034 144.18V134.68C128.034 132.305 126.108 130.379 123.733 130.379Z" fill="#0065A1"/>
<path d="M147.203 130.379H137.703C135.328 130.379 133.402 132.305 133.402 134.68V144.18C133.402 146.555 135.328 148.481 137.703 148.481H147.203C149.579 148.481 151.504 146.555 151.504 144.18V134.68C151.504 132.305 149.579 130.379 147.203 130.379Z" fill="#00B1E2"/>
<path d="M170.684 130.379H161.184C158.808 130.379 156.883 132.305 156.883 134.68V144.18C156.883 146.555 158.808 148.481 161.184 148.481H170.684C173.059 148.481 174.985 146.555 174.985 144.18V134.68C174.985 132.305 173.059 130.379 170.684 130.379Z" fill="#EFB93E"/>
<path d="M130.214 65.8997H121.76C116.508 65.8997 112.25 70.1578 112.25 75.4103C112.25 80.6629 116.508 84.921 121.76 84.921H130.214C135.467 84.921 139.725 80.6629 139.725 75.4103C139.725 70.1578 135.467 65.8997 130.214 65.8997Z" fill="white"/>
<path d="M128.766 79.0557C128.301 79.5207 127.667 79.8272 126.875 79.9645V80.6831C126.875 80.9156 126.801 81.0952 126.663 81.2326C126.526 81.37 126.336 81.444 126.114 81.444C125.892 81.444 125.712 81.37 125.564 81.2326C125.416 81.0952 125.353 80.905 125.353 80.6831V79.9962C124.888 79.954 124.434 79.8589 124 79.7004C123.567 79.5524 123.187 79.3516 122.849 79.1192C122.711 79.0346 122.616 78.9395 122.563 78.8338C122.51 78.7282 122.479 78.5908 122.479 78.4323C122.479 78.2209 122.542 78.0307 122.68 77.8722C122.806 77.7137 122.965 77.6292 123.134 77.6292C123.292 77.6292 123.493 77.6926 123.726 77.8299C124.117 78.0624 124.487 78.2209 124.835 78.3266C125.184 78.4323 125.554 78.4851 125.934 78.4851C126.442 78.4851 126.833 78.39 127.097 78.1998C127.371 78.0096 127.498 77.7454 127.498 77.3967C127.498 77.1853 127.424 77.0162 127.266 76.8789C127.107 76.7415 126.917 76.6358 126.685 76.5619C126.452 76.4879 126.124 76.3928 125.691 76.266C125.068 76.1075 124.55 75.9489 124.148 75.7799C123.747 75.6214 123.398 75.3677 123.102 75.019C122.806 74.6703 122.669 74.2053 122.669 73.6241C122.669 72.9372 122.912 72.356 123.398 71.8594C123.884 71.3733 124.518 71.0563 125.311 70.9189V70.2003C125.311 69.9678 125.385 69.7882 125.522 69.6508C125.67 69.5134 125.85 69.4395 126.072 69.4395C126.294 69.4395 126.484 69.5134 126.621 69.6508C126.759 69.7882 126.833 69.9784 126.833 70.2003V70.8977C127.593 71.0034 128.312 71.2887 128.978 71.7643C129.104 71.8488 129.2 71.9439 129.252 72.0602C129.305 72.1658 129.337 72.3032 129.337 72.4511C129.337 72.6625 129.274 72.8527 129.136 73.0112C128.999 73.1697 128.851 73.2543 128.682 73.2543C128.587 73.2543 128.502 73.2437 128.418 73.212C128.333 73.1909 128.227 73.1275 128.079 73.0429C127.731 72.821 127.424 72.6625 127.15 72.5463C126.875 72.4406 126.537 72.3772 126.146 72.3772C125.691 72.3772 125.321 72.4829 125.047 72.6836C124.772 72.8844 124.634 73.1592 124.634 73.4973C124.634 73.7298 124.719 73.9306 124.878 74.0785C125.036 74.2265 125.237 74.3427 125.49 74.4272C125.734 74.5118 126.082 74.6069 126.515 74.7231C127.128 74.8711 127.636 75.0296 128.027 75.1881C128.418 75.3466 128.756 75.5897 129.041 75.9384C129.326 76.2765 129.464 76.7415 129.464 77.3121C129.464 77.999 129.231 78.5696 128.756 79.0452L128.766 79.0557Z" fill="#0065A1"/>
<path d="M162.994 65.8998H154.54C149.288 65.8998 145.03 70.1579 145.03 75.4104C145.03 80.663 149.288 84.9211 154.54 84.9211H162.994C168.247 84.9211 172.505 80.663 172.505 75.4104C172.505 70.1579 168.247 65.8998 162.994 65.8998Z" fill="white"/>
<path fill-rule="evenodd" clip-rule="evenodd" d="M154.35 70.6015H163.174C163.512 70.6015 163.808 70.6015 164.051 70.6227C164.304 70.6438 164.558 70.6861 164.801 70.8129C165.16 71.0031 165.456 71.299 165.646 71.6583C165.773 71.9013 165.815 72.1549 165.837 72.4085C165.858 72.6516 165.858 72.9475 165.858 73.2856V78.2417C165.858 78.5799 165.858 78.8758 165.837 79.1188C165.815 79.3724 165.773 79.6261 165.646 79.8691C165.456 80.2284 165.16 80.5243 164.801 80.7145C164.558 80.8413 164.304 80.8836 164.051 80.9047C163.808 80.9258 163.512 80.9258 163.174 80.9258H154.35C154.012 80.9258 153.716 80.9258 153.473 80.9047C153.219 80.8836 152.966 80.8413 152.723 80.7145C152.363 80.5243 152.067 80.2284 151.877 79.8691C151.75 79.6261 151.708 79.3724 151.687 79.1188C151.666 78.8758 151.666 78.5799 151.666 78.2417V74.4798V73.2962C151.666 72.958 151.666 72.6622 151.687 72.4191C151.708 72.1655 151.75 71.9119 151.877 71.6688C152.067 71.3095 152.363 71.0137 152.723 70.8234C152.966 70.6966 153.219 70.6544 153.473 70.6332C153.716 70.6121 154.012 70.6121 154.35 70.6121V70.6015ZM152.955 75.1138V78.21C152.955 78.5799 152.955 78.8229 152.966 79.0026C152.976 79.1822 153.008 79.2456 153.018 79.2773C153.082 79.3936 153.177 79.4992 153.304 79.5626C153.335 79.5838 153.399 79.6049 153.578 79.6155C153.758 79.6261 154.001 79.6261 154.371 79.6261H163.142C163.512 79.6261 163.755 79.6261 163.934 79.6155C164.114 79.6049 164.178 79.5732 164.209 79.5626C164.325 79.4992 164.431 79.4041 164.495 79.2773C164.516 79.2456 164.537 79.1822 164.547 79.0026C164.558 78.8229 164.558 78.5799 164.558 78.21V75.1138H152.944H152.955ZM164.569 73.8246H152.955V73.3068C152.955 72.9369 152.955 72.6939 152.966 72.5142C152.976 72.3346 153.008 72.2712 153.018 72.2395C153.082 72.1232 153.177 72.0176 153.304 71.9542C153.335 71.933 153.399 71.9119 153.578 71.9013C153.758 71.8907 154.001 71.8908 154.371 71.8908H163.142C163.512 71.8908 163.755 71.8907 163.934 71.9013C164.114 71.9119 164.178 71.9436 164.209 71.9542C164.325 72.0176 164.431 72.1127 164.495 72.2395C164.516 72.2712 164.537 72.3346 164.547 72.5142C164.558 72.6939 164.558 72.9369 164.558 73.3068V73.8246H164.569ZM154.244 77.0476C154.244 76.6883 154.53 76.403 154.889 76.403H158.112C158.471 76.403 158.756 76.6883 158.756 77.0476C158.756 77.4069 158.471 77.6922 158.112 77.6922H154.889C154.53 77.6922 154.244 77.4069 154.244 77.0476Z" fill="#0065A1"/>
<g clip-path="url(#clip0_274_8032)">
<path d="M152.356 48.0393C151.62 45.8198 150.908 45.3552 150.546 45.2772L148.119 47.7738C148.689 47.8343 149.451 48.5495 150.123 50.4685C150.825 52.477 151.352 52.7472 151.352 52.7472H155.417C155.417 52.7472 153.409 51.2179 152.356 48.0393Z" fill="white"/>
<path d="M144.344 51.2294C144.345 51.4211 144.347 51.7263 144.347 52.7615H147.799L147.795 48.0855C146.646 49.1867 145.29 50.4408 144.344 51.2299" fill="white"/>
<path d="M144.349 44.676V44.9919C144.692 44.6266 145.038 44.2499 145.388 43.8685C146.172 43.0166 146.968 42.1504 147.799 41.3234V35.1084H144.339L144.346 44.6756H144.348L144.349 44.676Z" fill="white"/>
<path d="M159.45 39.2086C155.645 39.2086 152.91 42.2307 152.91 45.986C152.91 49.7413 155.645 52.761 159.45 52.761C163.256 52.761 165.975 49.7413 165.975 45.986C165.975 42.2307 163.239 39.2086 159.45 39.2086ZM159.441 49.1913C157.733 49.1913 156.351 47.7549 156.351 45.986C156.351 44.2171 157.733 42.7783 159.441 42.7783C161.149 42.7783 162.533 44.2148 162.533 45.986C162.533 47.7572 161.149 49.1913 159.441 49.1913Z" fill="white"/>
<path d="M154.968 39.8939V39.8948C154.984 39.8819 155.001 39.8694 155.017 39.8574C155.091 39.8029 155.165 39.7493 155.238 39.6972C155.266 39.6778 155.293 39.6588 155.32 39.6404C156.445 38.8725 157.481 38.5955 158.262 38.4957C158.2 38.4574 158.132 38.4172 158.057 38.3761C158.056 38.3761 158.056 38.3757 158.056 38.3757C157.808 38.2187 157.146 37.8627 156.145 37.7764C156.142 37.7759 156.139 37.7759 156.136 37.7754C154.943 37.6752 153.269 37.9574 151.236 39.4123C146.986 42.4519 143.735 47.8809 140.484 49.1526C137.232 50.4242 134.809 49.4628 135.208 47.9114C135.405 47.1454 136.451 46.5987 137.583 46.3688C138.742 46.1328 139.993 46.2298 140.512 46.7635C140.512 46.7635 140.564 47.6242 140.524 48.2485C141.211 47.9146 141.923 47.3666 142.656 46.6924C143.09 46.293 143.339 45.7191 143.343 45.117C143.349 44.3948 143.351 43.5743 143.327 43.1001C143.272 42.0289 142.812 41.0108 142.014 40.3284C140.893 39.3703 138.81 38.6666 134.665 39.6865C134.767 40.2037 134.819 40.7398 134.819 41.2869C134.819 41.7953 134.774 42.2944 134.685 42.7779C135.352 42.3457 136.967 41.4924 138.748 41.799C141.086 42.2021 140.599 44.3436 140.599 44.3436C140.599 44.3436 139.285 43.7983 137.583 43.8491C136.372 43.8851 134.966 44.2231 133.697 45.274C133.697 45.274 132.204 46.5793 132.189 48.3958L132.189 48.4092C132.189 48.4443 132.189 48.4789 132.19 48.5135C132.19 48.5385 132.191 48.5625 132.193 48.5874C132.194 48.622 132.197 48.6571 132.2 48.6922C132.351 50.9847 134.248 52.5468 136.727 52.7282C139.356 53.0039 142.187 51.7803 143.108 51.168C144.239 50.4159 147.927 46.8873 149.097 45.6775C149.899 44.8473 152.473 41.7542 154.968 39.8934" fill="white"/>
<path d="M127.819 35.1094V35.1084H119.393C119.393 35.1084 120.948 35.4109 120.981 37.2837V52.7615H124.427V47.4658H127.807C131.799 47.4594 133.817 44.4285 133.817 41.2869C133.817 38.1453 131.804 35.1209 127.819 35.1094ZM127.983 43.9354H124.427V38.6389H127.983C129.52 38.6389 130.37 39.7724 130.37 41.2841C130.37 42.7959 129.52 43.9354 127.983 43.9354Z" fill="white"/>
</g>
<path d="M58.8435 87.477C70.0465 87.477 79.1283 78.3952 79.1283 67.1923C79.1283 55.9894 70.0465 46.9076 58.8435 46.9076C47.6406 46.9076 38.5588 55.9894 38.5588 67.1923C38.5588 78.3952 47.6406 87.477 58.8435 87.477Z" fill="black" fill-opacity="0.1"/>
<path d="M59.9168 84.5696C71.1197 84.5696 80.2015 75.4878 80.2015 64.2849C80.2015 53.082 71.1197 44.0002 59.9168 44.0002C48.7138 44.0002 39.6321 53.082 39.6321 64.2849C39.6321 75.4878 48.7138 84.5696 59.9168 84.5696Z" fill="#EBA70E"/>
<path d="M59.9168 83.4969C70.5269 83.4969 79.1282 74.8957 79.1282 64.2855C79.1282 53.6753 70.5269 45.0741 59.9168 45.0741C49.3066 45.0741 40.7053 53.6753 40.7053 64.2855C40.7053 74.8957 49.3066 83.4969 59.9168 83.4969Z" fill="url(#paint1_linear_274_8032)"/>
<path fill-rule="evenodd" clip-rule="evenodd" d="M51.8982 53.7653C52.0283 53.7752 52.2096 53.8006 52.4038 53.8893C52.6592 54.006 52.8756 54.1937 53.0272 54.43C53.1425 54.6097 53.1933 54.7856 53.2215 54.913C53.2455 55.0211 53.263 55.1441 53.2774 55.2448C53.2783 55.2515 53.2793 55.2582 53.2802 55.2648L53.6223 57.6597L68.8637 57.6597C69.0023 57.6596 69.1622 57.6596 69.3009 57.6717C69.457 57.6853 69.6914 57.7206 69.9285 57.8588C70.2282 58.0334 70.4561 58.3088 70.5716 58.6359C70.663 58.8946 70.6538 59.1315 70.638 59.2874C70.6239 59.4259 70.5939 59.583 70.5679 59.7192L69.2654 66.5574C69.1847 66.9812 69.1143 67.3506 69.0327 67.6542C68.9457 67.9775 68.8297 68.2926 68.6258 68.5888C68.3178 69.036 67.8915 69.3888 67.3945 69.6077C67.0654 69.7526 66.7342 69.8075 66.4003 69.8325C66.0867 69.8559 65.7107 69.8559 65.2793 69.8559H56.8617C56.4081 69.8559 56.0138 69.8559 55.6861 69.8307C55.338 69.804 54.9924 69.745 54.6518 69.5886C54.1392 69.3531 53.7056 68.9744 53.4031 68.4982C53.2021 68.1819 53.0971 67.8474 53.0237 67.506C52.9546 67.1847 52.9015 66.794 52.8403 66.3446L51.8098 58.7701L51.3724 55.7083H50.2672C49.7283 55.7083 49.2915 55.2714 49.2915 54.7326C49.2915 54.1937 49.7283 53.7569 50.2672 53.7569H51.5416C51.5482 53.7569 51.555 53.7569 51.5618 53.7569C51.6635 53.7568 51.7877 53.7568 51.8982 53.7653ZM53.8936 59.6111L54.7692 66.0473C54.8364 66.5408 54.88 66.8564 54.9315 67.0956C54.9804 67.323 55.0223 67.408 55.0503 67.4519C55.1511 67.6107 55.2956 67.7369 55.4665 67.8154C55.5138 67.8371 55.6037 67.8673 55.8356 67.8851C56.0796 67.9038 56.3982 67.9045 56.8962 67.9045H65.2461C65.7203 67.9045 66.0228 67.9038 66.255 67.8865C66.4748 67.8701 66.5614 67.8423 66.6081 67.8217C66.7738 67.7488 66.9159 67.6312 67.0186 67.4821C67.0475 67.4401 67.091 67.3602 67.1482 67.1473C67.2087 66.9225 67.2659 66.6255 67.3547 66.1596L68.602 59.6111H53.8936ZM55.1457 73.2708C55.1457 72.1931 56.0193 71.3194 57.0971 71.3194C58.1748 71.3194 59.0485 72.1931 59.0485 73.2708C59.0485 74.3485 58.1748 75.2222 57.0971 75.2222C56.0193 75.2222 55.1457 74.3485 55.1457 73.2708ZM62.9512 73.2708C62.9512 72.1931 63.8249 71.3194 64.9026 71.3194C65.9803 71.3194 66.854 72.1931 66.854 73.2708C66.854 74.3485 65.9803 75.2222 64.9026 75.2222C63.8249 75.2222 62.9512 74.3485 62.9512 73.2708Z" fill="white"/>
<path d="M58.8435 152.547C70.0465 152.547 79.1283 143.465 79.1283 132.262C79.1283 121.059 70.0465 111.977 58.8435 111.977C47.6406 111.977 38.5588 121.059 38.5588 132.262C38.5588 143.465 47.6406 152.547 58.8435 152.547Z" fill="black" fill-opacity="0.1"/>
<path d="M59.9168 149.639C71.1197 149.639 80.2015 140.557 80.2015 129.355C80.2015 118.152 71.1197 109.07 59.9168 109.07C48.7138 109.07 39.6321 118.152 39.6321 129.355C39.6321 140.557 48.7138 149.639 59.9168 149.639Z" fill="#88AF42"/>
<path d="M59.9168 148.565C70.5269 148.565 79.1282 139.964 79.1282 129.354C79.1282 118.744 70.5269 110.143 59.9168 110.143C49.3066 110.143 40.7053 118.744 40.7053 129.354C40.7053 139.964 49.3066 148.565 59.9168 148.565Z" fill="url(#paint2_linear_274_8032)"/>
<path fill-rule="evenodd" clip-rule="evenodd" d="M52.773 119.802C52.7834 119.802 52.7938 119.802 52.8041 119.802H56.5118C56.5222 119.802 56.5325 119.802 56.5429 119.802C56.7892 119.802 57.029 119.802 57.2321 119.819C57.4551 119.837 57.7183 119.88 57.9831 120.015C58.3503 120.202 58.6488 120.501 58.8359 120.868C58.9708 121.133 59.0138 121.396 59.0321 121.619C59.0487 121.822 59.0486 122.062 59.0486 122.308V126.078C59.0486 126.324 59.0487 126.564 59.0321 126.767C59.0138 126.99 58.9708 127.253 58.8359 127.518C58.6488 127.885 58.3503 128.184 57.9831 128.371C57.7183 128.506 57.4551 128.549 57.2321 128.567C57.029 128.584 56.7891 128.583 56.5429 128.583H52.773C52.5268 128.583 52.287 128.584 52.0839 128.567C51.8608 128.549 51.5976 128.506 51.3328 128.371C50.9656 128.184 50.6671 127.885 50.48 127.518C50.3451 127.253 50.3021 126.99 50.2839 126.767C50.2673 126.564 50.2673 126.324 50.2673 126.078C50.2673 126.067 50.2673 126.057 50.2673 126.047V122.339C50.2673 122.329 50.2673 122.318 50.2673 122.308C50.2673 122.062 50.2673 121.822 50.2839 121.619C50.3021 121.396 50.3451 121.133 50.48 120.868C50.6671 120.501 50.9656 120.202 51.3328 120.015C51.5976 119.88 51.8608 119.837 52.0839 119.819C52.287 119.802 52.5268 119.802 52.773 119.802ZM52.2299 121.765C52.2295 121.769 52.2292 121.773 52.2288 121.778C52.2195 121.891 52.2187 122.05 52.2187 122.339V126.047C52.2187 126.336 52.2195 126.494 52.2288 126.608C52.2292 126.613 52.2295 126.617 52.2299 126.621C52.2339 126.621 52.2382 126.622 52.2428 126.622C52.3565 126.631 52.5148 126.632 52.8041 126.632H56.5118C56.8011 126.632 56.9594 126.631 57.0732 126.622C57.0777 126.622 57.082 126.621 57.086 126.621C57.0864 126.617 57.0868 126.613 57.0872 126.608C57.0964 126.494 57.0972 126.336 57.0972 126.047V122.339C57.0972 122.05 57.0964 121.891 57.0872 121.778C57.0868 121.773 57.0864 121.769 57.086 121.765C57.082 121.764 57.0777 121.764 57.0732 121.764C56.9594 121.754 56.8011 121.754 56.5118 121.754H52.8041C52.5148 121.754 52.3565 121.754 52.2428 121.764C52.2382 121.764 52.2339 121.764 52.2299 121.765ZM63.5057 119.802H67.2756C67.5218 119.802 67.7616 119.802 67.9647 119.819C68.1878 119.837 68.4509 119.88 68.7158 120.015C69.0829 120.202 69.3815 120.501 69.5686 120.868C69.7035 121.133 69.7465 121.396 69.7647 121.619C69.7813 121.822 69.7813 122.062 69.7812 122.308V126.078C69.7813 126.324 69.7813 126.564 69.7647 126.767C69.7465 126.99 69.7035 127.253 69.5686 127.518C69.3815 127.885 69.0829 128.184 68.7158 128.371C68.4509 128.506 68.1878 128.549 67.9647 128.567C67.7616 128.584 67.5218 128.583 67.2755 128.583H63.5057C63.2594 128.583 63.0196 128.584 62.8165 128.567C62.5935 128.549 62.3303 128.506 62.0655 128.371C61.6983 128.184 61.3998 127.885 61.2127 127.518C61.0777 127.253 61.0347 126.99 61.0165 126.767C60.9999 126.564 61 126.324 61 126.078V122.308C61 122.062 60.9999 121.822 61.0165 121.619C61.0347 121.396 61.0777 121.133 61.2127 120.868C61.3998 120.501 61.6983 120.202 62.0655 120.015C62.3303 119.88 62.5935 119.837 62.8165 119.819C63.0196 119.802 63.2594 119.802 63.5057 119.802ZM62.9625 121.765C62.9622 121.769 62.9618 121.773 62.9614 121.778C62.9521 121.891 62.9514 122.05 62.9514 122.339V126.047C62.9514 126.336 62.9521 126.494 62.9614 126.608C62.9618 126.613 62.9622 126.617 62.9625 126.621C62.9666 126.621 62.9709 126.622 62.9754 126.622C63.0892 126.631 63.2475 126.632 63.5368 126.632H67.2444C67.5338 126.632 67.6921 126.631 67.8058 126.622C67.8103 126.622 67.8146 126.621 67.8187 126.621C67.8191 126.617 67.8194 126.613 67.8198 126.608C67.8291 126.494 67.8299 126.336 67.8299 126.047V122.339C67.8299 122.05 67.8291 121.891 67.8198 121.778C67.8194 121.773 67.819 121.769 67.8187 121.765C67.8146 121.764 67.8103 121.764 67.8058 121.764C67.6921 121.754 67.5338 121.754 67.2444 121.754H63.5368C63.2475 121.754 63.0892 121.754 62.9754 121.764C62.9709 121.764 62.9666 121.764 62.9625 121.765ZM53.6823 124.193C53.6823 123.654 54.1191 123.217 54.658 123.217H54.6677C55.2066 123.217 55.6434 123.654 55.6434 124.193C55.6434 124.732 55.2066 125.169 54.6677 125.169H54.658C54.1191 125.169 53.6823 124.732 53.6823 124.193ZM64.4149 124.193C64.4149 123.654 64.8518 123.217 65.3906 123.217H65.4004C65.9392 123.217 66.3761 123.654 66.3761 124.193C66.3761 124.732 65.9392 125.169 65.4004 125.169H65.3906C64.8518 125.169 64.4149 124.732 64.4149 124.193ZM60.0243 130.535C60.0243 129.996 60.4611 129.559 61 129.559H61.0097C61.5486 129.559 61.9854 129.996 61.9854 130.535C61.9854 131.074 61.5486 131.511 61.0097 131.511H61C60.4611 131.511 60.0243 131.074 60.0243 130.535ZM52.773 130.535H56.5429C56.7891 130.535 57.029 130.535 57.2321 130.551C57.4551 130.57 57.7183 130.613 57.9831 130.748C58.3503 130.935 58.6488 131.233 58.8359 131.6C58.9708 131.865 59.0138 132.128 59.0321 132.351C59.0487 132.554 59.0486 132.794 59.0486 133.041V136.81C59.0486 137.057 59.0487 137.296 59.0321 137.5C59.0138 137.723 58.9708 137.986 58.8359 138.251C58.6488 138.618 58.3503 138.916 57.9831 139.103C57.7183 139.238 57.4551 139.281 57.2321 139.3C57.029 139.316 56.7892 139.316 56.5429 139.316H52.773C52.5268 139.316 52.287 139.316 52.0839 139.3C51.8608 139.281 51.5976 139.238 51.3328 139.103C50.9656 138.916 50.6671 138.618 50.48 138.251C50.3451 137.986 50.3021 137.723 50.2839 137.5C50.2673 137.296 50.2673 137.057 50.2673 136.81V133.041C50.2673 132.794 50.2673 132.554 50.2839 132.351C50.3021 132.128 50.3451 131.865 50.48 131.6C50.6671 131.233 50.9656 130.935 51.3328 130.748C51.5976 130.613 51.8608 130.57 52.0839 130.551C52.287 130.535 52.5268 130.535 52.773 130.535ZM52.2299 132.497C52.2295 132.501 52.2292 132.506 52.2288 132.51C52.2195 132.624 52.2187 132.782 52.2187 133.072V136.779C52.2187 137.069 52.2195 137.227 52.2288 137.341C52.2292 137.345 52.2295 137.349 52.2299 137.354C52.2339 137.354 52.2382 137.354 52.2428 137.355C52.3565 137.364 52.5148 137.365 52.8041 137.365H56.5118C56.8011 137.365 56.9594 137.364 57.0732 137.355C57.0777 137.354 57.082 137.354 57.086 137.354C57.0864 137.349 57.0868 137.345 57.0872 137.341C57.0964 137.227 57.0972 137.069 57.0972 136.779V133.072C57.0972 132.782 57.0964 132.624 57.0872 132.51C57.0868 132.506 57.0864 132.501 57.086 132.497C57.082 132.497 57.0777 132.497 57.0732 132.496C56.9594 132.487 56.8011 132.486 56.5118 132.486H52.8041C52.5148 132.486 52.3565 132.487 52.2428 132.496C52.2382 132.497 52.2339 132.497 52.2299 132.497ZM63.4392 131.511C63.4392 130.972 63.8761 130.535 64.4149 130.535H68.8055C69.3444 130.535 69.7812 130.972 69.7812 131.511C69.7812 132.049 69.3444 132.486 68.8055 132.486H64.4149C63.8761 132.486 63.4392 132.049 63.4392 131.511ZM61.9757 132.974C62.5145 132.974 62.9514 133.411 62.9514 133.95V138.34C62.9514 138.879 62.5145 139.316 61.9757 139.316C61.4368 139.316 61 138.879 61 138.34V133.95C61 133.411 61.4368 132.974 61.9757 132.974ZM68.8055 133.462C69.3444 133.462 69.7812 133.899 69.7812 134.438V138.34C69.7812 138.879 69.3444 139.316 68.8055 139.316H64.9028C64.3639 139.316 63.9271 138.879 63.9271 138.34C63.9271 137.802 64.3639 137.365 64.9028 137.365H67.8299V134.438C67.8299 133.899 68.2667 133.462 68.8055 133.462ZM53.6823 134.925C53.6823 134.387 54.1191 133.95 54.658 133.95H54.6677C55.2066 133.95 55.6434 134.387 55.6434 134.925C55.6434 135.464 55.2066 135.901 54.6677 135.901H54.658C54.1191 135.901 53.6823 135.464 53.6823 134.925ZM64.4149 134.925C64.4149 134.387 64.8518 133.95 65.3906 133.95H65.4004C65.9392 133.95 66.3761 134.387 66.3761 134.925C66.3761 135.464 65.9392 135.901 65.4004 135.901H65.3906C64.8518 135.901 64.4149 135.464 64.4149 134.925Z" fill="white"/>
<path d="M222.792 87.477C233.995 87.477 243.077 78.3952 243.077 67.1923C243.077 55.9894 233.995 46.9076 222.792 46.9076C211.589 46.9076 202.508 55.9894 202.508 67.1923C202.508 78.3952 211.589 87.477 222.792 87.477Z" fill="black" fill-opacity="0.1"/>
<path d="M223.866 84.5696C235.068 84.5696 244.15 75.4878 244.15 64.2849C244.15 53.082 235.068 44.0002 223.866 44.0002C212.663 44.0002 203.581 53.082 203.581 64.2849C203.581 75.4878 212.663 84.5696 223.866 84.5696Z" fill="#665898"/>
<path d="M223.866 83.4969C234.476 83.4969 243.077 74.8957 243.077 64.2855C243.077 53.6753 234.476 45.0741 223.866 45.0741C213.256 45.0741 204.654 53.6753 204.654 64.2855C204.654 74.8957 213.256 83.4969 223.866 83.4969Z" fill="url(#paint3_linear_274_8032)"/>
<path fill-rule="evenodd" clip-rule="evenodd" d="M223.485 56.684C222.138 56.684 221.046 57.7761 221.046 59.1232C221.046 60.4704 222.138 61.5625 223.485 61.5625C224.684 61.5625 225.681 60.6974 225.886 59.5573C225.889 59.499 225.897 59.442 225.91 59.3869C225.919 59.3003 225.924 59.2123 225.924 59.1232C225.924 57.7761 224.832 56.684 223.485 56.684ZM227.828 58.4707C227.512 56.3553 225.688 54.7326 223.485 54.7326C221.06 54.7326 219.094 56.6983 219.094 59.1232C219.094 59.3609 219.113 59.5941 219.15 59.8216C217.605 60.8769 216.514 62.5516 216.236 64.4895H216.167C215.628 64.4895 215.192 64.0527 215.192 63.5138C215.192 63.1539 215.386 62.8383 215.68 62.6681C216.147 62.3983 216.306 61.8014 216.036 61.335C215.766 60.8685 215.17 60.7091 214.703 60.9789C213.831 61.4836 213.24 62.4292 213.24 63.5138C213.24 65.1304 214.551 66.4409 216.167 66.4409H216.237C216.447 67.9125 217.127 69.2334 218.119 70.2451L218.119 72.5128C218.119 72.629 218.119 72.7678 218.129 72.8901C218.14 73.0318 218.17 73.2347 218.278 73.4474C218.418 73.7228 218.642 73.9467 218.918 74.087C219.13 74.1953 219.333 74.225 219.475 74.2366C219.597 74.2466 219.736 74.2465 219.852 74.2465C219.86 74.2465 219.867 74.2465 219.875 74.2465H221.729C221.736 74.2465 221.744 74.2465 221.751 74.2465C221.868 74.2465 222.006 74.2466 222.129 74.2366C222.27 74.225 222.473 74.1953 222.686 74.087C222.961 73.9467 223.185 73.7228 223.325 73.4474C223.434 73.2347 223.464 73.0318 223.475 72.8901C223.485 72.7678 223.485 72.629 223.485 72.5128L223.485 72.2951H224.461L224.461 72.5128C224.461 72.629 224.461 72.7678 224.471 72.8901C224.482 73.0318 224.512 73.2347 224.62 73.4474C224.76 73.7228 224.984 73.9467 225.26 74.087C225.472 74.1953 225.675 74.225 225.817 74.2366C225.939 74.2466 226.078 74.2465 226.194 74.2465C226.202 74.2465 226.209 74.2465 226.217 74.2465H228.071C228.078 74.2465 228.086 74.2465 228.093 74.2465C228.21 74.2465 228.348 74.2466 228.471 74.2366C228.612 74.225 228.815 74.1953 229.028 74.087C229.303 73.9467 229.527 73.7228 229.668 73.4474C229.776 73.2347 229.806 73.0318 229.817 72.8901C229.827 72.7678 229.827 72.629 229.827 72.5128C229.827 72.5052 229.827 72.4977 229.827 72.4902V71.6376C230.906 71.125 231.829 70.3384 232.506 69.368L232.972 69.368C233.088 69.3681 233.227 69.3681 233.349 69.3581C233.491 69.3466 233.694 69.3168 233.906 69.2085C234.182 69.0682 234.406 68.8443 234.546 68.5689C234.654 68.3563 234.684 68.1533 234.696 68.0116C234.706 67.8894 234.706 67.7506 234.706 67.6344C234.706 67.6267 234.706 67.6192 234.706 67.6118L234.706 64.259C234.706 64.1484 234.706 64.0162 234.697 63.8996C234.686 63.7648 234.659 63.5714 234.561 63.3666M219.917 61.682C220.714 62.7913 222.015 63.5138 223.485 63.5138C225.41 63.5138 227.045 62.2752 227.638 60.5516C227.687 60.5405 227.73 60.5281 227.753 60.5214C227.756 60.5206 227.759 60.5198 227.761 60.5192L229.827 59.9289V60.7528C229.827 60.76 229.827 60.7684 229.827 60.7779C229.826 60.8672 229.825 61.0499 229.867 61.2261C229.903 61.3785 229.959 61.5135 230.041 61.6474C230.135 61.8028 230.273 61.9398 230.343 62.0088C230.35 62.0165 230.357 62.0233 230.363 62.0292C230.762 62.4313 231.091 62.9019 231.331 63.4212L231.338 63.4357C231.377 63.5199 231.42 63.613 231.461 63.6914C231.504 63.7739 231.579 63.906 231.698 64.0322C231.867 64.2106 232.06 64.3344 232.293 64.4129C232.452 64.4663 232.62 64.4833 232.754 64.4883V67.4166H232.421C232.412 67.4166 232.401 67.4165 232.389 67.4164C232.276 67.4154 232.045 67.4134 231.829 67.4781C231.642 67.534 231.482 67.6186 231.33 67.7409C231.154 67.8832 231.016 68.0871 230.947 68.1903C230.939 68.2019 230.932 68.2122 230.926 68.221C230.432 68.9415 229.75 69.5224 228.951 69.8929L228.936 69.9001C228.848 69.9409 228.751 69.9861 228.669 70.0295C228.583 70.0753 228.445 70.1539 228.315 70.2814C228.151 70.4417 228.036 70.6215 227.96 70.8373C227.871 71.0875 227.874 71.3638 227.875 71.4994C227.876 71.5141 227.876 71.5271 227.876 71.5383V72.2951H226.412L226.412 72.0774C226.412 71.9612 226.412 71.8224 226.402 71.7001C226.391 71.5584 226.361 71.3555 226.253 71.1428C226.112 70.8674 225.888 70.6435 225.613 70.5032C225.4 70.3949 225.197 70.3652 225.056 70.3536C224.933 70.3436 224.795 70.3437 224.678 70.3437C224.671 70.3437 224.663 70.3437 224.656 70.3437H223.29C223.282 70.3437 223.275 70.3437 223.267 70.3437C223.151 70.3437 223.012 70.3436 222.89 70.3536C222.748 70.3652 222.545 70.3949 222.333 70.5032C222.057 70.6435 221.833 70.8674 221.693 71.1428C221.585 71.3555 221.555 71.5584 221.543 71.7001C221.533 71.8224 221.534 71.9612 221.534 72.0774L221.534 72.2951H220.07V70.1777C220.07 70.1704 220.07 70.162 220.07 70.1526C220.071 70.0633 220.072 69.8806 220.03 69.7044C219.994 69.552 219.938 69.4169 219.856 69.2831C219.762 69.1277 219.624 68.9907 219.554 68.9217C219.547 68.914 219.54 68.9072 219.534 68.9013C218.658 68.0185 218.119 66.8058 218.119 65.4652C218.119 63.9401 218.818 62.5773 219.917 61.682ZM227.828 58.4707L229.54 57.9815C229.548 57.979 229.557 57.9765 229.566 57.9739C229.711 57.9324 229.876 57.8854 230.021 57.8576C230.181 57.8269 230.433 57.7942 230.714 57.8741C231.065 57.9738 231.367 58.201 231.559 58.5113C231.713 58.7601 231.751 59.0112 231.765 59.1736C231.779 59.3207 231.778 59.4917 231.778 59.6427C231.778 59.6519 231.778 59.6611 231.778 59.6702V60.6853C232.306 61.2233 232.745 61.8487 233.072 62.5383C233.161 62.5387 233.257 62.5404 233.344 62.5471C233.479 62.5576 233.672 62.5845 233.877 62.6831C234.176 62.827 234.417 63.068 234.561 63.3666" fill="white"/>
<path d="M222.792 152.547C233.995 152.547 243.077 143.465 243.077 132.262C243.077 121.059 233.995 111.977 222.792 111.977C211.589 111.977 202.508 121.059 202.508 132.262C202.508 143.465 211.589 152.547 222.792 152.547Z" fill="black" fill-opacity="0.1"/>
<path d="M223.866 149.639C235.068 149.639 244.15 140.557 244.15 129.355C244.15 118.152 235.068 109.07 223.866 109.07C212.663 109.07 203.581 118.152 203.581 129.355C203.581 140.557 212.663 149.639 223.866 149.639Z" fill="#DF6162"/>
<path d="M223.865 148.565C234.476 148.565 243.077 139.964 243.077 129.354C243.077 118.744 234.476 110.143 223.865 110.143C213.255 110.143 204.654 118.744 204.654 129.354C204.654 139.964 213.255 148.565 223.865 148.565Z" fill="url(#paint4_linear_274_8032)"/>
<path fill-rule="evenodd" clip-rule="evenodd" d="M217.3 121.754H230.645C231.159 121.754 231.603 121.754 231.968 121.783C232.354 121.815 232.738 121.885 233.107 122.073C233.658 122.353 234.106 122.801 234.386 123.352C234.574 123.721 234.644 124.105 234.675 124.49C234.705 124.856 234.705 125.3 234.705 125.814V129.559C234.705 130.098 234.268 130.535 233.73 130.535C233.191 130.535 232.754 130.098 232.754 129.559V128.583H215.191V133.267C215.191 133.829 215.192 134.193 215.215 134.469C215.236 134.734 215.273 134.832 215.298 134.881C215.391 135.064 215.541 135.213 215.724 135.307C215.772 135.332 215.871 135.368 216.136 135.39C216.412 135.413 216.775 135.413 217.338 135.413H223.973C224.511 135.413 224.948 135.85 224.948 136.389C224.948 136.928 224.511 137.365 223.973 137.365H217.3C216.786 137.365 216.342 137.365 215.977 137.335C215.591 137.303 215.207 137.234 214.838 137.046C214.287 136.765 213.84 136.317 213.559 135.767C213.371 135.397 213.301 135.014 213.27 134.628C213.24 134.262 213.24 133.819 213.24 133.304V125.814C213.24 125.3 213.24 124.856 213.27 124.49C213.301 124.105 213.371 123.721 213.559 123.352C213.84 122.801 214.287 122.353 214.838 122.073C215.207 121.885 215.591 121.815 215.977 121.783C216.342 121.754 216.786 121.754 217.3 121.754ZM215.191 126.632H232.754V125.852C232.754 125.289 232.753 124.926 232.731 124.649C232.709 124.384 232.672 124.286 232.648 124.238C232.554 124.054 232.405 123.905 232.221 123.811C232.173 123.787 232.075 123.75 231.81 123.728C231.533 123.706 231.17 123.705 230.607 123.705H217.338C216.775 123.705 216.412 123.706 216.136 123.728C215.871 123.75 215.772 123.787 215.724 123.811C215.541 123.905 215.391 124.054 215.298 124.238C215.273 124.286 215.236 124.384 215.215 124.649C215.192 124.926 215.191 125.289 215.191 125.852V126.632ZM234.42 132.772C234.801 133.153 234.801 133.771 234.42 134.152L230.517 138.055C230.136 138.436 229.518 138.436 229.137 138.055L227.185 136.103C226.804 135.722 226.804 135.104 227.185 134.723C227.567 134.342 228.184 134.342 228.565 134.723L229.827 135.985L233.04 132.772C233.421 132.391 234.038 132.391 234.42 132.772Z" fill="white"/>
<defs>
<linearGradient id="paint0_linear_274_8032" x1="142.378" y1="18.003" x2="142.378" y2="98.2744" gradientUnits="userSpaceOnUse">
<stop stop-color="#66D0EE"/>
<stop offset="1" stop-color="#00B1E2"/>
</linearGradient>
<linearGradient id="paint1_linear_274_8032" x1="46.3371" y1="50.7058" x2="73.4964" y2="77.8652" gradientUnits="userSpaceOnUse">
<stop stop-color="white" stop-opacity="0.3"/>
<stop offset="1" stop-color="white" stop-opacity="0"/>
</linearGradient>
<linearGradient id="paint2_linear_274_8032" x1="46.3371" y1="115.774" x2="73.4964" y2="142.934" gradientUnits="userSpaceOnUse">
<stop stop-color="white" stop-opacity="0.3"/>
<stop offset="1" stop-color="white" stop-opacity="0"/>
</linearGradient>
<linearGradient id="paint3_linear_274_8032" x1="210.286" y1="50.7058" x2="237.445" y2="77.8652" gradientUnits="userSpaceOnUse">
<stop stop-color="white" stop-opacity="0.3"/>
<stop offset="1" stop-color="white" stop-opacity="0"/>
</linearGradient>
<linearGradient id="paint4_linear_274_8032" x1="210.286" y1="115.774" x2="237.445" y2="142.934" gradientUnits="userSpaceOnUse">
<stop stop-color="white" stop-opacity="0.3"/>
<stop offset="1" stop-color="white" stop-opacity="0"/>
</linearGradient>
<clipPath id="clip0_274_8032">
<rect width="46.5813" height="17.9159" fill="white" transform="translate(119.393 35.1464)"/>
</clipPath>
</defs>
</svg>
